<?xml version="1.0" encoding="utf-8"?>
<!-- Generator: Adobe Illustrator 24.2.1, SVG Export Plug-In . SVG Version: 6.00 Build 0)  -->
<svg version="1.1" id="Layer_1" xmlns="http://www.w3.org/2000/svg" xmlns:xlink="http://www.w3.org/1999/xlink" x="0px" y="0px"
	 viewBox="0 0 1080 1080" style="enable-background:new 0 0 1080 1080;" xml:space="preserve">
<style type="text/css">
	.st0{fill:url(#SVGID_1_);}
	.st1{fill:#575757;}
	.st2{fill:#FFFFFF;}
	.st3{fill:#141414;}
</style>
<linearGradient id="SVGID_1_" gradientUnits="userSpaceOnUse" x1="40.1652" y1="536.3054" x2="985.8289" y2="536.3054">
	<stop  offset="0" style="stop-color:#49ECFC"/>
	<stop  offset="6.967008e-03" style="stop-color:#48EBFC"/>
	<stop  offset="0.68" style="stop-color:#14AEDC"/>
	<stop  offset="1" style="stop-color:#0096CF"/>
</linearGradient>
<path class="st0" d="M87.5,541.2c-85.2,63.9-48.8,209.5,56.6,250.9c21.2,8.3,61.8,17.5,77.7,21.8c122.4,33.1,94.2,165.1,188.4,227.7
	c94.2,62.5,160.8-18.8,207.5-65.4c93.7-93.7,222.5,5.1,267-117.4c19.6-54,13.7-152.3,4.5-209.2c-29.3-182.1-25.7-182.6,44.9-283.2
	c28.9-41.3,52-80.4,51.6-131.3c-0.6-81.3-59.6-128.8-125.8-130.7C640.1,97.9,674.3,135,517.5,49.4C459.3,17.7,396.2-3.1,332.7,14.9
	c-73.8,21-130.4,84.7-113.6,158.4c16.9,74.5,69.8,140.6,21.6,185.7c-48,44.8-127.1,32.2-131.1,107.2c-0.5,9.1,2.6,31.6,1.9,44.8
	C110.6,527.3,99.8,532,87.5,541.2z"/>
<g>
	
		<image style="overflow:visible;" width="2966" height="2975" xlink:href="818EDD875B2D9F12.png"  transform="matrix(0.24 0 0 0.24 170.64 246.24)">
	</image>
</g>
<path class="st1" d="M912.5,273.8c-31.7-29.2-68.4-28.7-110-16c-51,15.6-68.9,28.1-110.3,12.5c-55.6-21-90.5-63.8-155.4-61.4
	C420,213.4,374,321.9,333.2,370.9c-41.9,50.2-87.7,24.4-137.8,33.3c-52.2,9.2-66.5,73.7-19.4,115.1c51.7,45.4,104.5,59.1,91.8,132.2
	c-3.4,19.8-25.6,19.2-33.6,53.7c-12.2,52.6,32,151.9,99.5,132.8c32.8-9.3,69.3-35.9,113-0.4c64,52.1,103.3,117.8,160.8,97.7
	c52.6-18.5,81.1-55.1,157.4-38c24,5.4,40.2,13.1,101.8,35.5c130.4,47.4,210-75.9,156.6-201.5c-20.9-49.2-32.3-62.7-47.8-89.6
	c-61.7-107.2-28.9-115.6-14-208.9C971.9,367.9,946.4,305.1,912.5,273.8z"/>
<g>
	<path class="st2" d="M121.6,729.4c-10-12.6-20.3-25.5-26.1-40.9c-6.5-17-5.6-34.6,2.2-47.1c11.3-18,34.7-23.8,51.3-26.7
		c2.5-0.4,5-0.8,7.6-1.2c17.1-2.7,34.7-5.5,48.4-15.8c10.6-8,17.6-19.6,24.5-30.9c6.1-10.1,12.4-20.5,21.2-28.4
		c31.4-28.2,81.4-15,108.4-4.7c5.5,2.1,11.2,4.4,16.7,6.6c30,12.1,61,24.7,92.4,18.9c15-2.8,26.8-9.7,33.5-19.5
		c7.8-11.6,6.9-27.8-2.1-36.2c-9.4-8.8-24-8.2-37-7.6l-2.3,0.1c-13.3,0.6-30.5-1.5-36.6-14.5l-0.1-0.3l0.3-0.2
		c7.6-5.5,16.1-11.6,20.8-20.4c4.3-8.1,4.8-20.2-3-26.7c-9-7.5-22.5-3.2-32.2,1.6c-7.2,3.6-14.3,7.8-21.2,11.8
		c-9.5,5.6-19.3,11.3-29.5,15.7c-12.1,5.2-35.5,12.4-56.3,3c-9.8-4.5-17.9-13.3-21.6-23.7c-3-8.4-2.7-17,0.8-24.2
		c8.6-17.6,31.1-21.9,51.5-24.5c38.1-5,80.7-14,108-43.4c19.8-21.4,28.9-52.5,23.6-81.2c-5.3-28.7-24.8-54.6-50.9-67.6l0.3-0.7
		c26.3,13.1,46,39.2,51.3,68.1c5.3,28.9-3.8,60.3-23.8,81.8c-27.4,29.6-70.2,38.6-108.4,43.6c-20.2,2.6-42.4,6.9-50.9,24.1
		c-3.4,7-3.7,15.4-0.8,23.6c3.6,10.2,11.6,18.9,21.2,23.3c20.5,9.3,43.7,2.2,55.7-3c10.2-4.4,20-10.1,29.4-15.7
		c6.9-4.1,14-8.2,21.2-11.9c9.9-5,23.8-9.3,33-1.5c8.1,6.7,7.7,19.3,3.2,27.6c-4.7,8.9-13.2,15.1-20.8,20.5
		c6.1,12.4,22.8,14.4,35.8,13.8l2.3-0.1c13.1-0.6,27.9-1.2,37.5,7.8c9.2,8.7,10.2,25.3,2.2,37.2c-6.7,9.9-18.8,17-33.9,19.8
		c-31.6,5.9-62.7-6.7-92.9-18.9c-5.5-2.2-11.1-4.5-16.7-6.6c-26.8-10.3-76.5-23.4-107.6,4.5c-8.7,7.8-15,18.2-21,28.2
		c-6.9,11.3-14,23.1-24.6,31.1c-13.8,10.4-31.6,13.3-48.7,16c-2.5,0.4-5.1,0.8-7.6,1.2c-16.5,2.8-39.7,8.6-50.8,26.3
		c-7.7,12.3-8.5,29.7-2.1,46.5c5.8,15.2,16.1,28.2,26,40.7L121.6,729.4z"/>
</g>
<g>
	<g>
		<path class="st3" d="M802.8,120.3c1,19.6-58,27.7-126.2,37.1c-57.3,7.9-122.3,16.8-171.7,34.4C462.2,207,439.5,244,435.5,305
			c-3.4,51.9,7.6,112.1,16.3,160.6c2.6,14.2,5,27.5,6.9,39.5c5.2,33.3-9.2,56.6-45.3,73.5c-32.7,15.3-80.8,24-131.6,33.2
			c-29.9,5.4-60.8,11-91.8,18.4c-70,16.7-111.2,39.1-125.9,68.5c-1.9,3.8-3.3,7.7-4.3,11.7c0.2,0.5,0.4,1,0.7,1.5
			c1-4.4,2.5-8.7,4.5-12.8c14.6-29.1,55.5-51.4,125.2-68c30.9-7.4,61.8-13,91.7-18.4c50.9-9.2,99-18,131.9-33.3
			c36.5-17,51-40.7,45.8-74.3c-1.9-11.9-4.3-25.3-6.9-39.5C444,417,433.1,356.8,436.5,305c4-60.6,26.5-97.4,68.8-112.4
			c49.3-17.5,114.2-26.4,171.4-34.3c71.5-9.8,128-17.6,127-38L802.8,120.3z"/>
	</g>
	<g>
		<path class="st3" d="M786.3,109.9c-4.5,18.9-63.1,29.6-130.6,41.8c-51.9,9.4-110.8,20.1-157.1,36.6
			c-100.7,35.8-76.5,180.8-60.5,276.7c1.6,9.5,3.1,18.4,4.4,26.8c5.2,33.3-9.2,56.6-45.3,73.5c-32.7,15.3-80.8,24-131.6,33.2
			c-29.9,5.4-60.8,11-91.8,18.4c-61.6,14.7-98.9,35.3-114,63c-3,5.5-4.9,11.2-6.2,16.9c0.2,0.5,0.5,0.9,0.7,1.5
			c1.2-6.2,3.1-12.2,6.3-18c14.9-27.5,52-47.9,113.3-62.5c30.9-7.4,61.8-13,91.7-18.4c50.9-9.2,99-18,131.9-33.3
			c36.5-17,51-40.7,45.8-74.3c-1.3-8.4-2.8-17.3-4.4-26.8c-16-95.7-40.1-240.2,59.9-275.8c46.2-16.4,105-27.1,156.9-36.5
			c70.5-12.8,126.9-23.1,131.4-42.5C786.9,110.1,786.6,110,786.3,109.9z"/>
	</g>
	<g>
		<path class="st3" d="M764.9,105.1c-17,16.1-71.5,28.5-132.7,42.5c-45.8,10.4-97.6,22.2-139.8,37.2c-24.9,8.8-44.3,24.6-57.6,46.8
			c-11.5,19.1-18.8,43.7-21.8,73.1c-5.5,54,4,114.2,11.6,162.5c0.6,3.9,1.2,7.7,1.8,11.3c5.2,33.3-9.2,56.6-45.3,73.5
			c-32.7,15.3-80.8,24-131.6,33.2c-29.9,5.4-60.8,11-91.8,18.4c-54.3,12.9-87.9,31.5-102.8,56.9c-3.1,5.2-5.2,10.6-6.7,16.2
			c0.1,0.8,0.3,1.5,0.4,2.3c1.4-6.2,3.7-12.3,7.1-18.1c14.7-25.2,48.2-43.6,102.2-56.5c30.9-7.4,61.8-13,91.7-18.4
			c50.9-9.2,99-18,131.9-33.3c36.5-17,51-40.7,45.8-74.3c-0.6-3.7-1.2-7.5-1.8-11.3c-7.6-48.3-17.1-108.5-11.6-162.3
			c6.5-63.6,32.2-102.6,78.7-119.1c42.1-15,94-26.8,139.7-37.2c61.7-14,116.4-26.5,133.5-43.1C765.5,105.3,765.2,105.2,764.9,105.1z
			"/>
	</g>
	<g>
		<path class="st3" d="M718.9,110.4c-27.9,11.8-69.7,23.3-114.8,35.6c-40.1,11-81.6,22.4-118.1,35.3c-25.9,9.2-46.3,25.3-60.6,47.8
			c-12.3,19.4-20.5,44.3-24.3,73.8c-6.8,52.8,1.1,111.5,9,162.4c5.2,33.3-9.2,56.6-45.3,73.5c-32.7,15.3-80.8,24-131.6,33.2
			c-29.9,5.4-60.8,11-91.8,18.4c-48,11.4-78.4,28.2-92.7,51.1c-2,3.2-3.6,6.5-4.9,9.9c0.1,0.4,0.3,0.9,0.4,1.3
			c1.4-3.7,3.2-7.3,5.4-10.8c14.2-22.8,44.4-39.4,92.1-50.7c30.9-7.4,61.8-13,91.7-18.4c50.9-9.2,99-18,131.9-33.3
			c36.5-17,51-40.7,45.8-74.3c-7.9-50.8-15.7-109.5-9-162.2c8.2-64.1,35.8-103.7,84.3-120.9c36.4-12.9,77.9-24.3,118-35.3
			c46-12.6,88.5-24.3,116.6-36.4C720.2,110.4,719.6,110.3,718.9,110.4z"/>
	</g>
	<g>
		<path class="st3" d="M676.1,111.8c-30.5,12.2-69.3,24.5-109,37.1c-29.4,9.3-59.8,19-87.5,28.8c-48.7,17.3-78.9,56.6-89.8,116.7
			c-9.9,54.3-2.4,115.9,4.1,157.6c5.2,33.3-9.2,56.6-45.3,73.5c-32.7,15.3-80.8,24-131.6,33.2c-29.9,5.4-60.8,11-91.8,18.4
			c-40.5,9.6-67.2,23.6-81.5,42.6c-0.1,0.7-0.3,1.4-0.4,2.1c13.9-19.7,40.8-34,82.2-43.9c30.9-7.4,61.8-13,91.7-18.4
			c50.9-9.2,99-18,131.9-33.3c36.4-17,51-40.7,45.8-74.3c-6.5-41.6-13.9-103.1-4.1-157.3c10.9-59.8,40.9-98.9,89.2-116.1
			c27.6-9.8,58-19.5,87.4-28.8c40.6-12.9,80.1-25.5,111-37.9C677.7,111.8,676.9,111.8,676.1,111.8z"/>
	</g>
	<g>
		<path class="st3" d="M646.4,110c-40.2,17.6-91.1,35.5-139,52.3c-11.5,4.1-23,8.1-34.1,12c-49.2,17.5-81.1,55.1-94.8,111.8
			c-9.9,41.2-10.2,92.6-0.9,152.7c5.2,33.3-9.2,56.6-45.3,73.5c-32.7,15.3-80.8,24-131.6,33.2c-29.9,5.4-60.8,11-91.8,18.4
			c-24.2,5.8-43.1,13.3-57,22.8c-0.2,0.5-0.3,0.9-0.5,1.4c13.9-9.7,33-17.4,57.7-23.3c30.9-7.4,61.8-13,91.7-18.4
			c50.9-9.2,99-18,131.9-33.3c36.5-17,51-40.7,45.8-74.3c-9.3-60-9-111.3,0.9-152.4c13.6-56.4,45.2-93.8,94.2-111.2
			c11.1-3.9,22.5-8,34.1-12c48.3-17,99.7-35,140.1-52.8C647.4,110.1,646.9,110.1,646.4,110z"/>
	</g>
	<g>
		<path class="st3" d="M631.5,102.9c-50.3,25.5-116.2,50.6-164.5,67.8c-49.9,17.7-83.4,53.7-99.7,107
			c-15.8,51.6-11.9,108.9-5.8,147.9c5.2,33.3-9.2,56.6-45.3,73.5c-32.7,15.3-80.8,24-131.6,33.2c-29.9,5.4-60.8,11-91.8,18.4
			c-7.2,1.7-13.8,3.6-20,5.7c-0.1,0.3-0.2,0.7-0.2,1c6.3-2.1,13.1-4.1,20.5-5.9c30.9-7.4,61.8-13,91.7-18.4
			c50.9-9.2,99-18,131.9-33.3c36.5-17,51-40.7,45.8-74.3c-6-38.9-9.9-96,5.8-147.5c16.2-53,49.5-88.8,99.1-106.4
			c48.4-17.2,114.4-42.4,164.8-68C631.9,103.3,631.7,103.1,631.5,102.9z"/>
	</g>
</g>
<g>
	<path class="st2" d="M445.8,635.5l-22.3-22.3l22.3-22.3l22.3,22.3L445.8,635.5z M425.1,613.2l20.7,20.7l20.7-20.7l-20.7-20.7
		L425.1,613.2z"/>
</g>
<g>
	<rect x="432.3" y="285" class="st2" width="55.7" height="1.1"/>
</g>
<g>
	<rect x="143.5" y="629.6" class="st2" width="20.3" height="1.1"/>
</g>
</svg>
