<svg xmlns="http://www.w3.org/2000/svg" viewBox="0 0 500 50"><defs><style>.cls-1{font-size:23px;font-family:Poppins-Medium, Poppins;font-weight:500;letter-spacing:-0.02em;}.cls-1,.cls-2{fill:#fff;}.cls-2{fill-rule:evenodd;}</style></defs><g id="Layer_5" data-name="Layer 5"><text class="cls-1" transform="translate(0 29.72)">diseñado con</text><text class="cls-1" transform="translate(214.25 29.72)">por gommorin marketing</text></g><g id="Layer_6" data-name="Layer 6"><path class="cls-2" d="M184,10.39a11.87,11.87,0,0,0-2.45-2.13,12.77,12.77,0,0,0-6.94-2,11.27,11.27,0,0,0-11.48,11.27,15.49,15.49,0,0,0,1.44,6.39c2.84,6.28,9.34,11.59,14.93,16.15,1.61,1.32,3.15,2.57,4.5,3.77,1.35-1.2,2.89-2.45,4.5-3.77,5.59-4.56,12.09-9.87,14.93-16.15a15.49,15.49,0,0,0,1.44-6.39A11.27,11.27,0,0,0,193.39,6.21a12.77,12.77,0,0,0-6.94,2.05A11.87,11.87,0,0,0,184,10.39Zm0,27.91,2.05-1.69,1.74-1.42c2.28-1.89,4.52-3.81,6.5-5.82a25.61,25.61,0,0,0,5.34-7.24,11.32,11.32,0,0,0,1.07-4.65,7.09,7.09,0,0,0-7.31-7.09,8.33,8.33,0,0,0-6.24,2.74L184,16.76l-3.15-3.63a8.33,8.33,0,0,0-6.24-2.74,7.09,7.09,0,0,0-7.31,7.09,11.32,11.32,0,0,0,1.07,4.65,25.61,25.61,0,0,0,5.34,7.24c2,2,4.22,3.93,6.5,5.82L182,36.61Z"/></g></svg>