<svg xmlns="http://www.w3.org/2000/svg" xmlns:xlink="http://www.w3.org/1999/xlink" viewBox="0 0 500 50"><defs><style>.cls-1{font-size:23px;font-family:Poppins-Medium, Poppins;font-weight:500;letter-spacing:-0.02em;}.cls-2{fill-rule:evenodd;fill:url(#linear-gradient);}</style><linearGradient id="linear-gradient" x1="163.25" y1="25" x2="205" y2="25" gradientUnits="userSpaceOnUse"><stop offset="0" stop-color="#ef0081"/><stop offset="0.22" stop-color="#f12c6e"/><stop offset="0.59" stop-color="#f4714f"/><stop offset="0.86" stop-color="#f69c3c"/><stop offset="1" stop-color="#f7ad35"/></linearGradient></defs><g id="Layer_7" data-name="Layer 7"><text class="cls-1" transform="translate(0 29.72)">diseñado con</text><text class="cls-1" transform="translate(214.25 29.72)">por gommorin marketing</text></g><g id="Layer_8" data-name="Layer 8"><path class="cls-2" d="M184.13,10.39a11.87,11.87,0,0,0-2.45-2.13,12.83,12.83,0,0,0-7-2,11.27,11.27,0,0,0-11.48,11.27,15.5,15.5,0,0,0,1.45,6.39C167.54,30.15,174,35.46,179.63,40c1.61,1.32,3.14,2.57,4.5,3.77,1.35-1.2,2.88-2.45,4.49-3.77,5.6-4.56,12.1-9.87,14.93-16.15A15.34,15.34,0,0,0,205,17.48,11.27,11.27,0,0,0,193.52,6.21a12.83,12.83,0,0,0-7,2.05A11.82,11.82,0,0,0,184.13,10.39Zm0,27.91,2.05-1.69,1.73-1.42a85.89,85.89,0,0,0,6.51-5.82,26,26,0,0,0,5.34-7.24,11.32,11.32,0,0,0,1.07-4.65,7.09,7.09,0,0,0-7.31-7.09,8.31,8.31,0,0,0-6.24,2.74l-3.15,3.63L181,13.13a8.31,8.31,0,0,0-6.24-2.74,7.08,7.08,0,0,0-7.3,7.09,11.32,11.32,0,0,0,1.07,4.65,25.75,25.75,0,0,0,5.33,7.24c2,2,4.22,3.93,6.51,5.82.57.47,1.15,1,1.74,1.42Z"/></g></svg>