<svg xmlns="http://www.w3.org/2000/svg" viewBox="0 0 1000 1000"><defs><style>.cls-1{fill:none;stroke:#3dae2b;stroke-miterlimit:10;stroke-width:20px;}.cls-2{fill:#211261;}.cls-3{fill:#3dae2b;fill-rule:evenodd;}</style></defs><g id="Servicios"><g id="Servicio_5" data-name="Servicio 5"><path class="cls-1" d="M505.08,733.33c-87.35,45.53-179.71,68.74-261,65.46-84.53-3.41-147.11-35-176.22-89.08S46.79,586,90.46,513.55c27.79-46.1,67.94-89.88,116.86-128.09M745.78,355c24.15,52.79,14.84,119.13-26.66,188-24.13,40.06-57.6,78.35-98,112.77M366.75,294.8c67.93-26.62,136.58-39.61,198.75-37.1,84.53,3.41,147.12,35,176.22,89.08q2.16,4,4.06,8.17"/><rect class="cls-2" x="694.69" y="747.97" width="124.32" height="4.44"/><path class="cls-2" d="M391.37,515l133.45,66.93c-15.05,27.55-20.68,64.09-22.69,83.37L452.86,705h-16.2a5.76,5.76,0,0,0,0,11.51H475A5.76,5.76,0,0,0,475,705h-1.91l24.56-19.81a49.92,49.92,0,0,1,74.46-6.72H785.24C718.63,559.26,633,539,569.57,546.58c-14.86,1.78-26.52,10-35.66,21.48l-135-67.7a25.79,25.79,0,0,1-1.66,5.94A26.07,26.07,0,0,1,391.37,515ZM559,645.11a3.81,3.81,0,0,1-7.61,0V593.52a3.81,3.81,0,1,1,7.61,0Zm25.69-51.59a3.81,3.81,0,1,1,7.61,0v51.59a3.81,3.81,0,0,1-7.61,0Zm-16.65,0a3.81,3.81,0,1,1,7.61,0v51.59a3.81,3.81,0,0,1-7.61,0Z"/><path class="cls-2" d="M176,706.88a31.71,31.71,0,1,0,52.88,35c35.16-53.1,47.1-102,48.27-142.51l-71.42-58C217.76,578.72,222,637.38,176,706.88Z"/><path class="cls-2" d="M176.81,510.31l114.72,93.25,41.6,131.34a31.71,31.71,0,1,0,60.47-19.15L349.14,575.36a31.8,31.8,0,0,0-10.23-15l-89.06-72.38c1.28-4.9,2.79-9.79,4.46-14.67a26.16,26.16,0,0,1-8.13-17.93l-3.64-102.08a26.18,26.18,0,0,1,25.19-27.05l.93,0a26.06,26.06,0,0,1,26.12,25.21l1.34,37.65c2-3.37,3.86-6.65,5.65-9.78,15-21.6,15.6-53.28-3.2-65.32S246.26,303,222.29,334.14c-32.72,43-46.89,73.37-58.69,128.87-1.65,12.32-.55,22.1,2.38,30A31.58,31.58,0,0,0,176.81,510.31Z"/><path class="cls-2" d="M289,351.6a20.3,20.3,0,0,0-40.57,1.45L252,455.14a20.29,20.29,0,0,0,12.5,18L365.38,515a20.3,20.3,0,0,0,15.56-37.49l-88.82-36.87Z"/><path class="cls-2" d="M327.83,313.43a57.07,57.07,0,0,0,65.05-37.49,157.68,157.68,0,0,1-15.53-4.79c-27.79-10.12-47.67-25.72-45.14-35.22,2.09,9.36,23,20.37,49.88,25.68,20.29,4,38.69,3.73,48.86,0,4.64-1.72,7.57-4.15,8.18-7.24,1.95-9.85-20.44-22.58-50-28.42-1-.2-2-.36-3-.54a57.08,57.08,0,1,0-58.3,88Z"/><path class="cls-2" d="M739.09,703v10.15H694.27a7.63,7.63,0,0,0-7.61,7.61v16.07a7.63,7.63,0,0,0,7.61,7.61H819.44a7.63,7.63,0,0,0,7.61-7.61V720.8a7.64,7.64,0,0,0-7.61-7.61H774.61V703h14V687H579.38a49.78,49.78,0,0,1,7.1,16.07Z"/><polygon class="cls-2" points="478.6 720.97 433.05 720.97 426.9 750.85 468.9 750.85 472.95 735.51 477.41 750.85 484.74 750.85 478.6 720.97"/><path class="cls-2" d="M496.06,715.05a41.79,41.79,0,1,0,41.79-41.79A41.79,41.79,0,0,0,496.06,715.05Zm65.47,0a23.68,23.68,0,1,1-23.68-23.68A23.68,23.68,0,0,1,561.53,715.05Z"/><path class="cls-2" d="M525.34,715.05a12.51,12.51,0,1,0,12.51-12.51A12.52,12.52,0,0,0,525.34,715.05Z"/><polygon class="cls-3" points="896.53 456.85 911.15 496.37 950.67 511 911.15 525.62 896.53 565.14 881.91 525.62 842.39 511 881.91 496.37 896.53 456.85"/></g></g></svg>