<svg xmlns="http://www.w3.org/2000/svg" viewBox="0 0 1000 1000"><defs><style>.cls-1{fill:#3dae2b;}.cls-2{fill:none;stroke:#cfe2e5;stroke-miterlimit:10;stroke-width:3.95px;opacity:0.5;}</style></defs><g id="Circulos_Doble_Verde" data-name="Circulos Doble Verde"><path class="cls-1" d="M643.62,802.54c-113.4,64.1-234.88,98.23-342.06,96.1-108.19-2.15-189-41-227.68-109.3S43.7,631.7,97.65,537.9C151.09,445,243,358.5,356.38,294.39s234.88-98.23,342.06-96.1c108.19,2.15,189,41,227.68,109.31S956.3,465.23,902.35,559C848.91,652,757,738.44,643.62,802.54Z"/><path class="cls-2" d="M699.42,588.74c-57.49,89-132.11,159.48-210.13,198.42C410.54,826.47,337.62,829,284,794.4s-81.28-102.15-77.84-190.11c3.4-87.12,36.94-184.12,94.43-273.13S432.69,171.69,510.71,132.74C589.46,93.43,662.38,90.86,716,125.5s81.29,102.15,77.84,190.11C790.45,402.73,756.91,499.73,699.42,588.74Z"/></g></svg>