<svg id="Figuras_Unidas" data-name="Figuras Unidas" xmlns="http://www.w3.org/2000/svg" xmlns:xlink="http://www.w3.org/1999/xlink" viewBox="0 0 1000 1000"><defs><style>.cls-1{fill:url(#linear-gradient);}.cls-2{fill:url(#New_Gradient_Swatch_2);}</style><linearGradient id="linear-gradient" x1="1469.15" y1="512.46" x2="1086.62" y2="699.51" gradientTransform="matrix(0.98, 0.21, -0.21, 0.98, -137.43, -217)" gradientUnits="userSpaceOnUse"><stop offset="0" stop-color="#22bbed" stop-opacity="0.2"/><stop offset="0.4" stop-color="#22bbed" stop-opacity="0.7"/><stop offset="0.49" stop-color="#23b0e6" stop-opacity="0.71"/><stop offset="0.64" stop-color="#2691d4" stop-opacity="0.73"/><stop offset="0.81" stop-color="#2a5fb6" stop-opacity="0.76"/><stop offset="1" stop-color="#301a8e" stop-opacity="0.8"/></linearGradient><linearGradient id="New_Gradient_Swatch_2" x1="2451.03" y1="441.58" x2="2068.5" y2="628.64" gradientTransform="matrix(-0.02, 1, 1, 0.02, 173.16, -1297.62)" gradientUnits="userSpaceOnUse"><stop offset="0" stop-color="#22bbed" stop-opacity="0.2"/><stop offset="0.36" stop-color="#59ff3f" stop-opacity="0.4"/><stop offset="0.68" stop-color="#59ff3f" stop-opacity="0.8"/><stop offset="0.75" stop-color="#54f23c" stop-opacity="0.77"/><stop offset="0.89" stop-color="#48cf33" stop-opacity="0.68"/><stop offset="1" stop-color="#3dae2b" stop-opacity="0.6"/></linearGradient></defs><path class="cls-1" d="M1009.15,998.8a186.19,186.19,0,0,1-162.51-90.88l-100.11-168A186.21,186.21,0,0,1,744,553.69L839.45,383a186.21,186.21,0,0,1,160-95.3L1195,285"/><path class="cls-2" d="M1006.34,1077.28a186.2,186.2,0,0,0-51.28-179L814.39,762.37a186.19,186.19,0,0,0-180.66-45.09l-188,53.86A186.22,186.22,0,0,0,316.32,905.06L269,1094.83"/></svg>