<svg xmlns="http://www.w3.org/2000/svg" viewBox="0 0 1000 1000"><defs><style>.cls-1{fill:none;stroke:#3dae2b;stroke-miterlimit:10;stroke-width:20px;}.cls-2{fill:#211261;}.cls-3{fill:#3dae2b;fill-rule:evenodd;}</style></defs><g id="Servicios"><g id="Servicio_4" data-name="Servicio 4"><path class="cls-1" d="M497.44,738.71c-85.28,43.16-174.9,65.07-254,61.88-84.54-3.41-147.12-35-176.22-89.08S46.12,587.82,89.79,515.36c38.41-63.74,100.44-123,176.63-169.32m478.69,10.71c24.15,52.8,14.84,119.13-26.66,188-21.3,35.34-49.86,69.32-84.08,100.47M404.12,283.14c55.27-17.46,110.13-25.68,160.7-23.64,84.54,3.41,147.12,35.05,176.22,89.08q2.18,4,4.07,8.17M266.42,346q14.43-8.76,29.5-16.89"/><path class="cls-2" d="M313.42,335.26a22.62,22.62,0,0,1,36.85-19.74l18.79,15.39c.5-18-7.76-35.48-22.74-39.22-18.75-4.67-45.93,5.51-57,37.67-14.94,44.3-18.15,73.14-12.47,121.92,6.27,32.29,27,38.12,45.9,38.69a27.88,27.88,0,0,0,3.31.22h86.76L438.36,603a27.45,27.45,0,1,0,53.55-12.12L461.53,456.68a27.45,27.45,0,0,0-26.77-21.39H354.05c.05-17.93,2.57-36.4,5.63-53.58l-38.08-31.2A22.43,22.43,0,0,1,313.42,335.26Z"/><path class="cls-2" d="M228.68,644.43a58.8,58.8,0,0,1,24.2,5.2H419.06c0-120.74-27.06-149.88-27.06-149.88H277.15l-26.4-111.09a8.81,8.81,0,0,0-10.58-6.51h0a8.79,8.79,0,0,0-6.51,10.57l12.08,50.82H197V303.37H183.81V447.23c-14.91,12.06-59.76,52.8-59.76,106.64v95.76h80.43A58.76,58.76,0,0,1,228.68,644.43Zm-73.93-98.76H264.56v6.59H154.75Zm0,16.75H264.56V569H154.75Zm0,16.74H264.56v6.59H154.75Z"/><path class="cls-2" d="M191.35,657.74H133.87l18,58.29h19a59,59,0,0,1,20.48-58.29Z"/><path class="cls-2" d="M287.82,703.57A59.45,59.45,0,0,1,286.49,716H477.17a39.61,39.61,0,0,1,78,0h13.12l34.38-28.65a17.87,17.87,0,0,1,3.51-2.92l12.07-10.06-6.75-30.79,41.06,19.78,4.57,18.25,2.49,10H615.76a8,8,0,0,0,0,15.95H731.39a8,8,0,1,0,0-15.95H682.24l-2.49-10-7.15-28.58a11,11,0,0,0-5.89-7.23L605.5,616.36l-47-214-29.72,15-10.47-23.34a22.4,22.4,0,0,1-3.82,6.36,22.69,22.69,0,0,1-4.25,3.84l8.23,18.34-5.77,2.92,32.82,162.63-70.19,69.6H266A59.06,59.06,0,0,1,287.82,703.57Z"/><path class="cls-2" d="M179.39,703.57a49.29,49.29,0,1,0,49.29-49.28A49.29,49.29,0,0,0,179.39,703.57Zm77.22,0a27.93,27.93,0,1,1-27.93-27.93A27.93,27.93,0,0,1,256.61,703.57Z"/><path class="cls-2" d="M213.92,703.57a14.76,14.76,0,1,0,14.76-14.75A14.78,14.78,0,0,0,213.92,703.57Z"/><path class="cls-2" d="M516.16,690a33,33,0,1,0,33,33A33,33,0,0,0,516.16,690Zm18.72,33a18.73,18.73,0,1,1-18.72-18.72A18.72,18.72,0,0,1,534.88,723.06Z"/><polygon class="cls-2" points="613.44 713.67 610.69 716.79 579.58 752.08 733.46 752.08 729.56 733.81 743.57 752.08 767.58 752.08 736.46 716.79 733.72 713.67 613.44 713.67"/><path class="cls-2" d="M381.35,297a49.4,49.4,0,0,0,56.36-32.37,139.13,139.13,0,0,1-13.43-4.17c-24-8.8-41.24-22.32-39-30.54,1.8,8.1,19.87,17.66,43.14,22.29,17.56,3.5,33.49,3.28,42.29,0,4-1.47,6.56-3.58,7.09-6.25,1.7-8.53-17.66-19.57-43.23-24.66-.88-.17-1.74-.32-2.6-.47A49.41,49.41,0,1,0,381.35,297Z"/><path class="cls-2" d="M519.89,387.29l34-15.26a5.86,5.86,0,1,0-4.79-10.69l-31.61,14.18a22.41,22.41,0,0,1,2.38,8.43A23.27,23.27,0,0,1,519.89,387.29Z"/><path class="cls-2" d="M514.86,384.35A17.54,17.54,0,0,0,496,368.21l-81.53,6.4-67.38-55.18a17.57,17.57,0,1,0-22.26,27.18l72.84,59.66a17.56,17.56,0,0,0,11.13,4c.46,0,.91,0,1.37-.06l88.58-6.95A17.57,17.57,0,0,0,514.86,384.35Z"/><path class="cls-2" d="M204.4,269.88a14,14,0,0,0-28,0v29.65h28Z"/><polygon class="cls-3" points="895.86 422.36 910.48 461.88 950 476.5 910.48 491.12 895.86 530.64 881.23 491.12 841.71 476.5 881.23 461.88 895.86 422.36"/></g></g></svg>