<svg xmlns="http://www.w3.org/2000/svg" viewBox="0 200 1000 600"><defs><style>.cls-1,.cls-2{fill:#fff;}.cls-2,.cls-3{fill-rule:evenodd;}.cls-3{fill:#3c3d3d;}.cls-4{fill:none;stroke:#fff;stroke-linecap:round;stroke-miterlimit:10;stroke-width:0.59px;}</style></defs><g id="Logo_Blanco-Gris" data-name="Logo Blanco-Gris"><path class="cls-1" d="M521.52,753.51c-113.15,0-219.59-26.12-299.72-73.54C140.9,632.1,96.35,568.19,96.35,500S140.9,367.9,221.8,320c80.13-47.42,186.57-73.54,299.72-73.54S741.12,272.61,821.25,320C902.15,367.9,946.7,431.82,946.7,500S902.15,632.1,821.25,680C741.12,727.39,634.67,753.51,521.52,753.51Zm0-497.88c-229.45,0-416.13,109.62-416.13,244.37S292.07,744.37,521.52,744.37,937.66,634.75,937.66,500,751,255.63,521.52,255.63Z"/><path class="cls-2" d="M803.43,347.4c-11.54,0-23.08,5.23-24.46,15.67-.3,5.45-.55,10.9-.8,16.36,2.24,4.54,5.54,8.53,11.4,7.23a92.88,92.88,0,0,1,27.72,0c5.86,1.3,9.16-2.69,11.4-7.23-.24-5.46-.49-10.91-.79-16.36-1.39-10.44-12.93-15.67-24.47-15.67Zm0,26.54a89.17,89.17,0,0,1,21.5,2.61c-1.41,3.08-3.12,6.41-6.62,5.63a96.78,96.78,0,0,0-29.75,0c-3.51.78-5.21-2.55-6.63-5.63a89.24,89.24,0,0,1,21.5-2.61Zm-10.76-12.07c0-2.94,4.82-5.32,10.76-5.32s10.76,2.38,10.76,5.32C814.19,368.83,792.67,368.83,792.67,361.87Z"/><path class="cls-2" d="M776.79,459.05h10.07v-5.87H776.79v5.87Zm62.64,16.74,3.25,36.82,11.43-.17L843.75,515l.59,16.73,4,2,13.08-3.7.55-17.8,1.26,0L861.58,470,856,429.15c-.66-3.43-3-5.27-6.19-6.63-4.88-2.22-11.16-5.1-16.87-7.58v26h2l3.6,9.2-.24,4.68,1.19,21Zm-14.79-64.31c-1-.41-2-.77-2.87-1.06-6.88,10-30.88,10-37.76,0l-2.86,1v29.49h43.49V411.48Zm-51.8,3.14c-8.24,3.38-17.42,7.86-21.31,12.37l-14.45,14.2L719.82,431.1l-.53,1.36-3-4.82-4.09-2.19H683l-1.23,1v5.43L683,433l22.93,9.7,7.1,5.37-.78,3.42,28.1,16.34,7.41-1.25,17.07-11.87,8-13.9,0-26.22Zm-5.07,44.43,5.55-13.72h59.14l4.09,10.08.84,40,.93,26q-.45,47.42-.89,94.89l3.42,1.17c3.26,1.38,5,12.61,3.2,12.76H811.81c-1.66,0-2-6.23-2.72-10.47L804.23,527h-2.55l-4.86,92.72c-.67,4.24-1.05,10.47-2.72,10.47H761.86c-1.81-.15-.06-11.38,3.21-12.76l3.42-1.17q-.39-47.5-.89-94.89l.93-26-.76-36.33Zm50.92,0h10.07v-5.87H818.69v5.87Zm8.4-76.91c-.55,6.63-1.82,14-3.75,17.64-2.72,5.15-9,10.09-16.06,11.78a20.5,20.5,0,0,1-7.65,0c-7-1.69-13.34-6.63-16.06-11.78-1.92-3.63-3.18-10.94-3.74-17.55,1.67,2.43,3.85,4.3,6.84,4.56.57,4.18,1.42,8.07,2.49,10.11,2.14,4,7.27,7.4,11.73,8.54a14.32,14.32,0,0,0,5.14,0c4.45-1.14,9.59-4.5,11.72-8.54,1.08-2,1.92-5.93,2.49-10.11C823.25,386.5,825.42,384.6,827.09,382.14Z"/><path class="cls-2" d="M754.12,541.89l85.3-11.67,2.31,1.85,47.16-6.44q-1-6.93-1.9-13.87l-47.16,6.44-1.72,2.41-85.3,11.67-1.9-1.91-6.11.83-2.74-20.05a2.8,2.8,0,0,0-3.15-2.4l-15.64,2.14a2.8,2.8,0,0,0-2.4,3.15l7.37,54a2.83,2.83,0,0,0,3.16,2.4L747,568.29a2.81,2.81,0,0,0,2.4-3.16l-2.74-20,6.1-.84Z"/><path class="cls-3" d="M753.76,535.56c38.86-5.31,46.76-6.41,84.41-11.55l-.06-3.4-85.3,11.67Z"/><path class="cls-2" d="M925.87,626.39H893a5,5,0,0,1-5-5V551.75a5,5,0,0,1,5-5h1.14a11.07,11.07,0,0,1,10-6.4h26.46a11.07,11.07,0,0,1,10,6.4h1.14a5,5,0,0,1,5,5v53.82a15.12,15.12,0,0,0-20.83,20.82Zm12.84-19.26A11.29,11.29,0,1,0,950,618.42,11.28,11.28,0,0,0,938.71,607.13Z"/><path class="cls-2" d="M874,517.05c8.19-5.13,16.6-5.42,22.35-3,11.66,4.82,10.3,16.86.68,24-11.68,8.7-28.34,18.24-36.73,29.51-7.69,10.34-11.86,35.67-.32,44.26,8.75,6.51,25.9.12,35.27-2.81l2.7,8.67c-13.06,4.08-31.09,10.57-43.37,1.42-16-11.89-12.33-42.48-1.57-56.94,9.31-12.51,25.91-21.93,38.61-31.39,3.33-2.48,6.38-6.24,1.28-8.35-3.4-1.4-8.64-1.06-14.1,2.36Z"/><polygon class="cls-2" points="698.53 353.33 706.31 374.36 727.34 382.14 706.31 389.92 698.53 410.95 690.74 389.92 669.72 382.14 690.74 374.36 698.53 353.33"/><path class="cls-1" d="M363.73,542.22a39,39,0,0,1-14.53-2.55,32.81,32.81,0,0,1-10.93-6.94,29.07,29.07,0,0,1-6.87-10.4A35.62,35.62,0,0,1,329,509.24a39.3,39.3,0,0,1,3.15-15.44A41.26,41.26,0,0,1,341,480.65a43.24,43.24,0,0,1,13.22-9.1,42.3,42.3,0,0,1,31.08-.85,32.88,32.88,0,0,1,11,6.94,29.07,29.07,0,0,1,6.87,10.4,35.27,35.27,0,0,1,2.35,13,38.7,38.7,0,0,1-3.2,15.51,43.94,43.94,0,0,1-8.77,13.15,41.8,41.8,0,0,1-13.22,9.16A40.24,40.24,0,0,1,363.73,542.22Zm1.45-20.54a13,13,0,0,0,6.68-1.79,17.46,17.46,0,0,0,5.19-4.61,22,22,0,0,0,3.31-6.33,22.41,22.41,0,0,0,1.16-7.06q0-6.08-3.37-9.63a11.57,11.57,0,0,0-8.82-3.56,13,13,0,0,0-6.68,1.78,17.3,17.3,0,0,0-5.18,4.61,22.14,22.14,0,0,0-3.31,6.34,21.67,21.67,0,0,0-1.17,6.92q0,6.21,3.38,9.76A11.54,11.54,0,0,0,365.18,521.68Z"/><path class="cls-1" d="M421.7,469.72h24.87L442.77,484a42.21,42.21,0,0,1,11.52-11.84,23.33,23.33,0,0,1,15-3.6l-7.07,26.18h-2.09q-10.21,0-16.82,5.89t-10,18.58l-5.76,21.33H402.73Z"/><path class="cls-1" d="M484.39,512a12.73,12.73,0,0,0,3.6,8.51q3.19,3.13,9.62,3.14a21.52,21.52,0,0,0,7.39-1.31,30.67,30.67,0,0,0,7.66-4.32l11.51,13.61a47,47,0,0,1-12.56,7.66,46.56,46.56,0,0,1-30.49.72,29.1,29.1,0,0,1-10.6-6.35,28.27,28.27,0,0,1-6.68-9.88,34,34,0,0,1-2.35-13,42.91,42.91,0,0,1,2.94-15.5,42.25,42.25,0,0,1,8.51-13.68,43.43,43.43,0,0,1,13.41-9.75A40.63,40.63,0,0,1,504,468.15a34.52,34.52,0,0,1,13.54,2.42,25.46,25.46,0,0,1,14.79,15.84,34.65,34.65,0,0,1,1.77,11,39,39,0,0,1-.72,7.4,42.16,42.16,0,0,1-2,7.13Zm27-12.69a12.19,12.19,0,0,0,.65-3.8,9.32,9.32,0,0,0-2.35-6.35c-1.57-1.78-4-2.68-7.33-2.68a16.12,16.12,0,0,0-9.49,3.21,19,19,0,0,0-6.74,9.62Z"/><path class="cls-1" d="M549.3,469.72h24.86l-19,70.8H530.32ZM555.58,445h25.91l-5,18.32H550.61Z"/><path class="cls-1" d="M584.24,469.72h24.87L605.31,484a42.21,42.21,0,0,1,11.52-11.84,23.33,23.33,0,0,1,15-3.6l-7.07,26.18h-2.09q-10.22,0-16.82,5.89t-10,18.58l-5.76,21.33H565.27Z"/><path class="cls-1" d="M640.25,542q-8.76,0-14.26-5.17t-5.5-14.07a23.62,23.62,0,0,1,2.23-10.47,22.51,22.51,0,0,1,6.34-7.85,28.85,28.85,0,0,1,9.82-5,44.28,44.28,0,0,1,12.76-1.7,58.11,58.11,0,0,1,9.29.72,62.45,62.45,0,0,1,8.64,2l.26-.91c.17-.61.33-1.27.46-2a13,13,0,0,0,.19-2.36,6.53,6.53,0,0,0-2.81-5.5c-1.88-1.39-5-2.09-9.36-2.09a50.92,50.92,0,0,0-10.14,1.05,57.93,57.93,0,0,0-9,2.48l-3.54-18.06A76.8,76.8,0,0,1,648.56,470a94.21,94.21,0,0,1,15-1.18q16,0,23.75,6t7.79,16.55a40.44,40.44,0,0,1-1.44,10.21l-10.47,39H658.71l2-7.59a42.27,42.27,0,0,1-9.36,6.61A24.18,24.18,0,0,1,640.25,542Zm11.52-15.31a13.18,13.18,0,0,0,9-3.67,18.07,18.07,0,0,0,5.57-9.16l.65-2.35a41.22,41.22,0,0,0-4.38-1.11,24.74,24.74,0,0,0-4.91-.46q-5.89,0-9.42,2.68a8.91,8.91,0,0,0-3.54,7.53,6.1,6.1,0,0,0,2,4.77A7.31,7.31,0,0,0,651.77,526.65Z"/><path class="cls-1" d="M192.52,480.23c27.23-35.62,37.07-51.55,46.92-70.67,4.93-9.27,3.77-12.45.58-12.45-3.47,0-7,3.76-9,6.08l-69.51,75.3L118.09,537c-4.93,6.66-12.17,17.66-21.44,17.66-12.16,0-18-22.88-21.14-31.85L136,446.34c30.42-54.45,25.2-60.24,20.28-60.24-2.32,0-6.66,2.32-9,3.48-89.21,41.7-75.3,42.28-90.07,42.28-4.64,0-8.4-3.76-7-10.71,2.9-15.64,5.22-31.57,7.53-34.18,2.61-3.48.87-2.9,26.65-21.14,1.45-1.16,5.21-4.06,7.24-4.06,1.45,0,3.48,1.16,3.48,2.9s-4.06,6.95-15.35,16.8l.58.58L113.16,367c3.48-1.45,44.32-20.86,54.74-20.28,7,.29,8.11,4.35,11,9.27l7,12.16c2,3.77,3.48,6.67,3.48,11,0,9.56-14.77,39.68-18,50.4l.58.57,46-44.6c10.72-10.13,35.33-31.86,47.21-32.15,6.37-.29,21.14,4.93,21.14,20,0,21.43-31.28,64.3-43.15,82.54l.58.58c35.62-30.7,68.93-62.27,106.87-92.39,3.76-3.19,9.56-9.27,14.77-9.27,7.82,0,20,18.83,20,24.91,0,5.79-9,15.93-12.46,20.27l-44.89,54.74c-13.32,16.22-33.31,43.74-33.31,65.75,0,5.79,3.19,14.19,10.14,14.19,5.4,0,17.25-5.79,36.12-20.89,3.61-2.89,12.62,8.15,6.76,13.16-21.94,18.77-50.9,37-66,37-19.12,0-25.49-18.24-25.49-35,0-34.76,36.78-78.2,57.06-104.56l-.58-.58c-49.24,41.71-65.17,54.74-110.64,112.38-4.34,5.5-18.25,22-25.49,22-11.29,0-15.35-20.85-15.35-29.25,0-8.11,6.95-16.8,11.59-22.88Z"/><line class="cls-4" x1="343" y1="567.74" x2="679.39" y2="567.74"/><path class="cls-1" d="M215.57,612.65h3.17l-4,14.41h9.42l-.8,2.74H210.76Z"/><path class="cls-1" d="M226.31,626.54a4.26,4.26,0,0,1,1.28-3.11,6.74,6.74,0,0,1,4.63-1.57,15.26,15.26,0,0,1,4.2.64l.07-.22a4.45,4.45,0,0,0,.16-1.08c0-1.2-.87-2-3-2A10.19,10.19,0,0,0,230,620l-.51-2.4a13.49,13.49,0,0,1,4.81-.86c3.53,0,5.4,1.47,5.4,4a7.66,7.66,0,0,1-.29,1.88l-2,7.23h-3l.46-1.71a6,6,0,0,1-4.45,2C228.08,630.07,226.31,628.68,226.31,626.54Zm9.47-1.69.18-.59a11.45,11.45,0,0,0-3.28-.49,3.81,3.81,0,0,0-2.61.86,2.15,2.15,0,0,0-.66,1.57c0,1,.84,1.74,2.2,1.74A4.48,4.48,0,0,0,235.78,624.85Z"/><path class="cls-1" d="M249.72,624.34a7.58,7.58,0,0,1,2.38-5.47,8.1,8.1,0,0,1,5.6-2.28,5.92,5.92,0,0,1,5.47,2.94l-2.4,1.57a3.64,3.64,0,0,0-3.33-1.93,4.42,4.42,0,0,0-3,1.27,5.53,5.53,0,0,0-1.66,3.87,3.1,3.1,0,0,0,3.2,3.24,5.08,5.08,0,0,0,3.45-1.45L261.1,628a7.38,7.38,0,0,1-5.19,2.06C252.43,630.1,249.72,627.87,249.72,624.34Z"/><path class="cls-1" d="M263.25,626.54a4.22,4.22,0,0,1,1.28-3.11,6.73,6.73,0,0,1,4.63-1.57,15.24,15.24,0,0,1,4.19.64l.08-.22a5,5,0,0,0,.15-1.08c0-1.2-.87-2-3-2a10.19,10.19,0,0,0-3.69.71l-.51-2.4a13.49,13.49,0,0,1,4.81-.86c3.53,0,5.4,1.47,5.4,4a8.14,8.14,0,0,1-.28,1.88l-2,7.23h-3l.46-1.71a6,6,0,0,1-4.45,2C265,630.07,263.25,628.68,263.25,626.54Zm9.46-1.69.18-.59a11.43,11.43,0,0,0-3.27-.49,3.79,3.79,0,0,0-2.61.86,2.12,2.12,0,0,0-.67,1.57c0,1,.85,1.74,2.2,1.74A4.48,4.48,0,0,0,272.71,624.85Z"/><path class="cls-1" d="M283.17,611.91h3.1l-5,17.89h-3.09Z"/><path class="cls-1" d="M289.11,616.86h3.09l-3.63,12.94h-3.1Zm1.22-4.8h3.35l-.81,2.82h-3.33Z"/><path class="cls-1" d="M303.2,628.09a6,6,0,0,1-4.32,2c-3,0-5.27-2.1-5.27-5.54a8,8,0,0,1,2.45-5.83,7.41,7.41,0,0,1,5.07-2.11,4.84,4.84,0,0,1,4.55,2.58l2-7.26h3.1l-5,17.89h-3.1Zm0-1.91a5.26,5.26,0,0,0,1.69-3.78,3.21,3.21,0,0,0-3.43-3.26,4.38,4.38,0,0,0-3,1.25,5.43,5.43,0,0,0-1.64,4,3,3,0,0,0,3.22,3.18A4.59,4.59,0,0,0,303.22,626.18Z"/><path class="cls-1" d="M309.87,626.54a4.26,4.26,0,0,1,1.28-3.11,6.74,6.74,0,0,1,4.63-1.57,15.32,15.32,0,0,1,4.2.64l.07-.22a4.45,4.45,0,0,0,.16-1.08c0-1.2-.87-2-3-2a10.17,10.17,0,0,0-3.68.71l-.51-2.4a13.49,13.49,0,0,1,4.81-.86c3.53,0,5.4,1.47,5.4,4a7.66,7.66,0,0,1-.29,1.88l-2,7.23h-3l.46-1.71a6,6,0,0,1-4.45,2C311.64,630.07,309.87,628.68,309.87,626.54Zm9.47-1.69.18-.59a11.45,11.45,0,0,0-3.28-.49,3.81,3.81,0,0,0-2.61.86,2.15,2.15,0,0,0-.66,1.57c0,1,.84,1.74,2.2,1.74A4.48,4.48,0,0,0,319.34,624.85Z"/><path class="cls-1" d="M335.2,628.09a6,6,0,0,1-4.33,2c-3,0-5.27-2.1-5.27-5.54a8,8,0,0,1,2.46-5.83,7.4,7.4,0,0,1,5.06-2.11,4.86,4.86,0,0,1,4.56,2.58l2-7.26h3.09l-5,17.89h-3.09Zm0-1.91a5.3,5.3,0,0,0,1.69-3.78,3.22,3.22,0,0,0-3.43-3.26,4.42,4.42,0,0,0-3,1.25,5.46,5.46,0,0,0-1.63,4,3,3,0,0,0,3.22,3.18A4.59,4.59,0,0,0,335.22,626.18Z"/><path class="cls-1" d="M360,628.09a6,6,0,0,1-4.32,2c-3,0-5.27-2.1-5.27-5.54a8,8,0,0,1,2.46-5.83,7.38,7.38,0,0,1,5.06-2.11,4.83,4.83,0,0,1,4.55,2.58l2-7.26h3.09l-5,17.89h-3.09Zm0-1.91a5.3,5.3,0,0,0,1.69-3.78,3.22,3.22,0,0,0-3.43-3.26,4.4,4.4,0,0,0-3,1.25,5.43,5.43,0,0,0-1.64,4,3,3,0,0,0,3.23,3.18A4.59,4.59,0,0,0,360,626.18Z"/><path class="cls-1" d="M370.39,624.36c0,2,1.2,3.31,3.5,3.31a5.5,5.5,0,0,0,3.46-1.25l1.48,1.89a8.09,8.09,0,0,1-5.24,1.79c-3.76,0-6.14-2.18-6.14-5.66a7.94,7.94,0,0,1,2.48-5.64,7.81,7.81,0,0,1,5.47-2.21c3.48,0,5.4,2.21,5.4,5a7,7,0,0,1-.59,2.74Zm.33-2h7a2.79,2.79,0,0,0,.13-.91,2.38,2.38,0,0,0-2.69-2.47,4.48,4.48,0,0,0-3.12,1.27A5.39,5.39,0,0,0,370.72,622.4Z"/><path class="cls-1" d="M387,611.91h3.09l-5,17.89H382Z"/><path class="cls-1" d="M396.22,627.77l1.87-1.81a6.17,6.17,0,0,0,4.37,1.81c1.2,0,2.15-.59,2.15-1.54,0-.64-.61-1.08-2-1.62-2.25-.88-3.89-1.72-3.89-3.7,0-2.43,2.05-4.32,5.3-4.32a8.47,8.47,0,0,1,5.19,1.84l-1.71,1.91a6.15,6.15,0,0,0-3.71-1.42c-1.33,0-2.07.64-2.07,1.47,0,.66.61,1.08,2.14,1.69,2.05.84,3.71,1.74,3.71,3.63,0,2.67-2.3,4.39-5.39,4.39A8.75,8.75,0,0,1,396.22,627.77Z"/><path class="cls-1" d="M413.49,624.36c0,2,1.2,3.31,3.5,3.31a5.49,5.49,0,0,0,3.45-1.25l1.49,1.89a8.12,8.12,0,0,1-5.25,1.79c-3.76,0-6.14-2.18-6.14-5.66A7.94,7.94,0,0,1,413,618.8a7.86,7.86,0,0,1,5.48-2.21c3.48,0,5.4,2.21,5.4,5a7,7,0,0,1-.59,2.74Zm.33-2h7a3.13,3.13,0,0,0,.12-.91,2.38,2.38,0,0,0-2.68-2.47,4.48,4.48,0,0,0-3.12,1.27A5.39,5.39,0,0,0,413.82,622.4Z"/><path class="cls-1" d="M428.5,616.86h3.09l-.79,2.92c1.48-2.06,3.25-3.31,5.65-3.16l-.87,3.13h-.18c-2.71,0-5.06,1.67-6.06,5.25L428,629.8h-3.12Z"/><path class="cls-1" d="M437.5,616.86h3.2l1,9.46,6.22-9.46h3.37l-9.1,13h-2.79Z"/><path class="cls-1" d="M454.13,616.86h3.09l-3.63,12.94h-3.1Zm1.22-4.8h3.35l-.81,2.82h-3.33Z"/><path class="cls-1" d="M458.63,624.34a7.58,7.58,0,0,1,2.38-5.47,8.1,8.1,0,0,1,5.6-2.28,5.92,5.92,0,0,1,5.47,2.94l-2.4,1.57a3.64,3.64,0,0,0-3.33-1.93,4.42,4.42,0,0,0-3,1.27,5.53,5.53,0,0,0-1.66,3.87,3.1,3.1,0,0,0,3.2,3.24,5.08,5.08,0,0,0,3.45-1.45L470,628a7.38,7.38,0,0,1-5.19,2.06C461.34,630.1,458.63,627.87,458.63,624.34Z"/><path class="cls-1" d="M475.79,616.86h3.09l-3.63,12.94h-3.09Zm1.23-4.8h3.35l-.82,2.82h-3.33Z"/><path class="cls-1" d="M494.54,622.52a7.39,7.39,0,0,1-2.38,5.32,7.86,7.86,0,0,1-5.5,2.26c-3.86,0-6.34-2.5-6.34-5.91a7.44,7.44,0,0,1,2.37-5.34,7.87,7.87,0,0,1,5.5-2.26C492.06,616.59,494.54,619.09,494.54,622.52Zm-4.71,3.75a5.23,5.23,0,0,0,1.64-3.67,3.19,3.19,0,0,0-3.45-3.43,4.44,4.44,0,0,0-3,1.25,5.22,5.22,0,0,0-1.63,3.67,3.18,3.18,0,0,0,3.45,3.43A4.29,4.29,0,0,0,489.83,626.27Z"/><path class="cls-1" d="M507.43,624.36c0,2,1.2,3.31,3.5,3.31a5.52,5.52,0,0,0,3.46-1.25l1.48,1.89a8.12,8.12,0,0,1-5.25,1.79c-3.76,0-6.13-2.18-6.13-5.66A7.94,7.94,0,0,1,507,618.8a7.81,7.81,0,0,1,5.47-2.21c3.48,0,5.4,2.21,5.4,5a7,7,0,0,1-.59,2.74Zm.33-2h7a2.79,2.79,0,0,0,.13-.91,2.38,2.38,0,0,0-2.69-2.47,4.48,4.48,0,0,0-3.12,1.27A5.39,5.39,0,0,0,507.76,622.4Z"/><path class="cls-1" d="M518.27,627.77l1.87-1.81a6.17,6.17,0,0,0,4.37,1.81c1.21,0,2.15-.59,2.15-1.54,0-.64-.61-1.08-2-1.62-2.25-.88-3.89-1.72-3.89-3.7,0-2.43,2.05-4.32,5.3-4.32a8.47,8.47,0,0,1,5.19,1.84l-1.71,1.91a6.15,6.15,0,0,0-3.71-1.42c-1.33,0-2.07.64-2.07,1.47,0,.66.61,1.08,2.15,1.69,2,.84,3.7,1.74,3.7,3.63,0,2.67-2.3,4.39-5.39,4.39A8.75,8.75,0,0,1,518.27,627.77Z"/><path class="cls-1" d="M542.88,616.86H546l-.46,1.64a6,6,0,0,1,4.12-1.91c2.48,0,4.09,1.5,4.09,3.88a9.16,9.16,0,0,1-.41,2.27l-1.94,7.06h-3.1l2-7.18a4.73,4.73,0,0,0,.2-1.3c0-1.3-.87-2-2.35-2a4,4,0,0,0-3.71,3.23l-2,7.28h-3.12Z"/><path class="cls-1" d="M556.15,626.2a9.72,9.72,0,0,1,.41-2.28l2-7.06h3.09l-2,7.18a6.11,6.11,0,0,0-.17,1.3c0,1.3.86,2,2.32,2a4,4,0,0,0,3.71-3.24l2-7.28h3.09L567,629.8h-3.1l.46-1.66a5.88,5.88,0,0,1-4.09,1.93C557.76,630.07,556.15,628.58,556.15,626.2Z"/><path class="cls-1" d="M574.8,624.36c0,2,1.2,3.31,3.5,3.31a5.47,5.47,0,0,0,3.45-1.25l1.49,1.89A8.12,8.12,0,0,1,578,630.1c-3.76,0-6.13-2.18-6.13-5.66a7.94,7.94,0,0,1,2.48-5.64,7.81,7.81,0,0,1,5.47-2.21c3.48,0,5.4,2.21,5.4,5a7,7,0,0,1-.59,2.74Zm.33-2h7a3.09,3.09,0,0,0,.13-.91,2.38,2.38,0,0,0-2.69-2.47,4.48,4.48,0,0,0-3.12,1.27A5.39,5.39,0,0,0,575.13,622.4Z"/><path class="cls-1" d="M585.64,627.77l1.87-1.81a6.17,6.17,0,0,0,4.37,1.81c1.2,0,2.15-.59,2.15-1.54,0-.64-.61-1.08-2-1.62-2.25-.88-3.89-1.72-3.89-3.7,0-2.43,2.05-4.32,5.3-4.32a8.47,8.47,0,0,1,5.19,1.84L597,620.34a6.15,6.15,0,0,0-3.71-1.42c-1.33,0-2.07.64-2.07,1.47,0,.66.61,1.08,2.14,1.69,2.05.84,3.71,1.74,3.71,3.63,0,2.67-2.3,4.39-5.39,4.39A8.75,8.75,0,0,1,585.64,627.77Z"/><path class="cls-1" d="M600.22,627.48a5.2,5.2,0,0,1,.23-1.5l1.82-6.57h-1.72l.72-2.55H603l1-3.55h3.09l-1,3.55h3.6l-.71,2.55h-3.61l-1.74,6.25a4.33,4.33,0,0,0-.1.74c0,.66.48,1,1.35,1a5.31,5.31,0,0,0,2-.41l-.71,2.57a6.34,6.34,0,0,1-2.53.47C601.42,630,600.22,629,600.22,627.48Z"/><path class="cls-1" d="M612.78,616.86h3.09l-.79,2.92c1.48-2.06,3.25-3.31,5.65-3.16l-.87,3.13h-.18c-2.71,0-5.06,1.67-6.06,5.25l-1.33,4.8h-3.12Z"/><path class="cls-1" d="M619.5,626.54a4.26,4.26,0,0,1,1.28-3.11,6.74,6.74,0,0,1,4.63-1.57,15.32,15.32,0,0,1,4.2.64l.07-.22a4.45,4.45,0,0,0,.16-1.08c0-1.2-.87-2-3-2a10.17,10.17,0,0,0-3.68.71l-.51-2.4a13.49,13.49,0,0,1,4.81-.86c3.53,0,5.39,1.47,5.39,4a7.64,7.64,0,0,1-.28,1.88l-2,7.23h-3l.46-1.71a6,6,0,0,1-4.45,2C621.27,630.07,619.5,628.68,619.5,626.54Zm9.47-1.69.18-.59a11.45,11.45,0,0,0-3.28-.49,3.81,3.81,0,0,0-2.61.86,2.15,2.15,0,0,0-.66,1.57c0,1,.84,1.74,2.2,1.74A4.48,4.48,0,0,0,629,624.85Z"/><path class="cls-1" d="M641.14,631.79l1.71-2.06a8.76,8.76,0,0,0,5,1.64,4.52,4.52,0,0,0,3.3-1.15,5.63,5.63,0,0,0,1.41-2.62l.23-.79a6.55,6.55,0,0,1-4.63,2c-2.66,0-5.19-1.66-5.19-4.68a7.45,7.45,0,0,1,2.35-5.39,7.53,7.53,0,0,1,5.12-2.11,4.64,4.64,0,0,1,4.45,2.6l.64-2.33h3.09l-3,10.69c-.66,2.35-1.25,3.43-2.3,4.41a7.2,7.2,0,0,1-5.32,1.82A12.21,12.21,0,0,1,641.14,631.79ZM652.68,625a4.12,4.12,0,0,0,1.38-3,3,3,0,0,0-3.28-2.89,4.62,4.62,0,0,0-3.14,1.27,4.41,4.41,0,0,0-1.41,3.19c0,1.84,1.38,2.77,3.12,2.77A4.89,4.89,0,0,0,652.68,625Z"/><path class="cls-1" d="M659.12,626.54a4.26,4.26,0,0,1,1.28-3.11,6.73,6.73,0,0,1,4.63-1.57,15.24,15.24,0,0,1,4.19.64l.08-.22a4.47,4.47,0,0,0,.15-1.08c0-1.2-.87-2-3-2a10.13,10.13,0,0,0-3.68.71l-.51-2.4a13.45,13.45,0,0,1,4.81-.86c3.53,0,5.39,1.47,5.39,4a8.14,8.14,0,0,1-.28,1.88l-2,7.23h-3l.46-1.71a6,6,0,0,1-4.45,2C660.89,630.07,659.12,628.68,659.12,626.54Zm9.46-1.69.18-.59a11.38,11.38,0,0,0-3.27-.49,3.79,3.79,0,0,0-2.61.86,2.15,2.15,0,0,0-.66,1.57c0,1,.84,1.74,2.2,1.74A4.48,4.48,0,0,0,668.58,624.85Z"/><path class="cls-1" d="M677.46,616.86h3.09l-.79,2.92c1.48-2.06,3.25-3.31,5.65-3.16l-.87,3.13h-.18c-2.71,0-5.06,1.67-6.06,5.25L677,629.8h-3.12Z"/><path class="cls-1" d="M684.18,626.54a4.26,4.26,0,0,1,1.28-3.11,6.76,6.76,0,0,1,4.63-1.57,15.26,15.26,0,0,1,4.2.64l.07-.22a4.45,4.45,0,0,0,.16-1.08c0-1.2-.87-2-3-2a10.19,10.19,0,0,0-3.69.71l-.51-2.4a13.49,13.49,0,0,1,4.81-.86c3.53,0,5.4,1.47,5.4,4a8.14,8.14,0,0,1-.28,1.88l-2,7.23h-3l.46-1.71a6,6,0,0,1-4.45,2C686,630.07,684.18,628.68,684.18,626.54Zm9.47-1.69.18-.59a11.45,11.45,0,0,0-3.28-.49,3.81,3.81,0,0,0-2.61.86,2.15,2.15,0,0,0-.66,1.57c0,1,.84,1.74,2.2,1.74A4.48,4.48,0,0,0,693.65,624.85Z"/><path class="cls-1" d="M702.52,616.86h3.1l-.46,1.64a6,6,0,0,1,4.12-1.91c2.48,0,4.09,1.5,4.09,3.88a9.64,9.64,0,0,1-.41,2.27l-2,7.06h-3.09l2-7.18a4.76,4.76,0,0,0,.21-1.3c0-1.3-.87-2-2.35-2a4,4,0,0,0-3.71,3.23l-2,7.28h-3.12Z"/><path class="cls-1" d="M716.21,627.48a4.88,4.88,0,0,1,.23-1.5l1.81-6.57h-1.71l.71-2.55H719l1-3.55h3.09l-1,3.55h3.61l-.72,2.55h-3.6l-1.74,6.25a4.33,4.33,0,0,0-.1.74c0,.66.48,1,1.35,1a5.31,5.31,0,0,0,2-.41l-.72,2.57a6.31,6.31,0,0,1-2.53.47C717.41,630,716.21,629,716.21,627.48Z"/><path class="cls-1" d="M729,616.86h3.09l-3.63,12.94h-3.09Zm4.5-5.66,2.76,1.2-3.91,2.82h-2.69Z"/><path class="cls-1" d="M732.65,626.54a4.26,4.26,0,0,1,1.28-3.11,6.74,6.74,0,0,1,4.63-1.57,15.32,15.32,0,0,1,4.2.64l.07-.22a4.45,4.45,0,0,0,.16-1.08c0-1.2-.87-2-3-2a10.13,10.13,0,0,0-3.68.71l-.51-2.4a13.45,13.45,0,0,1,4.81-.86c3.53,0,5.39,1.47,5.39,4a7.64,7.64,0,0,1-.28,1.88l-2,7.23h-3l.46-1.71a6,6,0,0,1-4.45,2C734.42,630.07,732.65,628.68,732.65,626.54Zm9.47-1.69.18-.59a11.45,11.45,0,0,0-3.28-.49,3.81,3.81,0,0,0-2.61.86,2.15,2.15,0,0,0-.66,1.57c0,1,.84,1.74,2.2,1.74A4.5,4.5,0,0,0,742.12,624.85Z"/><path class="cls-1" d="M414.81,381.56h5.52l-7,25.06h16.37l-1.38,4.77H406.45Z"/><path class="cls-1" d="M442.61,381.56h5.51l-8.36,29.83h-5.51Z"/><path class="cls-1" d="M456.39,381.56H462l5.43,14.11,13.34-14.11H487l-8.36,29.83h-5.56l6-21.39-13.69,14.06h-.18l-5.74-14-6,21.31H448Z"/><path class="cls-1" d="M495,381.56h9.83c4.23,0,7.29.85,9.43,2.94a7.8,7.8,0,0,1,2.31,5.88,10,10,0,0,1-3,7.33c-2.76,2.6-7,4-12.19,4h-6.49l-2.71,9.67h-5.52Zm9.65,4.77h-5.51l-3,10.74h5.51c3.38,0,6-.81,7.56-2.3a5.32,5.32,0,0,0,1.65-4,3.9,3.9,0,0,0-1.2-2.94C508.6,386.85,507,386.33,504.64,386.33Z"/><path class="cls-1" d="M525.28,381.56h5.51l-8.36,29.83h-5.51Z"/><path class="cls-1" d="M539.06,381.56h22.86l-1.33,4.69H543.2l-2.18,7.8h15.43l-1.33,4.64H539.73l-2.27,8h17.66l-1.34,4.68H530.7Z"/><path class="cls-1" d="M559.43,407.52l23.79-21.31H566l1.33-4.65h24.78L591,385.44l-23.79,21.31h18l-1.29,4.64H558.36Z"/><path class="cls-1" d="M609.37,381.35h5.25l5.29,30h-5.6l-1.21-7.2H598.39l-5.16,7.2h-6Zm3.07,18.2-2-12.07-8.72,12.07Z"/><path class="cls-1" d="M622.93,406.24l4.14-3.28a11.85,11.85,0,0,0,9.38,4.22c3.47,0,6-1.67,6-4.14,0-1.79-1.29-2.85-5.74-4.52-4.76-1.83-8-3.88-8-8a8.24,8.24,0,0,1,2.58-6.05,13.45,13.45,0,0,1,9.39-3.33c5.16,0,8.89,1.79,11.43,4.48l-3.83,3.58a11,11,0,0,0-8-3.41c-3.65,0-5.78,1.92-5.78,3.92s1.55,2.86,6,4.56c4.76,1.79,7.74,3.84,7.74,8a8.41,8.41,0,0,1-2.71,6.18,13.57,13.57,0,0,1-9.43,3.37C630.27,411.82,625.78,409.86,622.93,406.24Z"/></g></svg>