<svg xmlns="http://www.w3.org/2000/svg" viewBox="25 130 935 750"><defs><style>.cls-1{fill:none;stroke:#3dae2b;stroke-miterlimit:10;stroke-width:20px;}.cls-2{fill:#211261;}.cls-3{fill:#3dae2b;fill-rule:evenodd;}</style></defs><g id="Servicios"><g id="Servicio_6" data-name="Servicio 6"><path class="cls-1" d="M262.21,331.53q6.29-4,12.69-7.91m497.44,11.14c25.09,54.86,15.42,123.79-27.7,195.34-45,74.6-121,143.31-214.21,193.5S338,799.49,251,796c-87.85-3.54-152.88-36.42-183.13-92.57S46,574.87,91.35,499.57c37.76-62.66,97.49-121.17,170.86-168M403.63,263C465.9,241.61,528.06,231.4,585,233.7c87.85,3.54,152.88,36.41,183.12,92.56,1.51,2.8,2.91,5.63,4.23,8.5"/><path class="cls-2" d="M284.16,438.45C267.59,419,261,403.76,259.88,400.92a33.25,33.25,0,0,1,61.53-25.2l.2.42c.23.49.85,1.75,2,3.68a109.31,109.31,0,0,0,11.22,15.57c3,3.48,6.19,6.82,9.55,10.1,3.43-12.69,6.92-24.64,9.85-35.33a60.59,60.59,0,0,0,3.66-15.2,77.76,77.76,0,1,0-94.64-38.11,87.27,87.27,0,0,0-31.73,37.35c-25.7,57.84-32.08,95.2-25.22,157.91,6.8,33,28.93,43.87,52.79,46.89,4,12.56,8.18,31.73,8.18,56.83,0,25.92-4.43,58.3-18.74,97a40.37,40.37,0,1,0,75.71,28c17.6-47.49,23.78-89.79,23.76-125,0-44-9.47-76.57-17.13-95.8,0-1.31-.05-2.66-.1-4.06a178,178,0,0,1-.63-36.64A233.1,233.1,0,0,1,284.16,438.45Zm109-132.39c-11.35,23.28-33,36.07-48.4,28.56s-18.65-32.45-7.3-55.73,33-36.07,48.41-28.56S404.47,282.79,393.11,306.06Z"/><path class="cls-2" d="M358.61,481.22c3.21-14.18,12.75-33.05,23.69-42.17-25.09-13.87-41.11-28.87-51.1-40.59a113.83,113.83,0,0,1-11.7-16.25c-1.09-1.86-1.8-3.24-2.16-4-.19-.38-.29-.61-.32-.67a28.49,28.49,0,0,0-52.72,21.6h0c.93,2.3,7.21,17.08,23.49,36.24,14.4,17,36.76,37.28,69.54,55A51.47,51.47,0,0,1,358.61,481.22Z"/><path class="cls-2" d="M387.68,524.24h35.6c4.07,1.15,8.19,2.27,12.44,3.32a35.59,35.59,0,0,0,25.61-3.32h2l.58,4,23.17,160.6H743.84a9.49,9.49,0,1,0,0-19H503.54l-23-159.29-.77-5.33h-2.11a38.25,38.25,0,0,0,1.16-3.72,35.61,35.61,0,0,0-26-43.12,287,287,0,0,1-54.76-19.23c-17.75-8.47-48.42,55.81-30.67,64.28h0c4.07,1.94,8.31,3.83,12.66,5.68a9.36,9.36,0,0,0-1.75,4.41,9.18,9.18,0,0,0,9.38,10.69Z"/><path class="cls-2" d="M538.06,729.24a29.29,29.29,0,1,0-29.28,29.28A29.28,29.28,0,0,0,538.06,729.24Z"/><path class="cls-2" d="M725.64,758.52a29.29,29.29,0,1,0-29.28-29.28A29.28,29.28,0,0,0,725.64,758.52Z"/><path class="cls-2" d="M621.94,549.67a57,57,0,1,0-57-57A57.09,57.09,0,0,0,621.94,549.67Zm0-65.33a8.32,8.32,0,1,1-8.31,8.32A8.32,8.32,0,0,1,621.94,484.34ZM645.18,448a50.41,50.41,0,0,1,27.12,44.65c0,.74,0,1.47-.06,2.2l-37-1.62c0-.19,0-.38,0-.58a13.28,13.28,0,0,0-7.17-11.79Zm-46.48,0,17.1,32.86a13.29,13.29,0,0,0-7.16,11.79c0,.2,0,.39,0,.58l-37,1.62c0-.73-.06-1.46-.06-2.2A50.4,50.4,0,0,1,598.7,448Zm23.24,95a50.23,50.23,0,0,1-27-7.91l19.9-31.24a13.26,13.26,0,0,0,14.29,0L649,535.1A50.12,50.12,0,0,1,621.94,543Z"/><path class="cls-2" d="M524.43,597.09A11.18,11.18,0,0,0,533,607.94V631a19.77,19.77,0,0,0,19.77,19.77H691.12A19.77,19.77,0,0,0,710.89,631V607.94a11.16,11.16,0,0,0,0-21.71V503.51a11.16,11.16,0,0,0,0-21.71V399.08a11.16,11.16,0,0,0,0-21.71V354.3a19.77,19.77,0,0,0-19.77-19.77H552.77A19.77,19.77,0,0,0,533,354.3v23.07a11.16,11.16,0,0,0,0,21.71V481.8a11.16,11.16,0,0,0,0,21.71v82.72A11.18,11.18,0,0,0,524.43,597.09Zm31-104.43a66.51,66.51,0,1,1,66.51,66.51A66.52,66.52,0,0,1,555.43,492.66Z"/><polygon class="cls-3" points="894.44 428.78 909.45 469.33 950 484.34 909.45 499.35 894.44 539.9 879.44 499.35 838.88 484.34 879.44 469.33 894.44 428.78"/></g></g></svg>