<svg xmlns="http://www.w3.org/2000/svg" viewBox="25 130 935 750"><defs><style>.cls-1{fill:none;stroke:#3dae2b;stroke-linecap:round;stroke-miterlimit:10;stroke-width:20px;}.cls-2{fill:#211261;}.cls-3{fill:#3dae2b;fill-rule:evenodd;}</style></defs><g id="Servicios"><g id="Servicio_3" data-name="Servicio 3"><path class="cls-1" d="M253.66,348.77q6.32-4,12.76-8m485.15,27.65c15.4,49.71,4.06,109.36-33.12,171.05C675.19,611.29,602,677.41,512.32,725.71s-185.16,73-268.9,69.65C158.88,792,96.3,760.32,67.2,706.28S46.12,582.59,89.79,510.12C126,450,183.31,393.81,253.66,348.77"/><path class="cls-2" d="M411.64,242.15c-46,11.4-45.94,43.82-20.5,90.47.57,1,1.13,2,1.7,2.95,4-12.71,6.1-27.29,6.11-43.62,0-1.15,0-2.33,0-3.53a21.24,21.24,0,0,1,20.86-21.54h.34a21.31,21.31,0,0,1,21.2,20.87c0,1.39,0,2.79,0,4.2,0,25.8-4.19,48.8-12.49,68.6,13.36,2.86,26.06,5.6,36.49,32.49C486.18,446.75,488.68,223.07,411.64,242.15Z"/><path class="cls-2" d="M437.08,287.82a17,17,0,0,0-33.92.54c0,1.22,0,2.42,0,3.59,0,19.85-2.9,35.59-7.37,48.27a99.74,99.74,0,0,1-5.82,13.4c-11.48,21.59-28.18,32.53-42.7,38.61a93.44,93.44,0,0,1-18.38,5.49c-2.31.43-4.13.67-5.28.8l-1.23.11-.17,0h0c-.33,0-.66.06-1,.1h-71a18,18,0,0,0-2.21.16,16.84,16.84,0,0,0-6.7,1h0c-2.47.86-19.92,8-36.85,31.77s-33,63.22-35.21,127.22a17,17,0,0,0,16.36,17.54h.59a17,17,0,0,0,16.95-16.38c2.07-59,16.47-91.25,28.89-108.64.6-.84,1.2-1.62,1.79-2.4V742.5a26.22,26.22,0,0,0,52.43,0v-166h9.83v166a26.22,26.22,0,0,0,52.43,0V427.8A127.16,127.16,0,0,0,381,412.63a116.3,116.3,0,0,0,39-43.13q2.5-4.72,4.69-9.88c7.78-18.28,12.47-40.66,12.46-67.67C437.12,290.56,437.1,289.18,437.08,287.82Z"/><path class="cls-2" d="M296.89,384.83a49.69,49.69,0,0,0,33.82-56,139,139,0,0,1-13.85,2.88c-25.45,4-47.18.45-49.24-7.86,5.53,6.26,26.09,5.86,48.83-1.41,17.17-5.48,31.08-13.43,37.25-20.58,2.82-3.26,4-6.35,3.19-9-2.66-8.33-25.08-8.61-50.08-.62-.85.27-1.68.56-2.51.85a49.71,49.71,0,1,0-7.41,91.66Z"/><path class="cls-2" d="M494.18,706.4l9.19,14.35a4.16,4.16,0,0,0,7-4.48l-15.49-24.18,2.31-47.1a6.92,6.92,0,0,0-.2-13.83H390.34a6.92,6.92,0,0,0-.2,13.83l5.91,120.52h95.23Z"/><path class="cls-2" d="M750,205.89a5.26,5.26,0,0,0-3.75-1.55H173.78a5.29,5.29,0,0,0-5.3,5.29v106a5.3,5.3,0,0,0,10.6,0V214.94H359.31v24.38a5.3,5.3,0,1,0,10.6,0V214.94H550.14V458.77H381.58a5.3,5.3,0,1,0,0,10.6H746.27a5.29,5.29,0,0,0,5.3-5.3V209.63A5.26,5.26,0,0,0,750,205.89ZM741,458.77H560.74V214.94H741Z"/><path class="cls-2" d="M619.05,341.09a2.09,2.09,0,0,0,1.5-.62l37.1-37.1a2.12,2.12,0,0,0-3-3l-37.1,37.11a2.12,2.12,0,0,0,1.5,3.61Z"/><path class="cls-2" d="M676.39,322.11l-37.11,37.1a2.12,2.12,0,0,0,0,3,2.12,2.12,0,0,0,3,0l37.11-37.1a2.12,2.12,0,0,0-3-3Z"/><path class="cls-2" d="M605.27,378.2a2.15,2.15,0,0,0,1.5-.62l88-88a2.12,2.12,0,0,0-3-3l-88,88a2.12,2.12,0,0,0,1.5,3.62Z"/><polygon class="cls-3" points="895.86 465.77 910.48 505.29 950 519.92 910.48 534.54 895.86 574.06 881.23 534.54 841.71 519.92 881.23 505.29 895.86 465.77"/></g></g></svg>