<svg xmlns="http://www.w3.org/2000/svg" viewBox="25 130 935 750"><defs><style>.cls-1{fill:none;stroke:#3dae2b;stroke-linecap:round;stroke-linejoin:round;stroke-width:20px;}.cls-2{fill:#211261;}.cls-3{fill:#3dae2b;fill-rule:evenodd;}</style></defs><g id="Servicios"><g id="Servicio_2" data-name="Servicio 2"><path class="cls-1" d="M586.63,257.52c4.76,0,9.47.11,14.16.3,84.53,3.41,147.12,35,176.22,89.08s21.08,123.69-22.59,196.15C711.16,614.83,638,681,548.29,729.25s-185.17,73-268.91,69.66c-76.63-3.09-135.23-29.38-167.19-74.53M86.37,627.44c2.41-35.72,15.62-74.33,39.39-113.77,43.25-71.78,116.46-137.9,206.12-186.2,44.5-24,90.43-42.13,135.65-53.93"/><circle class="cls-2" cx="112.19" cy="696.43" r="35.86"/><path class="cls-2" d="M463.82,492.62c0-.83.05-1.66.06-2.53-.2-3.12-.26-6.27-.27-9.44-2-2-3.92-4-5.77-6.1A125.7,125.7,0,0,1,445,457.28c-.41-.67-.86-1.33-1.26-2C431,434,424.61,409.52,424.6,382.43a163,163,0,0,1,6.16-44.94v0l.07-.22A24.19,24.19,0,0,1,454,320.34a24.59,24.59,0,0,1,7.4,1.15A24.32,24.32,0,0,1,477.12,352c-.12.45-.26.93-.43,1.59-.34,1.3-.86,3.42-1.4,6.28a122.8,122.8,0,0,0-2.12,22.6,106.77,106.77,0,0,0,2.39,22.63c3.69-13.9,7.6-27,10.77-38.33,9-23.65,1.76-53.14-19.13-59.71s-52.56,2.62-67.76,37.27C381,387,374.27,416.87,374.79,461.54a80.74,80.74,0,0,0-25.87,14.87c-15.87,13.75-24.12,33.44-24.06,55.23,0,29.54-8.78,61.79-22.89,89.44s-33.52,50.65-53.61,62.11a105.86,105.86,0,0,1-15.86,7.6c3.18-21,7.45-90.87-75.79-90.87,0,0-10.76,10.76-22.71,10.76H50v86.05H68.57c0-.1,0-.2,0-.3a43.63,43.63,0,1,1,87.25,0c0,.1,0,.2,0,.3h8.08v14.94h60.36v-3.55c8.66-1.45,19-5.18,31.38-12.29C279.25,682.2,299.86,657.2,315,627.7s24.46-63.66,24.48-96.06c.05-18.26,6.53-33.28,19.05-44.24A64,64,0,0,1,375.22,477c0,.3,0,.58,0,.89,1.23,10,3.89,17.79,7.53,23.94a450.83,450.83,0,0,1-7.66,48.21c-8.43,39.56-24.81,87.78-53.85,126a30.36,30.36,0,0,0,48.42,36.65c34.52-45.79,52.71-97.94,62.85-141.27a186.1,186.1,0,0,1,6.91,50.47c0,20.52-3.25,43.4-11.82,68.84a30.36,30.36,0,1,0,57.54,19.4c10.64-31.55,15-61.24,15-88.24a247.74,247.74,0,0,0-31.31-120.66C467.17,498.21,465.49,495.36,463.82,492.62Z"/><path class="cls-2" d="M792.61,702.87H758.14L599.58,550.56a11.07,11.07,0,0,0-3-9.09L557.39,500.6a21.91,21.91,0,0,1-.76,2.68,23.83,23.83,0,0,1-1.94,4.15,24.33,24.33,0,0,1-10.81,9.82,23.68,23.68,0,0,1-2.93,1.14l38.21,39.83a11.15,11.15,0,0,0,10.59,3.1L737.1,702.87H709.59a12.54,12.54,0,0,0-12.53,12.53v2.35a12.52,12.52,0,0,0,12.53,12.53h83a12.52,12.52,0,0,0,12.53-12.53V715.4A12.54,12.54,0,0,0,792.61,702.87Z"/><path class="cls-2" d="M551,503.93a19.17,19.17,0,0,0,1-2.26,19.43,19.43,0,0,0-11.87-24.78c-32.06-11.42-48.88-27.42-58.93-44a86.21,86.21,0,0,1-8.15-18.19,106.57,106.57,0,0,1-4.78-32.24,128.65,128.65,0,0,1,2.2-23.51c.55-2.88,1.08-5.13,1.46-6.57.19-.73.34-1.26.43-1.56a2.44,2.44,0,0,1,.09-.3h0a19.43,19.43,0,0,0-37-11.78c-.37,1.25-6,18.81-6,43.72,0,20.28,3.8,45.83,18.43,70.36,1.11,1.88,2.31,3.74,3.55,5.59a123.85,123.85,0,0,0,12.28,15.4c.92,1,1.87,2,2.84,2.93,14.77,14.83,34.74,27.76,60.71,36.83a19.51,19.51,0,0,0,6.46,1.11,18.4,18.4,0,0,0,3.32-.32,18.89,18.89,0,0,0,3-.77A19.31,19.31,0,0,0,551,503.93Z"/><path class="cls-2" d="M489.44,309a55.11,55.11,0,0,0,65.45-31.16A153.46,153.46,0,0,1,540.31,272c-26-11.85-43.94-28.37-40.78-37.32,1.3,9.17,20.57,21.34,46.05,28.49,19.23,5.4,37,6.53,47,3.68,4.59-1.3,7.6-3.42,8.42-6.34,2.62-9.34-18-23.28-46-31.14-1-.27-1.9-.5-2.85-.75A55.11,55.11,0,1,0,489.44,309Z"/><polygon class="cls-3" points="895.86 446.45 910.48 485.97 950 500.6 910.48 515.22 895.86 554.74 881.23 515.22 841.71 500.6 881.23 485.97 895.86 446.45"/></g></g></svg>