<svg xmlns="http://www.w3.org/2000/svg" xmlns:xlink="http://www.w3.org/1999/xlink" viewBox="0 0 1000 1000"><defs><style>.cls-1{fill:url(#New_Gradient_Swatch_2);}.cls-2{fill:url(#linear-gradient);}</style><linearGradient id="New_Gradient_Swatch_2" x1="1355.19" y1="1058.37" x2="1005.32" y2="1229.46" gradientTransform="translate(1140.54 1522) rotate(-176.24)" gradientUnits="userSpaceOnUse"><stop offset="0" stop-color="#22bbed" stop-opacity="0.2"/><stop offset="0.36" stop-color="#59ff3f" stop-opacity="0.4"/><stop offset="0.68" stop-color="#59ff3f" stop-opacity="0.8"/><stop offset="0.75" stop-color="#54f23c" stop-opacity="0.77"/><stop offset="0.89" stop-color="#48cf33" stop-opacity="0.68"/><stop offset="1" stop-color="#3dae2b" stop-opacity="0.6"/></linearGradient><linearGradient id="linear-gradient" x1="1145.72" y1="579.81" x2="734.87" y2="780.71" gradientTransform="translate(36.72 1086.15) rotate(-106.39)" gradientUnits="userSpaceOnUse"><stop offset="0" stop-color="#22bbed" stop-opacity="0.2"/><stop offset="0.4" stop-color="#22bbed" stop-opacity="0.7"/><stop offset="0.49" stop-color="#23b0e6" stop-opacity="0.71"/><stop offset="0.64" stop-color="#2691d4" stop-opacity="0.73"/><stop offset="0.81" stop-color="#2a5fb6" stop-opacity="0.76"/><stop offset="1" stop-color="#301a8e" stop-opacity="0.8"/></linearGradient></defs><g id="Layer_12" data-name="Layer 12"><path class="cls-1" d="M-33.3-12.51A170.3,170.3,0,0,1,126,47.81l113.2,138.52a170.29,170.29,0,0,1,27.4,168.09L203.19,521.71A170.31,170.31,0,0,1,71.32,629.48l-176.56,28.77"/><path class="cls-2" d="M743.23-214a200,200,0,0,1-2.07,200L634.24,166.81A200,200,0,0,1,460,265L250,262.82A200,200,0,0,1,77.8,161L-25.35-22"/></g></svg>