<svg xmlns="http://www.w3.org/2000/svg" viewBox="0 0 1000 1000"><defs><style>.cls-1{fill:#211261;}.cls-2{fill:none;stroke:#cfe2e5;stroke-miterlimit:10;stroke-width:3.95px;opacity:0.5;}</style></defs><g id="Circulos_Doble_Azul" data-name="Circulos Doble Azul"><path class="cls-1" d="M356.38,197.46c113.4-64.1,234.88-98.23,342.06-96.1,108.19,2.15,189,41,227.68,109.3S956.3,368.3,902.35,462.1C848.91,555,757,641.5,643.62,705.61s-234.88,98.23-342.06,96.1c-108.19-2.15-189-41-227.68-109.31S43.7,534.77,97.65,441C151.09,348,243,261.56,356.38,197.46Z"/><path class="cls-2" d="M300.58,411.26c57.49-89,132.11-159.48,210.13-198.42C589.46,173.53,662.38,171,716,205.6s81.28,102.15,77.84,190.1c-3.4,87.13-36.94,184.13-94.43,273.14S567.31,828.31,489.29,867.26c-78.75,39.31-151.67,41.88-205.3,7.24S202.7,772.35,206.15,684.39C209.55,597.27,243.09,500.27,300.58,411.26Z"/></g></svg>