<svg xmlns="http://www.w3.org/2000/svg" viewBox="25 130 935 750"><defs><style>.cls-1{fill:none;stroke:#3dae2b;stroke-miterlimit:10;stroke-width:20px;}.cls-2{fill:#211261;}.cls-3{fill:#3dae2b;fill-rule:evenodd;}</style></defs><g id="Servicios"><g id="Servicio_1" data-name="Servicio 1"><path class="cls-1" d="M268,388.78m482.1,10.79c24.32,53.17,14.95,120-26.85,189.33-43.56,72.29-117.29,138.89-207.6,187.53S329.14,850,244.8,846.58c-85.14-3.44-148.17-35.3-177.48-89.71S46.09,632.29,90.08,559.31a415.84,415.84,0,0,1,38.55-53.48M476.05,308.32a433.85,433.85,0,0,1,92.45-6.69c85.14,3.43,148.17,35.29,177.48,89.71q2.17,4.07,4.09,8.23"/><path class="cls-2" d="M609.31,388.54c-21.66-12.71-38.55-32.81-49.65-49.92a208.71,208.71,0,0,1-12.38-21.73c-1.35-2.74-2.34-4.93-3-6.38-.32-.72-.54-1.26-.68-1.6l-.15-.37a17.78,17.78,0,0,0-6.34-8.08l-.25-1.28-.13-.06-14,58.3,20.4,199.2H408.89l20.41-199.2-14-58.3-.13.06,0,.13c-5,2.39-26.62,13.53-50.89,38.3C343.93,358.38,321.88,389,307,431.38V272.56H370.3v-15.1h-8.57V205.31h-10.3v52.15h-8.92V205.31H332.22v52.15H323.3V205.31H313v52.15h-8.92V205.31H293.8v52.15h-8.92V205.31h-10.3v52.15h-8.92V205.31H255.37v52.15h-8.92V205.31H236.16v52.15h-8.58v15.1h63.36v160.1h15.58q-1.86,5.37-3.56,11H101v22h17.38V587.27H101v22h17.38V730.91h-4.57V707.12a11,11,0,0,0-11-11H93.63a11,11,0,0,0-11,11v71.36a11,11,0,0,0,11,11h9.15a11,11,0,0,0,11-11V752.86H327.29v25.62a11,11,0,0,0,11,11h9.15a11,11,0,0,0,11-11V707.12a11,11,0,0,0-11-11h-9.15a11,11,0,0,0-11,11v23.79h-4.58V609.23H340.1v-22H322.71V493.12a17.73,17.73,0,0,0,7.56-11.37c1.07-5.6,2.32-10.94,3.64-16.15h6.19V444.75c13-37.92,32.25-64.29,49.71-82.18A187.74,187.74,0,0,1,405.72,348l-48.6,250.15h59.47V761.57a27.45,27.45,0,1,0,54.89,0V598.19h9.14V761.57a27.45,27.45,0,0,0,54.9,0V598.19H595l-40.54-208.6a169.6,169.6,0,0,0,36.73,29.68,133.73,133.73,0,0,0,58.89,18.6V402A98.17,98.17,0,0,1,609.31,388.54ZM300.76,730.91H140.29V609.23H300.76ZM140.29,587.27V465.6H297.21c-.69,3.11-1.38,6.24-2,9.45a17.81,17.81,0,0,0,5.54,16.54v95.68Z"/><path class="cls-2" d="M677.32,437.1a17.83,17.83,0,0,0-1.6-35.52v35.67C676.25,437.18,676.78,437.16,677.32,437.1Z"/><path class="cls-2" d="M462.05,275a61.74,61.74,0,1,0-46.13-74.13A61.74,61.74,0,0,0,462.05,275Z"/><path class="cls-2" d="M518.44,293.3a209.19,209.19,0,0,0-84.78,0l16.77,58.17,25.62-2.06,25.62,2.06,16.77-58.17"/><path class="cls-2" d="M748.41,758.33c-.09-35.19-26.45-64.76-62.33-73.77a23.56,23.56,0,0,0-15.9-16.14l.09-492.65-14.67,0-.08,492.66a23.55,23.55,0,0,0-15.81,16.22c-35.83,9.18-62.05,38.89-62,74.08C577.85,801.18,748.52,800.76,748.41,758.33Z"/><path class="cls-2" d="M211.05,683.5a57.34,57.34,0,0,1-43.48-20l8.71,58h69.53l8.72-58A57.4,57.4,0,0,1,211.05,683.5Z"/><path class="cls-2" d="M211.05,675.69a49.76,49.76,0,0,0,46.52-32.38l3.19-21.22H161.33l3.2,21.24A49.74,49.74,0,0,0,211.05,675.69Z"/><path class="cls-2" d="M140.29,435.4h55.24s-3.09-28.7-14.07-34.19c-13.2-6.6-14.41-34.43-14.41-34.43H140.29Z"/><path class="cls-2" d="M191.06,343.92H140.29v17.84H171.4a33.78,33.78,0,0,0,13.5,24.3l5-6.53a25.37,25.37,0,0,1-10.22-17.77h11.37Z"/><path class="cls-2" d="M212.34,435.4h55.23s-3.09-28.7-14.06-34.19c-13.2-6.6-14.41-34.43-14.41-34.43H212.34Z"/><path class="cls-2" d="M263.11,343.92H212.34v17.84h31.11a33.75,33.75,0,0,0,13.5,24.3l5-6.53a25.39,25.39,0,0,1-10.23-17.77h11.38Z"/><polygon class="cls-2" points="189.01 528.49 208.39 528.49 208.39 505.85 169.28 505.85 169.28 574.46 208.39 574.46 208.39 557.31 189.01 557.31 189.01 528.49"/><rect class="cls-2" x="177.86" y="489.38" width="21.96" height="11.66"/><polygon class="cls-2" points="248.02 528.49 267.4 528.49 267.4 505.85 228.29 505.85 228.29 574.46 267.4 574.46 267.4 557.31 248.02 557.31 248.02 528.49"/><rect class="cls-2" x="236.87" y="489.38" width="21.96" height="11.66"/><polygon class="cls-3" points="895.74 472.18 910.4 511.78 950 526.43 910.4 541.09 895.74 580.69 881.09 541.09 841.49 526.43 881.09 511.78 895.74 472.18"/></g></g></svg>