<svg id="fig3" xmlns="http://www.w3.org/2000/svg" xmlns:xlink="http://www.w3.org/1999/xlink" viewBox="0 0 1250 1050"><defs><style>.cls-1,.cls-3,.cls-4,.cls-5,.cls-6,.cls-7{opacity:0.75;}.cls-2,.cls-7{fill:#211261;}.cls-3{fill:#59ff3f;}.cls-4{fill:url(#New_Gradient_Swatch_45);}.cls-5,.cls-8{fill:#22bbed;}.cls-6{fill:#3dae2b;}.cls-8{opacity:0.5;}</style><linearGradient id="New_Gradient_Swatch_45" x1="541.05" y1="958.13" x2="610.6" y2="888.58" gradientUnits="userSpaceOnUse"><stop offset="0" stop-color="#00c2c3"/><stop offset="0.77" stop-color="#8fff8f"/></linearGradient></defs><g class="cls-1"><path class="cls-2" d="M708.21,74.51c54.48,0,111.08,6.54,168.22,19.43,100.47,22.67,180.24,75.32,230.72,152.26,44.51,67.86,63.91,151.14,54.62,234.49-8.13,72.93-38,139.53-84,187.53-50.57,52.73-117.73,80.61-194.22,80.61-7.16,0-14.5-.25-21.82-.74-21.53-1.43-42.46-2.16-62.18-2.16-200.36,0-286.27,72.84-395,165l-8.5,7.21c-43.65,37-98,57.31-152.94,57.31A213.23,213.23,0,0,1,139.4,949,207.6,207.6,0,0,1,60.54,870.2C31.44,819.15,21,753.12,30.35,679.28c10.86-85.73,47.41-181.62,108.64-285,.47-.8,47.31-80.8,140.54-159.85C334.28,188,394.06,151,457.21,124.47c78.92-33.15,163.37-50,251-50Zm0-2c-385.33,0-570.92,320.73-570.92,320.73C-89.3,775.9,69.09,977.46,243.1,977.46c53.5,0,108.49-19.06,154.21-57.77C509.19,825,594.71,747.9,799.57,747.9q29.32,0,62,2.16,11.16.74,22,.73c346.82,0,407.55-565.29-6.7-658.77-60-13.53-116.15-19.48-168.66-19.48Z"/></g><path class="cls-3" d="M160.1,390s214.79-378.06,663.07-275C1202.27,202,1137.69,738,809.5,715.73c-224.85-15.25-306.4,60.13-416.28,154.88C218.93,1020.91-105.51,846.76,160.1,390Z"/><circle class="cls-4" cx="575.82" cy="923.36" r="49.18"/><circle class="cls-5" cx="1151.23" cy="775.82" r="73.77"/><circle class="cls-6" cx="305.33" cy="121.72" r="24.59"/><path class="cls-5" d="M236.31,346.4c-85.25,105.26-120.21,259.59-95.2,394C171,900.8,365.41,953.68,504.44,832s209.37-113.16,361.8-101.16c137,10.79,237.86-34.29,276.38-114.87s-5.48-188-129-177.17c-103.85,9.15-190.95-44-226.12-146.87-33.41-97.71-152.26-119.09-241-108.8S328.85,232.15,236.31,346.4Z"/><path class="cls-7" d="M470.6,338.28C177.4,440.15,49.41,757.18,370.09,783.61c279.38,23,351.46,157.54,501,137.77,198.68-26.26,196.16-304.72,196.44-304.77C1073.07,267.82,786,228.69,470.6,338.28Z"/><circle class="cls-8" cx="329.92" cy="731.56" r="98.36"/></svg>