<svg xmlns="http://www.w3.org/2000/svg" xmlns:xlink="http://www.w3.org/1999/xlink" viewBox="0 0 500 500"><defs><style>.cls-1{fill:none;}.cls-2{fill:url(#New_Gradient_Swatch_45);}.cls-3{fill:#73ffbb;}.cls-4{isolation:isolate;}.cls-5{clip-path:url(#clip-path);}.cls-6{opacity:0.4;}.cls-7{clip-path:url(#clip-path-2);}.cls-8{fill:url(#_ÂÁ_Ï_ÌÌ_È_ËÂÌÚ_1065);}.cls-9{fill:url(#_ÂÁ_Ï_ÌÌ_È_ËÂÌÚ_1065-2);}.cls-10{fill:url(#_ÂÁ_Ï_ÌÌ_È_ËÂÌÚ_1065-3);}.cls-11{fill:url(#_ÂÁ_Ï_ÌÌ_È_ËÂÌÚ_1065-4);}.cls-12{fill:url(#_ÂÁ_Ï_ÌÌ_È_ËÂÌÚ_1065-5);}.cls-13{fill:url(#_ÂÁ_Ï_ÌÌ_È_ËÂÌÚ_1065-6);}.cls-14{fill:url(#_ÂÁ_Ï_ÌÌ_È_ËÂÌÚ_1065-7);}.cls-15{fill:url(#_ÂÁ_Ï_ÌÌ_È_ËÂÌÚ_1065-8);}.cls-16{fill:url(#_ÂÁ_Ï_ÌÌ_È_ËÂÌÚ_1065-9);}.cls-17{fill:url(#_ÂÁ_Ï_ÌÌ_È_ËÂÌÚ_1065-10);}.cls-18{fill:url(#_ÂÁ_Ï_ÌÌ_È_ËÂÌÚ_1065-11);}.cls-19{fill:url(#_ÂÁ_Ï_ÌÌ_È_ËÂÌÚ_1065-12);}.cls-20{fill:url(#_ÂÁ_Ï_ÌÌ_È_ËÂÌÚ_1065-13);}.cls-21{fill:url(#_ÂÁ_Ï_ÌÌ_È_ËÂÌÚ_1065-14);}.cls-22{fill:url(#_ÂÁ_Ï_ÌÌ_È_ËÂÌÚ_1065-15);}.cls-23{fill:url(#_ÂÁ_Ï_ÌÌ_È_ËÂÌÚ_1065-16);}.cls-24{clip-path:url(#clip-path-3);}.cls-25{mix-blend-mode:multiply;}.cls-26{fill:url(#New_Gradient_Swatch_1);}.cls-27{opacity:0.5;}.cls-28{clip-path:url(#clip-path-4);}.cls-29{fill:url(#New_Gradient_Swatch_45-4);}.cls-30{fill:url(#New_Gradient_Swatch_45-5);}.cls-31{fill:url(#New_Gradient_Swatch_45-6);}.cls-32{fill:url(#New_Gradient_Swatch_45-7);}.cls-33{fill:url(#New_Gradient_Swatch_45-8);}.cls-34{fill:url(#New_Gradient_Swatch_45-9);}.cls-35{fill:url(#New_Gradient_Swatch_45-10);}.cls-36{fill:url(#New_Gradient_Swatch_45-11);}.cls-37{fill:url(#New_Gradient_Swatch_45-12);}.cls-38{fill:url(#New_Gradient_Swatch_45-13);}.cls-39{fill:url(#New_Gradient_Swatch_45-14);}.cls-40{fill:url(#New_Gradient_Swatch_45-15);}.cls-41{fill:url(#New_Gradient_Swatch_45-16);}.cls-42{fill:url(#New_Gradient_Swatch_45-17);}.cls-43{fill:url(#New_Gradient_Swatch_45-18);}.cls-44{fill:url(#New_Gradient_Swatch_45-19);}.cls-45{fill:url(#New_Gradient_Swatch_45-20);}.cls-46{fill:url(#New_Gradient_Swatch_45-21);}.cls-47{fill:url(#New_Gradient_Swatch_45-22);}.cls-48{fill:url(#New_Gradient_Swatch_45-23);}.cls-49{fill:url(#New_Gradient_Swatch_45-24);}.cls-50{fill:url(#New_Gradient_Swatch_45-25);}.cls-51{fill:url(#New_Gradient_Swatch_45-26);}.cls-52{fill:url(#New_Gradient_Swatch_45-27);}.cls-53{fill:url(#New_Gradient_Swatch_45-28);}.cls-54{fill:url(#New_Gradient_Swatch_45-29);}.cls-55{fill:url(#New_Gradient_Swatch_45-30);}.cls-56{fill:url(#New_Gradient_Swatch_45-31);}.cls-57{fill:url(#New_Gradient_Swatch_45-32);}.cls-58{fill:url(#New_Gradient_Swatch_45-33);}.cls-59{fill:url(#New_Gradient_Swatch_45-34);}.cls-60{fill:url(#New_Gradient_Swatch_45-35);}.cls-61{fill:url(#New_Gradient_Swatch_45-36);}.cls-62{fill:url(#New_Gradient_Swatch_45-37);}.cls-63{fill:url(#New_Gradient_Swatch_45-38);}.cls-64{fill:url(#New_Gradient_Swatch_45-39);}.cls-65{fill:url(#New_Gradient_Swatch_45-40);}.cls-66{fill:url(#New_Gradient_Swatch_45-41);}.cls-67{fill:url(#New_Gradient_Swatch_45-42);}.cls-68{fill:url(#New_Gradient_Swatch_45-43);}.cls-69{fill:url(#New_Gradient_Swatch_45-44);}.cls-70{fill:url(#New_Gradient_Swatch_45-45);}.cls-71{fill:url(#New_Gradient_Swatch_45-46);}.cls-72{fill:url(#New_Gradient_Swatch_45-47);}.cls-73{fill:url(#New_Gradient_Swatch_45-48);}.cls-74{fill:url(#New_Gradient_Swatch_45-49);}.cls-75{fill:url(#New_Gradient_Swatch_45-50);}.cls-76{fill:url(#New_Gradient_Swatch_39);}.cls-77{fill:url(#New_Gradient_Swatch_1-2);}.cls-78{fill:url(#New_Gradient_Swatch_39-2);}.cls-79{fill:url(#radial-gradient);}.cls-80{fill:url(#New_Gradient_Swatch_1-3);}.cls-81{fill:url(#New_Gradient_Swatch_39-3);}.cls-82{fill:url(#New_Gradient_Swatch_30);}.cls-83{fill:url(#New_Gradient_Swatch_30-2);}.cls-84{fill:url(#New_Gradient_Swatch_45-52);}.cls-85{fill:url(#New_Gradient_Swatch_45-53);}.cls-86{fill:url(#New_Gradient_Swatch_45-54);}.cls-87{fill:url(#New_Gradient_Swatch_45-55);}.cls-88{fill:url(#New_Gradient_Swatch_45-56);}.cls-89{fill:url(#New_Gradient_Swatch_30-3);}.cls-90{fill:url(#New_Gradient_Swatch_30-4);}.cls-91{opacity:0.3;}.cls-92{clip-path:url(#clip-path-5);}.cls-93{fill:#14aef3;}.cls-94{clip-path:url(#clip-path-6);}.cls-95{clip-path:url(#clip-path-7);}.cls-96{fill:#69f6c1;}.cls-97{fill:#6bf9bf;}.cls-98{fill:#6efbbe;}.cls-99{fill:#70fdbc;}</style><linearGradient id="New_Gradient_Swatch_45" x1="114.14" y1="317.41" x2="508.8" y2="317.41" gradientUnits="userSpaceOnUse"><stop offset="0" stop-color="#00c2c3"/><stop offset="0.77" stop-color="#8fff8f"/></linearGradient><clipPath id="clip-path"><circle class="cls-1" cx="250" cy="780" r="240" transform="translate(-478.32 405.23) rotate(-45)"/></clipPath><clipPath id="clip-path-2"><path class="cls-1" d="M426.2,966.2a134.9,134.9,0,0,0,29-22.44C476.61,922,490.86,894,500.22,865c16.71-51.81,18.62-107.61,11.19-161.54-7.92-57.52-27.32-115.28-66.61-158s-101.14-67.66-157.11-52.21a130.74,130.74,0,0,0-64.83,41.61c-15.2,18.1-25.49,41.37-23.72,64.94,2.29,30.43,23.42,55.58,42.5,79.4,28.21,35.22,54.13,72.59,73.22,113.48C337.33,840.78,349.78,893.8,344.49,947c-2.22,22.29,5.84,35,29.74,34.35C392.51,980.92,410.29,975.31,426.2,966.2Z"/></clipPath><linearGradient id="_ÂÁ_Ï_ÌÌ_È_ËÂÌÚ_1065" x1="42.31" y1="-251.89" x2="411.85" y2="-251.89" gradientTransform="matrix(0.99, 0.15, 0.15, -0.99, -0.03, 217.85)" gradientUnits="userSpaceOnUse"><stop offset="0" stop-color="#ff088b"/><stop offset="0.29" stop-color="#ff3a5c"/><stop offset="0.51" stop-color="#ff6236"/><stop offset="1" stop-color="#ffe108"/></linearGradient><linearGradient id="_ÂÁ_Ï_ÌÌ_È_ËÂÌÚ_1065-2" x1="47.84" y1="-261.51" x2="417.29" y2="-261.51" xlink:href="#_ÂÁ_Ï_ÌÌ_È_ËÂÌÚ_1065"/><linearGradient id="_ÂÁ_Ï_ÌÌ_È_ËÂÌÚ_1065-3" x1="53.37" y1="-271.13" x2="422.74" y2="-271.13" xlink:href="#_ÂÁ_Ï_ÌÌ_È_ËÂÌÚ_1065"/><linearGradient id="_ÂÁ_Ï_ÌÌ_È_ËÂÌÚ_1065-4" x1="58.9" y1="-280.75" x2="428.18" y2="-280.75" xlink:href="#_ÂÁ_Ï_ÌÌ_È_ËÂÌÚ_1065"/><linearGradient id="_ÂÁ_Ï_ÌÌ_È_ËÂÌÚ_1065-5" x1="64.43" y1="-290.36" x2="433.62" y2="-290.36" xlink:href="#_ÂÁ_Ï_ÌÌ_È_ËÂÌÚ_1065"/><linearGradient id="_ÂÁ_Ï_ÌÌ_È_ËÂÌÚ_1065-6" x1="69.96" y1="-299.98" x2="439.07" y2="-299.98" xlink:href="#_ÂÁ_Ï_ÌÌ_È_ËÂÌÚ_1065"/><linearGradient id="_ÂÁ_Ï_ÌÌ_È_ËÂÌÚ_1065-7" x1="75.49" y1="-309.6" x2="444.51" y2="-309.6" xlink:href="#_ÂÁ_Ï_ÌÌ_È_ËÂÌÚ_1065"/><linearGradient id="_ÂÁ_Ï_ÌÌ_È_ËÂÌÚ_1065-8" x1="81.02" y1="-319.22" x2="449.96" y2="-319.22" xlink:href="#_ÂÁ_Ï_ÌÌ_È_ËÂÌÚ_1065"/><linearGradient id="_ÂÁ_Ï_ÌÌ_È_ËÂÌÚ_1065-9" x1="86.55" y1="-328.84" x2="455.4" y2="-328.84" xlink:href="#_ÂÁ_Ï_ÌÌ_È_ËÂÌÚ_1065"/><linearGradient id="_ÂÁ_Ï_ÌÌ_È_ËÂÌÚ_1065-10" x1="92.08" y1="-338.45" x2="460.84" y2="-338.45" xlink:href="#_ÂÁ_Ï_ÌÌ_È_ËÂÌÚ_1065"/><linearGradient id="_ÂÁ_Ï_ÌÌ_È_ËÂÌÚ_1065-11" x1="97.61" y1="-348.07" x2="466.29" y2="-348.07" xlink:href="#_ÂÁ_Ï_ÌÌ_È_ËÂÌÚ_1065"/><linearGradient id="_ÂÁ_Ï_ÌÌ_È_ËÂÌÚ_1065-12" x1="103.15" y1="-357.69" x2="471.73" y2="-357.69" xlink:href="#_ÂÁ_Ï_ÌÌ_È_ËÂÌÚ_1065"/><linearGradient id="_ÂÁ_Ï_ÌÌ_È_ËÂÌÚ_1065-13" x1="108.68" y1="-367.31" x2="477.18" y2="-367.31" xlink:href="#_ÂÁ_Ï_ÌÌ_È_ËÂÌÚ_1065"/><linearGradient id="_ÂÁ_Ï_ÌÌ_È_ËÂÌÚ_1065-14" x1="114.21" y1="-376.93" x2="482.62" y2="-376.93" xlink:href="#_ÂÁ_Ï_ÌÌ_È_ËÂÌÚ_1065"/><linearGradient id="_ÂÁ_Ï_ÌÌ_È_ËÂÌÚ_1065-15" x1="119.74" y1="-386.54" x2="488.06" y2="-386.54" xlink:href="#_ÂÁ_Ï_ÌÌ_È_ËÂÌÚ_1065"/><linearGradient id="_ÂÁ_Ï_ÌÌ_È_ËÂÌÚ_1065-16" x1="125.27" y1="-396.16" x2="493.51" y2="-396.16" xlink:href="#_ÂÁ_Ï_ÌÌ_È_ËÂÌÚ_1065"/><clipPath id="clip-path-3"><circle class="cls-1" cx="250" cy="250" r="240" transform="translate(-103.55 250) rotate(-45)"/></clipPath><radialGradient id="New_Gradient_Swatch_1" cx="967.21" cy="717.59" r="135.62" gradientTransform="matrix(0, -0.85, 0.57, 0, 47.01, 1037.42)" gradientUnits="userSpaceOnUse"><stop offset="0" stop-color="#00c2c3"/><stop offset="0.26" stop-color="#8fff8f"/><stop offset="0.31" stop-color="#9eff9e"/><stop offset="0.44" stop-color="#c1ffc1"/><stop offset="0.57" stop-color="#dcffdc"/><stop offset="0.71" stop-color="#f0fff0"/><stop offset="0.85" stop-color="#fbfffb"/><stop offset="0.99" stop-color="#fff"/></radialGradient><clipPath id="clip-path-4"><path class="cls-2" d="M159.38,501.17A127.1,127.1,0,0,0,192,512.79c28.18,5.91,57.66,3,85.51-4.38,49.68-13.12,95-40,134.05-73.42,41.67-35.6,77.68-80.46,91.63-133.46s2.22-114.85-38.58-151.45a123.48,123.48,0,0,0-66.1-30.3c-22.13-2.86-45.86.83-63.69,14.25-23,17.32-32.23,46.93-41.43,74.23-13.61,40.36-30.09,80-52.85,116C213.74,366.65,178,403.55,133,426.47c-18.84,9.6-24.79,22.45-12.14,41.14C130.52,481.9,144,493.17,159.38,501.17Z"/></clipPath><linearGradient id="New_Gradient_Swatch_45-4" x1="496.77" y1="820.28" x2="845.6" y2="820.28" gradientTransform="matrix(0.41, 0.91, 0.91, -0.41, -615.62, -202.51)" xlink:href="#New_Gradient_Swatch_45"/><linearGradient id="New_Gradient_Swatch_45-5" x1="501.98" y1="811.2" x2="850.73" y2="811.2" gradientTransform="matrix(0.41, 0.91, 0.91, -0.41, -615.62, -202.51)" xlink:href="#New_Gradient_Swatch_45"/><linearGradient id="New_Gradient_Swatch_45-6" x1="507.2" y1="802.13" x2="855.87" y2="802.13" gradientTransform="matrix(0.41, 0.91, 0.91, -0.41, -615.62, -202.51)" xlink:href="#New_Gradient_Swatch_45"/><linearGradient id="New_Gradient_Swatch_45-7" x1="512.42" y1="793.05" x2="861.01" y2="793.05" gradientTransform="matrix(0.41, 0.91, 0.91, -0.41, -615.62, -202.51)" xlink:href="#New_Gradient_Swatch_45"/><linearGradient id="New_Gradient_Swatch_45-8" x1="517.64" y1="783.97" x2="866.15" y2="783.97" gradientTransform="matrix(0.41, 0.91, 0.91, -0.41, -615.62, -202.51)" xlink:href="#New_Gradient_Swatch_45"/><linearGradient id="New_Gradient_Swatch_45-9" x1="522.86" y1="774.89" x2="871.29" y2="774.89" gradientTransform="matrix(0.41, 0.91, 0.91, -0.41, -615.62, -202.51)" xlink:href="#New_Gradient_Swatch_45"/><linearGradient id="New_Gradient_Swatch_45-10" x1="528.08" y1="765.81" x2="876.43" y2="765.81" gradientTransform="matrix(0.41, 0.91, 0.91, -0.41, -615.62, -202.51)" xlink:href="#New_Gradient_Swatch_45"/><linearGradient id="New_Gradient_Swatch_45-11" x1="533.3" y1="756.73" x2="881.56" y2="756.73" gradientTransform="matrix(0.41, 0.91, 0.91, -0.41, -615.62, -202.51)" xlink:href="#New_Gradient_Swatch_45"/><linearGradient id="New_Gradient_Swatch_45-12" x1="538.52" y1="747.65" x2="886.7" y2="747.65" gradientTransform="matrix(0.41, 0.91, 0.91, -0.41, -615.62, -202.51)" xlink:href="#New_Gradient_Swatch_45"/><linearGradient id="New_Gradient_Swatch_45-13" x1="543.74" y1="738.57" x2="891.84" y2="738.57" gradientTransform="matrix(0.41, 0.91, 0.91, -0.41, -615.62, -202.51)" xlink:href="#New_Gradient_Swatch_45"/><linearGradient id="New_Gradient_Swatch_45-14" x1="548.96" y1="729.5" x2="896.98" y2="729.5" gradientTransform="matrix(0.41, 0.91, 0.91, -0.41, -615.62, -202.51)" xlink:href="#New_Gradient_Swatch_45"/><linearGradient id="New_Gradient_Swatch_45-15" x1="554.18" y1="720.42" x2="902.11" y2="720.42" gradientTransform="matrix(0.41, 0.91, 0.91, -0.41, -615.62, -202.51)" xlink:href="#New_Gradient_Swatch_45"/><linearGradient id="New_Gradient_Swatch_45-16" x1="559.4" y1="711.34" x2="907.25" y2="711.34" gradientTransform="matrix(0.41, 0.91, 0.91, -0.41, -615.62, -202.51)" xlink:href="#New_Gradient_Swatch_45"/><linearGradient id="New_Gradient_Swatch_45-17" x1="564.62" y1="702.26" x2="912.39" y2="702.26" gradientTransform="matrix(0.41, 0.91, 0.91, -0.41, -615.62, -202.51)" xlink:href="#New_Gradient_Swatch_45"/><linearGradient id="New_Gradient_Swatch_45-18" x1="569.84" y1="693.18" x2="917.53" y2="693.18" gradientTransform="matrix(0.41, 0.91, 0.91, -0.41, -615.62, -202.51)" xlink:href="#New_Gradient_Swatch_45"/><linearGradient id="New_Gradient_Swatch_45-19" x1="575.06" y1="684.1" x2="922.67" y2="684.1" gradientTransform="matrix(0.41, 0.91, 0.91, -0.41, -615.62, -202.51)" xlink:href="#New_Gradient_Swatch_45"/><linearGradient id="New_Gradient_Swatch_45-20" x1="580.28" y1="675.02" x2="927.81" y2="675.02" gradientTransform="matrix(0.41, 0.91, 0.91, -0.41, -615.62, -202.51)" xlink:href="#New_Gradient_Swatch_45"/><linearGradient id="New_Gradient_Swatch_45-21" x1="585.5" y1="665.94" x2="932.94" y2="665.94" gradientTransform="matrix(0.41, 0.91, 0.91, -0.41, -615.62, -202.51)" xlink:href="#New_Gradient_Swatch_45"/><linearGradient id="New_Gradient_Swatch_45-22" x1="590.73" y1="656.86" x2="938.08" y2="656.86" gradientTransform="matrix(0.41, 0.91, 0.91, -0.41, -615.62, -202.51)" xlink:href="#New_Gradient_Swatch_45"/><linearGradient id="New_Gradient_Swatch_45-23" x1="595.95" y1="647.78" x2="943.22" y2="647.78" gradientTransform="matrix(0.41, 0.91, 0.91, -0.41, -615.62, -202.51)" xlink:href="#New_Gradient_Swatch_45"/><linearGradient id="New_Gradient_Swatch_45-24" x1="601.17" y1="638.71" x2="948.36" y2="638.71" gradientTransform="matrix(0.41, 0.91, 0.91, -0.41, -615.62, -202.51)" xlink:href="#New_Gradient_Swatch_45"/><linearGradient id="New_Gradient_Swatch_45-25" x1="606.39" y1="629.63" x2="953.5" y2="629.63" gradientTransform="matrix(0.41, 0.91, 0.91, -0.41, -615.62, -202.51)" xlink:href="#New_Gradient_Swatch_45"/><linearGradient id="New_Gradient_Swatch_45-26" x1="611.61" y1="620.55" x2="958.64" y2="620.55" gradientTransform="matrix(0.41, 0.91, 0.91, -0.41, -615.62, -202.51)" xlink:href="#New_Gradient_Swatch_45"/><linearGradient id="New_Gradient_Swatch_45-27" x1="616.83" y1="611.47" x2="963.78" y2="611.47" gradientTransform="matrix(0.41, 0.91, 0.91, -0.41, -615.62, -202.51)" xlink:href="#New_Gradient_Swatch_45"/><linearGradient id="New_Gradient_Swatch_45-28" x1="622.05" y1="602.39" x2="968.92" y2="602.39" gradientTransform="matrix(0.41, 0.91, 0.91, -0.41, -615.62, -202.51)" xlink:href="#New_Gradient_Swatch_45"/><linearGradient id="New_Gradient_Swatch_45-29" x1="627.27" y1="593.31" x2="974.05" y2="593.31" gradientTransform="matrix(0.41, 0.91, 0.91, -0.41, -615.62, -202.51)" xlink:href="#New_Gradient_Swatch_45"/><linearGradient id="New_Gradient_Swatch_45-30" x1="632.5" y1="584.23" x2="979.19" y2="584.23" gradientTransform="matrix(0.41, 0.91, 0.91, -0.41, -615.62, -202.51)" xlink:href="#New_Gradient_Swatch_45"/><linearGradient id="New_Gradient_Swatch_45-31" x1="637.72" y1="575.15" x2="984.33" y2="575.15" gradientTransform="matrix(0.41, 0.91, 0.91, -0.41, -615.62, -202.51)" xlink:href="#New_Gradient_Swatch_45"/><linearGradient id="New_Gradient_Swatch_45-32" x1="642.94" y1="566.07" x2="989.47" y2="566.07" gradientTransform="matrix(0.41, 0.91, 0.91, -0.41, -615.62, -202.51)" xlink:href="#New_Gradient_Swatch_45"/><linearGradient id="New_Gradient_Swatch_45-33" x1="648.16" y1="556.99" x2="994.61" y2="556.99" gradientTransform="matrix(0.41, 0.91, 0.91, -0.41, -615.62, -202.51)" xlink:href="#New_Gradient_Swatch_45"/><linearGradient id="New_Gradient_Swatch_45-34" x1="653.38" y1="547.91" x2="999.75" y2="547.91" gradientTransform="matrix(0.41, 0.91, 0.91, -0.41, -615.62, -202.51)" xlink:href="#New_Gradient_Swatch_45"/><linearGradient id="New_Gradient_Swatch_45-35" x1="658.61" y1="538.83" x2="1004.89" y2="538.83" gradientTransform="matrix(0.41, 0.91, 0.91, -0.41, -615.62, -202.51)" xlink:href="#New_Gradient_Swatch_45"/><linearGradient id="New_Gradient_Swatch_45-36" x1="663.83" y1="529.75" x2="1010.03" y2="529.75" gradientTransform="matrix(0.41, 0.91, 0.91, -0.41, -615.62, -202.51)" xlink:href="#New_Gradient_Swatch_45"/><linearGradient id="New_Gradient_Swatch_45-37" x1="669.05" y1="520.67" x2="1015.17" y2="520.67" gradientTransform="matrix(0.41, 0.91, 0.91, -0.41, -615.62, -202.51)" xlink:href="#New_Gradient_Swatch_45"/><linearGradient id="New_Gradient_Swatch_45-38" x1="674.27" y1="511.59" x2="1020.31" y2="511.59" gradientTransform="matrix(0.41, 0.91, 0.91, -0.41, -615.62, -202.51)" xlink:href="#New_Gradient_Swatch_45"/><linearGradient id="New_Gradient_Swatch_45-39" x1="679.5" y1="502.51" x2="1025.45" y2="502.51" gradientTransform="matrix(0.41, 0.91, 0.91, -0.41, -615.62, -202.51)" xlink:href="#New_Gradient_Swatch_45"/><linearGradient id="New_Gradient_Swatch_45-40" x1="684.72" y1="493.43" x2="1030.58" y2="493.43" gradientTransform="matrix(0.41, 0.91, 0.91, -0.41, -615.62, -202.51)" xlink:href="#New_Gradient_Swatch_45"/><linearGradient id="New_Gradient_Swatch_45-41" x1="689.94" y1="484.35" x2="1035.69" y2="484.35" gradientTransform="matrix(0.41, 0.91, 0.91, -0.41, -615.62, -202.51)" xlink:href="#New_Gradient_Swatch_45"/><linearGradient id="New_Gradient_Swatch_45-42" x1="695.16" y1="475.27" x2="1040.83" y2="475.27" gradientTransform="matrix(0.41, 0.91, 0.91, -0.41, -615.62, -202.51)" xlink:href="#New_Gradient_Swatch_45"/><linearGradient id="New_Gradient_Swatch_45-43" x1="700.39" y1="466.19" x2="1045.97" y2="466.19" gradientTransform="matrix(0.41, 0.91, 0.91, -0.41, -615.62, -202.51)" xlink:href="#New_Gradient_Swatch_45"/><linearGradient id="New_Gradient_Swatch_45-44" x1="705.61" y1="457.11" x2="1051.11" y2="457.11" gradientTransform="matrix(0.41, 0.91, 0.91, -0.41, -615.62, -202.51)" xlink:href="#New_Gradient_Swatch_45"/><linearGradient id="New_Gradient_Swatch_45-45" x1="710.84" y1="448.03" x2="1056.25" y2="448.03" gradientTransform="matrix(0.41, 0.91, 0.91, -0.41, -615.62, -202.51)" xlink:href="#New_Gradient_Swatch_45"/><linearGradient id="New_Gradient_Swatch_45-46" x1="716.06" y1="438.95" x2="1061.39" y2="438.95" gradientTransform="matrix(0.41, 0.91, 0.91, -0.41, -615.62, -202.51)" xlink:href="#New_Gradient_Swatch_45"/><linearGradient id="New_Gradient_Swatch_45-47" x1="721.28" y1="429.87" x2="1066.53" y2="429.87" gradientTransform="matrix(0.41, 0.91, 0.91, -0.41, -615.62, -202.51)" xlink:href="#New_Gradient_Swatch_45"/><linearGradient id="New_Gradient_Swatch_45-48" x1="726.5" y1="420.79" x2="1071.67" y2="420.79" gradientTransform="matrix(0.41, 0.91, 0.91, -0.41, -615.62, -202.51)" xlink:href="#New_Gradient_Swatch_45"/><linearGradient id="New_Gradient_Swatch_45-49" x1="731.73" y1="411.71" x2="1076.81" y2="411.71" gradientTransform="matrix(0.41, 0.91, 0.91, -0.41, -615.62, -202.51)" xlink:href="#New_Gradient_Swatch_45"/><linearGradient id="New_Gradient_Swatch_45-50" x1="736.95" y1="402.63" x2="1081.95" y2="402.63" gradientTransform="matrix(0.41, 0.91, 0.91, -0.41, -615.62, -202.51)" xlink:href="#New_Gradient_Swatch_45"/><linearGradient id="New_Gradient_Swatch_39" x1="156.19" y1="-374.87" x2="452.48" y2="-374.87" gradientTransform="matrix(-0.36, 0.93, 0.93, 0.36, 634.88, 199.99)" gradientUnits="userSpaceOnUse"><stop offset="0" stop-color="#00efa9"/><stop offset="1" stop-color="#3f56f0"/></linearGradient><radialGradient id="New_Gradient_Swatch_1-2" cx="886.85" cy="124.1" r="120.23" gradientTransform="matrix(0.85, 0, 0, 0.57, -646.76, 301.45)" xlink:href="#New_Gradient_Swatch_1"/><linearGradient id="New_Gradient_Swatch_39-2" x1="442.23" y1="-372.23" x2="629.74" y2="-372.23" gradientTransform="translate(290.69 -476.77) rotate(110.29)" xlink:href="#New_Gradient_Swatch_39"/><radialGradient id="radial-gradient" cx="723.04" cy="1563.29" r="186.62" gradientTransform="matrix(-0.97, 0.21, -0.37, -0.56, 1401.24, 909.99)" gradientUnits="userSpaceOnUse"><stop offset="0" stop-color="#22bbed"/><stop offset="0.26" stop-color="#59ff3f"/><stop offset="0.26" stop-color="#5aff40"/><stop offset="0.36" stop-color="#85ff72"/><stop offset="0.46" stop-color="#abff9d"/><stop offset="0.57" stop-color="#c9ffc1"/><stop offset="0.67" stop-color="#e1ffdc"/><stop offset="0.77" stop-color="#f2fff0"/><stop offset="0.88" stop-color="#fcfffb"/><stop offset="0.99" stop-color="#fff"/></radialGradient><radialGradient id="New_Gradient_Swatch_1-3" cx="840.71" cy="1521.01" r="186.62" gradientTransform="matrix(-0.97, 0.21, -0.37, -0.56, 1500.01, 971.2)" xlink:href="#New_Gradient_Swatch_1"/><linearGradient id="New_Gradient_Swatch_39-3" x1="74.88" y1="165.8" x2="516.97" y2="165.8" gradientTransform="translate(-155.86 429.52) rotate(-78.85)" xlink:href="#New_Gradient_Swatch_39"/><linearGradient id="New_Gradient_Swatch_30" x1="133.77" y1="410.99" x2="195.65" y2="410.99" gradientUnits="userSpaceOnUse"><stop offset="0" stop-color="#39f0cf"/><stop offset="1" stop-color="#0063ae"/></linearGradient><linearGradient id="New_Gradient_Swatch_30-2" x1="329.98" y1="264.94" x2="382.69" y2="264.94" gradientTransform="matrix(0.73, -0.19, -0.19, 0.86, 236.83, 168.85)" xlink:href="#New_Gradient_Swatch_30"/><linearGradient id="New_Gradient_Swatch_45-52" x1="296.51" y1="465.97" x2="320.66" y2="465.97" gradientTransform="translate(690.86 58.27) rotate(76.67)" xlink:href="#New_Gradient_Swatch_45"/><linearGradient id="New_Gradient_Swatch_45-53" x1="345.27" y1="361.71" x2="356.63" y2="361.71" xlink:href="#New_Gradient_Swatch_45"/><linearGradient id="New_Gradient_Swatch_45-54" x1="71.07" y1="308.29" x2="82.43" y2="308.29" xlink:href="#New_Gradient_Swatch_45"/><linearGradient id="New_Gradient_Swatch_45-55" x1="340.66" y1="440.31" x2="356.83" y2="440.31" xlink:href="#New_Gradient_Swatch_45"/><linearGradient id="New_Gradient_Swatch_45-56" x1="397.95" y1="89.05" x2="414.12" y2="89.05" xlink:href="#New_Gradient_Swatch_45"/><linearGradient id="New_Gradient_Swatch_30-3" x1="397.95" y1="288.09" x2="496.04" y2="288.09" xlink:href="#New_Gradient_Swatch_30"/><linearGradient id="New_Gradient_Swatch_30-4" x1="126.63" y1="242.41" x2="224.71" y2="242.41" xlink:href="#New_Gradient_Swatch_30"/><clipPath id="clip-path-5"><path class="cls-3" d="M330.62,174.7c25.58,20.32,44.82,47.94,61.83,76.52,8.07,13.57,17.15,28.43,32.21,33.19,13.65,4.31,29-1.39,39.23-11.45s15.89-23.82,19.58-37.65c8.59-32.2,7.51-66.15,4.67-99.35-2.15-25.14-5.32-50.4-13.21-74.37S454.11,14.82,435-1.6C401.75-30.06,354.2-35.84,310.86-30,282.28-26.19,254.57-17.95,227-9.93,199.14-1.86,173.31,6,147.36,19.14c-10.3,5.24-20.86,11.46-26.51,21.54-7.43,13.25-4.33,30.55,4.42,43s22.25,20.67,36.07,27C204,130.06,251.4,135.53,294.68,153.4A148.85,148.85,0,0,1,330.62,174.7Z"/></clipPath><clipPath id="clip-path-6"><circle class="cls-1" cx="250" cy="-280" r="240" transform="translate(271.21 94.77) rotate(-45)"/></clipPath><clipPath id="clip-path-7"><path class="cls-1" d="M312.35,20.48A139.57,139.57,0,0,1,274.52,24C243,22.58,212.42,11.44,184.83-3.95c-49.23-27.46-90.06-68.4-122.5-114.5C27.73-167.62,1.65-225.09,1.25-285.21S30.13-407.87,83.44-435.67a135.36,135.36,0,0,1,78.49-14.23c24.3,3,48.52,13.35,63.81,32.46,19.75,24.68,21.49,58.65,23.85,90.16,3.48,46.6,10.22,93.22,24.62,137.67,17,52.34,44.94,101.29,86.51,137.88,17.42,15.32,20.25,30.6,1.72,47C348.26,7.85,330.84,16.15,312.35,20.48Z"/></clipPath></defs><g class="cls-4"><g id="Layer_8" data-name="Layer 8"><g class="cls-5"><g class="cls-6"><g class="cls-7"><path class="cls-8" d="M-23.31,659.36l2,4.76c1.06-.45,108-45.29,212.31-107.46,140.74-83.88,209.93-157.73,205.66-219.51l-5.15.36C401.37,480.41-19.07,657.58-23.31,659.36Z"/><path class="cls-9" d="M-19.28,669.75l2,4.67c1.07-.45,108-45.45,212.3-107.7,140.7-84,209.89-157.73,205.64-219.22l-5.05.35C405.41,490.2-15,668-19.28,669.75Z"/><path class="cls-10" d="M-15.24,680.14l1.93,4.57c1.06-.44,108-45.59,212.27-107.92,140.68-84.07,209.87-157.73,205.63-218.95l-4.95.35C409.44,499.93-11,678.35-15.24,680.14Z"/><path class="cls-11" d="M-11.2,690.53-9.31,695c1.07-.45,108-45.75,212.25-108.16,140.65-84.16,209.84-157.73,205.62-218.66l-4.85.34C413.46,509.69-7,688.73-11.2,690.53Z"/><path class="cls-12" d="M-7.16,700.92l1.85,4.39c1.07-.45,108-45.91,212.23-108.39,140.63-84.26,209.81-157.74,205.62-218.38l-4.76.33C417.49,519.46-2.92,699.12-7.16,700.92Z"/><path class="cls-13" d="M-3.13,711.31l1.83,4.3c1.07-.46,107.93-46.07,212.2-108.63,140.61-84.35,209.78-157.73,205.61-218.1l-4.66.33C421.52,529.2,1.12,709.5-3.13,711.31Z"/><path class="cls-14" d="M.91,721.7l1.79,4.2c1.07-.45,107.92-46.22,212.18-108.85,140.58-84.45,209.76-157.73,205.6-217.82l-4.56.32C425.55,539,5.16,719.88.91,721.7Z"/><path class="cls-15" d="M5,732.09l1.76,4.11c1.06-.46,107.9-46.38,212.15-109.09,140.55-84.54,209.73-157.73,205.59-217.53l-4.46.31C429.59,548.74,9.19,730.27,5,732.09Z"/><path class="cls-16" d="M9,742.48l1.73,4C11.78,746,118.59,700,222.84,637.18c140.53-84.63,209.7-157.73,205.58-217.25l-4.36.3C433.62,558.46,13.23,740.65,9,742.48Z"/><path class="cls-17" d="M13,752.87l1.69,3.92c1.07-.46,107.87-46.69,212.11-109.55,140.5-84.73,209.67-157.73,205.58-217l-4.27.3C437.64,568.21,17.27,751,13,752.87Z"/><path class="cls-18" d="M17.06,763.25l1.66,3.84c1.07-.46,107.85-46.85,212.08-109.78,140.48-84.83,209.64-157.73,205.57-216.69l-4.17.29C441.68,578,21.31,761.42,17.06,763.25Z"/><path class="cls-19" d="M21.1,773.64l1.62,3.75c1.07-.46,107.84-47,212.06-110C375.23,582.46,444.39,509.65,440.34,451l-4.07.28C445.7,587.74,25.34,771.8,21.1,773.64Z"/><path class="cls-20" d="M25.14,784l1.59,3.66c1.06-.47,107.82-47.17,212-110.25,140.43-85,209.59-157.72,205.55-216.13l-4,.28C449.72,597.49,29.38,782.18,25.14,784Z"/><path class="cls-21" d="M29.17,794.42,30.73,798c1.07-.46,107.81-47.32,212-110.48C383.15,602.4,452.3,529.78,448.28,471.66l-3.87.27C453.76,607.23,33.42,792.57,29.17,794.42Z"/><path class="cls-22" d="M33.21,804.81l1.52,3.47c1.07-.47,107.8-47.48,212-110.71C387.1,612.37,456.25,539.84,452.26,482l-3.78.26C457.78,617,37.46,803,33.21,804.81Z"/><path class="cls-23" d="M37.25,815.2l1.49,3.38c1.06-.47,107.78-47.64,212-111,140.35-85.29,209.5-157.72,205.53-215.28l-3.68.26C461.83,626.75,41.5,813.33,37.25,815.2Z"/></g></g></g></g><g id="Layer_7" data-name="Layer 7"><g class="cls-24"><g class="cls-25"><ellipse class="cls-26" cx="453.17" cy="218.54" rx="76.76" ry="114.82" transform="translate(-49.56 238.03) rotate(-27.97)"/></g><g class="cls-27"><path class="cls-2" d="M159.38,501.17A127.1,127.1,0,0,0,192,512.79c28.18,5.91,57.66,3,85.51-4.38,49.68-13.12,95-40,134.05-73.42,41.67-35.6,77.68-80.46,91.63-133.46s2.22-114.85-38.58-151.45a123.48,123.48,0,0,0-66.1-30.3c-22.13-2.86-45.86.83-63.69,14.25-23,17.32-32.23,46.93-41.43,74.23-13.61,40.36-30.09,80-52.85,116C213.74,366.65,178,403.55,133,426.47c-18.84,9.6-24.79,22.45-12.14,41.14C130.52,481.9,144,493.17,159.38,501.17Z"/><path class="cls-2" d="M159.38,501.17A127.1,127.1,0,0,0,192,512.79c28.18,5.91,57.66,3,85.51-4.38,49.68-13.12,95-40,134.05-73.42,41.67-35.6,77.68-80.46,91.63-133.46s2.22-114.85-38.58-151.45a123.48,123.48,0,0,0-66.1-30.3c-22.13-2.86-45.86.83-63.69,14.25-23,17.32-32.23,46.93-41.43,74.23-13.61,40.36-30.09,80-52.85,116C213.74,366.65,178,403.55,133,426.47c-18.84,9.6-24.79,22.45-12.14,41.14C130.52,481.9,144,493.17,159.38,501.17Z"/><g class="cls-28"><path class="cls-29" d="M174.12-12.36l-2.78,4c.9.63,91,62.74,193.59,113.94,138.36,69.08,232.3,86.43,279.21,51.55l-2.91-3.91C532.72,233.89,177.69-9.89,174.12-12.36Z"/><path class="cls-30" d="M167.92-3.86,165.2.07c.9.62,91.14,62.65,193.76,113.81,138.42,69,232.29,86.39,279,51.68l-2.85-3.84C527,242.08,171.5-1.39,167.92-3.86Z"/><path class="cls-31" d="M161.72,4.64,159.06,8.5c.9.62,91.26,62.56,193.93,113.67C491.48,191.11,585.26,208.55,631.75,174l-2.8-3.76C521.32,250.24,165.3,7.11,161.72,4.64Z"/><path class="cls-32" d="M155.52,13.14l-2.6,3.79c.9.62,91.37,62.47,194.1,113.53,138.55,68.87,232.26,86.35,278.53,52l-2.74-3.69C515.62,258.41,159.11,15.6,155.52,13.14Z"/><path class="cls-33" d="M149.32,21.65l-2.54,3.71c.9.62,91.49,62.37,194.27,113.39,138.62,68.8,232.25,86.33,278.3,52.1l-2.68-3.62C509.9,266.59,152.92,24.1,149.32,21.65Z"/><path class="cls-34" d="M143.12,30.15l-2.48,3.64c.9.62,91.6,62.28,194.44,113.25,138.68,68.74,232.23,86.31,278.08,52.23l-2.64-3.53C504.22,274.77,146.72,32.6,143.12,30.15Z"/><path class="cls-35" d="M136.93,38.65l-2.43,3.57c.9.61,91.72,62.19,194.61,113.11C467.85,224,561.33,241.62,607,207.7l-2.58-3.46C498.52,282.94,140.53,41.1,136.93,38.65Z"/><path class="cls-36" d="M130.73,47.15l-2.37,3.5c.9.61,91.84,62.09,194.78,113,138.8,68.6,232.21,86.26,277.62,52.5l-2.52-3.39C492.8,291.13,134.34,49.6,130.73,47.15Z"/><path class="cls-37" d="M124.53,55.65l-2.31,3.43c.9.61,91.95,62,195,112.84,138.87,68.53,232.2,86.24,277.39,52.64l-2.46-3.31C487.13,299.28,128.14,58.1,124.53,55.65Z"/><path class="cls-38" d="M118.33,64.16l-2.26,3.34c.91.62,92.08,61.92,195.14,112.71C450.13,248.67,543.38,266.43,588.37,233L586,229.75C481.44,307.45,122,66.6,118.33,64.16Z"/><path class="cls-39" d="M112.14,72.66l-2.21,3.27c.91.62,92.19,61.83,195.31,112.57,139,68.4,232.15,86.2,276.93,52.92l-2.36-3.17C475.73,315.63,115.76,75.1,112.14,72.66Z"/><path class="cls-40" d="M105.94,81.16l-2.15,3.2c.91.61,92.31,61.73,195.48,112.43C438.32,265.12,531.41,283,576,249.85l-2.3-3.1C470,323.81,109.57,83.6,105.94,81.16Z"/><path class="cls-41" d="M99.74,89.67l-2.09,3.12c.91.61,92.42,61.64,195.65,112.29,139.11,68.26,232.12,86.16,276.47,53.19l-2.24-3C464.33,332,103.38,92.1,99.74,89.67Z"/><path class="cls-42" d="M93.54,98.17l-2,3c.91.61,92.54,61.55,195.82,112.15,139.17,68.2,232.11,86.14,276.25,53.33l-2.19-2.94C458.65,340.14,97.18,100.6,93.54,98.17Z"/><path class="cls-43" d="M87.35,106.67l-2,3c.91.61,92.65,61.45,196,112,139.23,68.12,232.1,86.11,276,53.46l-2.13-2.87C452.94,348.31,91,109.1,87.35,106.67Z"/><path class="cls-44" d="M81.15,115.17l-1.93,2.91c.92.6,92.78,61.36,196.17,111.88,139.3,68,232.09,86.09,275.79,53.6l-2.08-2.79C447.25,356.5,84.8,117.6,81.15,115.17Z"/><path class="cls-45" d="M75,123.68l-1.87,2.82c.92.61,92.89,61.28,196.34,111.75C408.78,306.24,501.5,324.32,545,292l-2-2.72C441.54,364.67,78.61,126.09,75,123.68Z"/><path class="cls-46" d="M68.76,132.18l-1.82,2.75c.92.61,93,61.18,196.51,111.61,139.42,67.92,232.06,86,275.34,53.88l-2-2.65C435.86,372.84,72.41,134.59,68.76,132.18Z"/><path class="cls-47" d="M62.56,140.68l-1.76,2.68c.92.6,93.12,61.09,196.68,111.47,139.48,67.86,232,86,275.11,54l-1.91-2.58C430.16,381,66.22,143.09,62.56,140.68Z"/><path class="cls-48" d="M56.36,149.19l-1.71,2.6c.93.6,93.25,61,196.86,111.33,139.55,67.79,232,86,274.88,54.15l-1.85-2.49C424.46,389.17,60,151.59,56.36,149.19Z"/><path class="cls-49" d="M50.17,157.69l-1.66,2.52c.92.61,93.36,60.91,197,111.2,139.6,67.72,232,86,274.65,54.29l-1.8-2.42C418.76,397.35,53.84,160.09,50.17,157.69Z"/><path class="cls-50" d="M44,166.19l-1.6,2.45c.92.61,93.48,60.82,197.21,111.06,139.66,67.66,232,86,274.42,54.43l-1.75-2.35C413.06,405.52,47.65,168.6,44,166.19Z"/><path class="cls-51" d="M37.77,174.7l-1.54,2.37c.92.6,93.59,60.73,197.38,110.93,139.73,67.58,232,85.94,274.19,54.56l-1.69-2.27C407.36,413.69,41.46,177.1,37.77,174.7Z"/><path class="cls-52" d="M31.58,183.2l-1.5,2.3c.93.6,93.72,60.63,197.56,110.79,139.79,67.51,232,85.92,274,54.7l-1.63-2.2C401.67,421.86,35.27,185.59,31.58,183.2Z"/><path class="cls-53" d="M25.38,191.7l-1.44,2.23c.93.6,93.83,60.54,197.73,110.65,139.85,67.45,232,85.91,273.74,54.84l-1.58-2.13C396,430,29.07,194.09,25.38,191.7Z"/><path class="cls-54" d="M19.18,200.21l-1.38,2.14c.92.6,93.94,60.46,197.9,110.52,139.91,67.38,231.93,85.88,273.51,55l-1.52-2C390.28,438.21,22.88,202.6,19.18,200.21Z"/><path class="cls-55" d="M13,208.71l-1.34,2.07c.93.6,94.07,60.36,198.08,110.38C349.71,388.47,441.66,407,483,376.27l-1.47-2C384.58,446.39,16.69,211.1,13,208.71Z"/><path class="cls-56" d="M6.79,217.21l-1.28,2c.93.6,94.18,60.27,198.25,110.24,140,67.25,231.91,85.84,273.05,55.25l-1.41-1.9C378.88,454.55,10.5,219.6,6.79,217.21Z"/><path class="cls-57" d="M.6,225.72l-1.23,1.92c.93.59,94.3,60.18,198.42,110.1,140.1,67.18,231.89,85.82,272.83,55.39l-1.36-1.83C373.19,462.72,4.31,228.1.6,225.72Z"/><path class="cls-58" d="M-5.6,234.22l-1.18,1.84c.94.6,94.42,60.09,198.6,110,140.17,67.12,231.89,85.8,272.6,55.53l-1.3-1.76C367.48,470.9-1.88,236.6-5.6,234.22Z"/><path class="cls-59" d="M-11.8,242.73l-1.12,1.76c.93.59,94.53,60,198.77,109.83C326.08,421.37,417.72,440.09,458.22,410L457,408.31C361.79,479.06-8.07,245.1-11.8,242.73Z"/><path class="cls-60" d="M-18,251.23l-1.07,1.69c.93.59,94.65,59.9,198.94,109.69,140.29,67,231.86,85.76,272.15,55.81l-1.2-1.61C356.1,487.24-14.26,253.6-18,251.23Z"/><path class="cls-61" d="M-24.19,259.74l-1,1.61c.94.59,94.77,59.81,199.12,109.56,140.35,66.91,231.84,85.73,271.92,55.93l-1.14-1.53C350.41,495.41-20.45,262.1-24.19,259.74Z"/><path class="cls-62" d="M-30.38,268.24l-1,1.53c.94.59,94.88,59.73,199.29,109.43C308.35,446,399.77,464.91,439.63,435.27l-1.08-1.45C344.71,503.58-26.64,270.6-30.38,268.24Z"/><path class="cls-63" d="M-36.58,276.74l-.91,1.46c.93.59,95,59.63,199.46,109.29,140.48,66.78,231.81,85.69,271.47,56.21l-1-1.38C339,511.77-32.83,279.1-36.58,276.74Z"/><path class="cls-64" d="M-42.77,285.25l-.87,1.38c.94.59,95.12,59.54,199.64,109.15,140.54,66.71,231.8,85.67,271.24,56.35l-1-1.31c-38.38,28.53-131.59,9-269.58-56.51C52.27,344.74-41.83,285.84-42.77,285.25Z"/><path class="cls-65" d="M-49,293.75l-.81,1.3c.94.59,95.24,59.45,199.81,109,140.6,66.64,231.78,85.65,271,56.49l-.92-1.24c-38.18,28.39-131.35,8.81-269.42-56.63C46.2,353.16-48,294.34-49,293.75Z"/><path class="cls-66" d="M-55.16,302.26l-.77,1.22c.94.59,95.36,59.36,200,108.88,61.47,29.09,114.39,49.35,157.29,60.21,53.8,13.62,92,12.41,113.49-3.58l-.86-1.16c-38,28.25-131.13,8.62-269.3-56.77C40.13,361.58-54.22,302.84-55.16,302.26Z"/><path class="cls-67" d="M-61.36,310.76l-.71,1.15c.94.58,95.47,59.27,200.16,108.74,61.5,29.07,114.42,49.32,157.3,60.19,53.76,13.63,91.86,12.48,113.26-3.43l-.81-1.08c-37.83,28.12-130.9,8.45-269.17-56.9C34.06,370-60.41,311.35-61.36,310.76Z"/><path class="cls-68" d="M-67.55,319.27l-.67,1.06c1,.59,95.59,59.18,200.33,108.61,61.54,29,114.47,49.28,157.33,60.17,53.71,13.65,91.74,12.55,113-3.27l-.75-1c-37.65,28-130.68,8.27-269-57C28,378.41-66.61,319.85-67.55,319.27Z"/><path class="cls-69" d="M-73.75,327.77l-.61,1c.94.59,95.71,59.09,200.5,108.47,61.57,29,114.51,49.25,157.34,60.15C337.16,511,375.1,510,396.25,494.27l-.69-.93c-20.86,15.5-58.47,16.48-111.79,2.91-42.76-10.88-95.63-31.09-157.13-60.07C21.9,386.82-72.8,328.36-73.75,327.77Z"/><path class="cls-70" d="M-79.94,336.28l-.56.91c.94.58,95.82,59,200.67,108.33,61.6,29,114.54,49.22,157.35,60.13,53.64,13.68,91.5,12.69,112.53-2.95l-.64-.86c-20.76,15.43-58.31,16.36-111.62,2.78-42.74-10.9-95.62-31.11-157.15-60.06C15.84,395.24-79,336.86-79.94,336.28Z"/><path class="cls-71" d="M-86.14,344.78l-.51.83c1,.59,95.94,58.91,200.85,108.2,61.63,29,114.58,49.19,157.37,60.11,53.6,13.69,91.38,12.75,112.29-2.79l-.59-.79c-20.66,15.36-58.16,16.25-111.46,2.64-42.73-10.92-95.61-31.12-157.18-60.05C9.77,403.66-85.19,345.36-86.14,344.78Z"/><path class="cls-72" d="M-92.33,353.28l-.46.76c.94.58,96.06,58.82,201,108.06,61.66,28.94,114.61,49.15,157.38,60.1,53.56,13.7,91.26,12.81,112.05-2.64l-.53-.72c-20.57,15.29-58,16.13-111.3,2.5-42.71-10.93-95.61-31.13-157.22-60C3.69,412.07-91.38,353.87-92.33,353.28Z"/><path class="cls-73" d="M-98.52,361.79l-.42.68c1,.58,96.18,58.72,201.2,107.93,61.7,28.9,114.65,49.11,157.39,60.07,53.52,13.72,91.14,12.88,111.81-2.49l-.47-.63c-20.47,15.21-57.86,16-111.14,2.35-42.7-11-95.6-31.14-157.25-60C-2.38,420.49-97.58,362.37-98.52,361.79Z"/><path class="cls-74" d="M-104.72,370.3l-.37.59c1,.58,96.3,58.64,201.38,107.8C158,507.56,211,527.77,253.7,538.74c53.48,13.73,91,13,111.57-2.33l-.42-.56c-20.38,15.14-57.71,15.89-111,2.21-42.68-11-95.59-31.15-157.28-60C-8.45,428.91-103.77,370.87-104.72,370.3Z"/><path class="cls-75" d="M-110.91,378.8l-.32.52c1,.58,96.42,58.54,201.55,107.66,61.76,28.85,114.72,49,157.42,60,53.44,13.75,90.9,13,111.33-2.17l-.37-.49c-20.27,15.08-57.55,15.77-110.81,2.07-42.66-11-95.58-31.16-157.31-60C-14.52,437.33-110,379.38-110.91,378.8Z"/></g><path class="cls-2" d="M159.38,501.17A127.1,127.1,0,0,0,192,512.79c28.18,5.91,57.66,3,85.51-4.38,49.68-13.12,95-40,134.05-73.42,41.67-35.6,77.68-80.46,91.63-133.46s2.22-114.85-38.58-151.45a123.48,123.48,0,0,0-66.1-30.3c-22.13-2.86-45.86.83-63.69,14.25-23,17.32-32.23,46.93-41.43,74.23-13.61,40.36-30.09,80-52.85,116C213.74,366.65,178,403.55,133,426.47c-18.84,9.6-24.79,22.45-12.14,41.14C130.52,481.9,144,493.17,159.38,501.17Z"/></g><path class="cls-76" d="M129.85,359.39C109.21,374,84.52,382.28,59.6,388.71c-11.83,3.05-24.84,6.58-31.63,16.73-6.17,9.2-5.28,21.87,0,31.62s14.24,17,23.72,22.71c22.05,13.36,47.5,19.92,72.77,25,19.14,3.85,38.59,7,58.1,6.32s39.25-5.32,55.61-16c28.34-18.49,42.94-52.55,48-86,3.35-22.06,3.24-44.43,3.28-66.68,0-22.4-.17-43.28-4.34-65.42-1.65-8.79-4-18-10.24-24.36-8.23-8.39-21.76-9.84-32.87-6s-20.17,12-27.85,20.94c-23.7,27.47-38,61.49-60.7,89.75A115.49,115.49,0,0,1,129.85,359.39Z"/><g class="cls-25"><ellipse class="cls-77" cx="104.12" cy="371.66" rx="101.8" ry="68.06" transform="translate(-211.14 148.99) rotate(-39.12)"/></g><path class="cls-78" d="M496.88,84.8c-1.07-5.67-3.43-11-7.6-14.87-8.25-7.73-21.56-7.78-31.79-3-15,7-23.77,21.72-34.87,33.29-12.53,13.05-34.57,14.17-43.85,30.5-5.71,10.06-3.7,22.74.25,33.61,6.53,18,17.71,33.81,29.55,48.8,18.12,22.94,39.18,44.83,69.6,48.81,6.63.87,13.91.73,19.28-3.27,6.12-4.55,8.09-13.11,6.85-20.63s-5.15-14.3-8.91-20.93c-7.71-13.56-15.34-27.83-16.29-43.4-1.59-26.32,16.09-50.22,18.31-76.5A47.12,47.12,0,0,0,496.88,84.8Z"/><g class="cls-25"><ellipse class="cls-79" cx="117.18" cy="185.03" rx="194.35" ry="112.49" transform="translate(-100.67 207.6) rotate(-63.57)"/></g><g class="cls-25"><ellipse class="cls-80" cx="117.18" cy="295.33" rx="194.35" ry="112.49" transform="translate(-199.44 268.81) rotate(-63.57)"/></g><path class="cls-81" d="M118.79-21.71C162.9-35.47,214-37,246,2.5c20.74,25.57,24.07,65.22,4.4,91.61-14.63,19.62-38.77,29.76-55.82,47.32-22,22.65-30.08,55.55-31.55,87.1s2.76,63.14,1.26,94.68c-.66,13.85-2.58,28.11-9.69,40-6.76,11.33-17.69,19.58-29.17,26.07-11.13,6.3-23.43,11.3-36.21,11.28-11.6,0-22.93-4.24-32.63-10.6-26.63-17.45-40.22-49.3-46.62-80.5-6.34-30.9-5.64-64.12-15.71-94.13-10.62-31.64-30.73-60.26-52.74-85-11.73-13.18-23.34-27.06-29.33-43.65S-93.21,50.06-82,36.47c6.15-7.43,14.9-12.34,24-15.49,20.28-7,42.34-6,63.64-8.71C45.1,7.31,81.18-10,118.79-21.71Z"/><path class="cls-82" d="M136,451.19h0a5.35,5.35,0,0,0,7.46-1.24l51.18-71.7a5.35,5.35,0,0,0-1.24-7.46h0A5.34,5.34,0,0,0,186,372l-51.19,71.69A5.35,5.35,0,0,0,136,451.19Z"/><path class="cls-83" d="M422.88,357.55h0a5.35,5.35,0,0,0,7.46-1.24L467,305a5.35,5.35,0,0,0-1.25-7.46h0a5.35,5.35,0,0,0-7.46,1.24l-36.65,51.35A5.35,5.35,0,0,0,422.88,357.55Z"/><circle class="cls-84" cx="308.58" cy="465.97" r="12.08" transform="translate(-215.98 658.81) rotate(-76.67)"/><path class="cls-85" d="M345.27,361.71a5.68,5.68,0,1,1,5.68,5.68A5.68,5.68,0,0,1,345.27,361.71Z"/><path class="cls-86" d="M71.07,308.29A5.68,5.68,0,1,1,76.75,314,5.69,5.69,0,0,1,71.07,308.29Z"/><circle class="cls-87" cx="348.74" cy="440.31" r="8.09"/><circle class="cls-88" cx="406.04" cy="89.05" r="8.09"/><path class="cls-89" d="M399.14,355.12h0a2.84,2.84,0,0,1-.66-4l92.41-129.45a2.84,2.84,0,0,1,4-.66h0a2.85,2.85,0,0,1,.66,4L403.1,354.46A2.84,2.84,0,0,1,399.14,355.12Z"/><path class="cls-90" d="M127.82,309.44h0a2.84,2.84,0,0,1-.66-4L219.57,176a2.83,2.83,0,0,1,4-.66h0a2.84,2.84,0,0,1,.67,4L131.78,308.78A2.84,2.84,0,0,1,127.82,309.44Z"/><g class="cls-91"><path class="cls-3" d="M330.62,174.7c25.58,20.32,44.82,47.94,61.83,76.52,8.07,13.57,17.15,28.43,32.21,33.19,13.65,4.31,29-1.39,39.23-11.45s15.89-23.82,19.58-37.65c8.59-32.2,7.51-66.15,4.67-99.35-2.15-25.14-5.32-50.4-13.21-74.37S454.11,14.82,435-1.6C401.75-30.06,354.2-35.84,310.86-30,282.28-26.19,254.57-17.95,227-9.93,199.14-1.86,173.31,6,147.36,19.14c-10.3,5.24-20.86,11.46-26.51,21.54-7.43,13.25-4.33,30.55,4.42,43s22.25,20.67,36.07,27C204,130.06,251.4,135.53,294.68,153.4A148.85,148.85,0,0,1,330.62,174.7Z"/><g class="cls-92"><path class="cls-93" d="M119.37,31.9a4.22,4.22,0,1,1,6,.4A4.23,4.23,0,0,1,119.37,31.9Zm1.25,21a4.2,4.2,0,1,0-5.92-.39A4.19,4.19,0,0,0,120.62,52.91Zm-2.36,10.3a4.17,4.17,0,1,0-5.88-.39A4.17,4.17,0,0,0,118.26,63.21ZM116,73.57a4.22,4.22,0,1,0-6-.4A4.23,4.23,0,0,0,116,73.57Zm19.64-39a4.14,4.14,0,1,0-5.84-.39A4.14,4.14,0,0,0,135.59,34.58Zm-2.33,10.34a4.16,4.16,0,1,0-5.88-.39A4.16,4.16,0,0,0,133.26,44.92ZM130.9,55.21a4.13,4.13,0,1,0-5.84-.39A4.14,4.14,0,0,0,130.9,55.21Zm-2.33,10.34a4.16,4.16,0,1,0-5.87-.39A4.17,4.17,0,0,0,128.57,65.55Zm-2.38,10.27a4.11,4.11,0,1,0-5.79-.38A4.1,4.1,0,0,0,126.19,75.82Zm-2.36,10.3a4.08,4.08,0,1,0-5.76-.38A4.09,4.09,0,0,0,123.83,86.12Zm24.4-59.54a4.11,4.11,0,1,0-5.8-.38A4.09,4.09,0,0,0,148.23,26.58Zm-2.36,10.3a4.08,4.08,0,1,0-5.76-.38A4.09,4.09,0,0,0,145.87,36.88ZM143.52,47.2a4.08,4.08,0,1,0-5.75-.39A4.07,4.07,0,0,0,143.52,47.2Zm-2.38,10.27a4,4,0,1,0-5.67-.38A4,4,0,0,0,141.14,57.47Zm-2.31,10.36a4.08,4.08,0,1,0-5.75-.38A4.08,4.08,0,0,0,138.83,67.83Zm-2.36,10.29a4,4,0,1,0-5.71-.38A4,4,0,0,0,136.47,78.12Zm-2.33,10.34a4.07,4.07,0,1,0-5.75-.38A4.07,4.07,0,0,0,134.14,88.46Zm-2.38,10.27a4,4,0,1,0-5.67-.37A4,4,0,0,0,131.76,98.73ZM163.2,8.25a4,4,0,1,0-5.72-.38A4,4,0,0,0,163.2,8.25Zm-2.35,10.32a4.05,4.05,0,1,0-5.71-.38A4.06,4.06,0,0,0,160.85,18.57Zm-2.38,10.27a4,4,0,1,0-5.63-.37A4,4,0,0,0,158.47,28.84ZM156.16,39.2a4,4,0,1,0-5.71-.38A4,4,0,0,0,156.16,39.2Zm-2.38,10.27a4,4,0,1,0-5.63-.37A4,4,0,0,0,153.78,49.47Zm-2.36,10.3a4,4,0,1,0-5.59-.37A4,4,0,0,0,151.42,59.77Zm-2.35,10.31a4,4,0,1,0-5.59-.37A3.95,3.95,0,0,0,149.07,70.08Zm-2.36,10.3a3.93,3.93,0,1,0-5.55-.37A3.94,3.94,0,0,0,146.71,80.38ZM144.4,90.74a4,4,0,1,0-5.63-.37A4,4,0,0,0,144.4,90.74ZM142,101a4,4,0,1,0-5.59-.37A3.95,3.95,0,0,0,142,101Zm31.45-90.46a4,4,0,1,0-5.67-.37A4,4,0,0,0,173.49,10.57Zm-2.36,10.3a4,4,0,1,0-5.63-.38A4,4,0,0,0,171.13,20.87Zm-2.38,10.27a3.93,3.93,0,1,0-5.55-.37A3.94,3.94,0,0,0,168.75,31.14ZM166.4,41.46a3.93,3.93,0,1,0-5.54-.37A3.93,3.93,0,0,0,166.4,41.46ZM164,51.75a3.9,3.9,0,1,0-5.51-.36A3.9,3.9,0,0,0,164,51.75Zm-2.33,10.34a3.93,3.93,0,1,0-5.54-.37A3.93,3.93,0,0,0,161.71,62.09Zm-2.36,10.29a3.9,3.9,0,1,0-5.51-.36A3.9,3.9,0,0,0,159.35,72.38ZM157,82.72a3.93,3.93,0,1,0-5.55-.36A3.93,3.93,0,0,0,157,82.72ZM154.64,93a3.87,3.87,0,1,0-5.46-.37A3.89,3.89,0,0,0,154.64,93Zm-2.36,10.29a3.84,3.84,0,1,0-5.42-.36A3.84,3.84,0,0,0,152.28,103.29ZM150,113.63a3.87,3.87,0,1,0-5.46-.36A3.87,3.87,0,0,0,150,113.63ZM186.1,2.53A3.93,3.93,0,0,0,186.47-3a3.93,3.93,0,0,0-5.55-.37,3.93,3.93,0,0,0-.37,5.55A3.94,3.94,0,0,0,186.1,2.53Zm-2.35,10.32a3.93,3.93,0,1,0-5.54-.37A3.93,3.93,0,0,0,183.75,12.85Zm-2.38,10.27a3.87,3.87,0,1,0-5.46-.36A3.86,3.86,0,0,0,181.37,23.12ZM179,33.46a3.9,3.9,0,1,0-5.5-.36A3.89,3.89,0,0,0,179,33.46Zm-2.36,10.3a3.87,3.87,0,1,0-5.46-.37A3.88,3.88,0,0,0,176.68,43.76Zm-2.36,10.29a3.84,3.84,0,1,0-5.43-.36A3.84,3.84,0,0,0,174.32,54.05ZM172,64.37a3.84,3.84,0,1,0-5.42-.36A3.84,3.84,0,0,0,172,64.37Zm-2.38,10.27a3.78,3.78,0,1,0-5.34-.35A3.78,3.78,0,0,0,169.59,74.64ZM167.28,85a3.84,3.84,0,1,0-5.42-.36A3.83,3.83,0,0,0,167.28,85Zm-2.36,10.3a3.81,3.81,0,1,0-5.38-.36A3.82,3.82,0,0,0,164.92,95.3Zm-2.32,10.34a3.85,3.85,0,1,0-5.43-.37A3.87,3.87,0,0,0,162.6,105.64Zm-2.39,10.27a3.78,3.78,0,1,0-5.34-.36A3.78,3.78,0,0,0,160.21,115.91ZM198.72-5.48a3.88,3.88,0,0,0,.36-5.47,3.87,3.87,0,0,0-5.46-.36,3.88,3.88,0,0,0-.37,5.46A3.88,3.88,0,0,0,198.72-5.48ZM196.39,4.86a3.9,3.9,0,1,0-5.5-.37A3.9,3.9,0,0,0,196.39,4.86ZM194,15.15a3.87,3.87,0,1,0-5.46-.36A3.87,3.87,0,0,0,194,15.15Zm-2.38,10.27a3.82,3.82,0,1,0-5.38-.35A3.82,3.82,0,0,0,191.65,25.42ZM189.3,35.74a3.81,3.81,0,1,0-5.38-.36A3.81,3.81,0,0,0,189.3,35.74ZM186.94,46a3.79,3.79,0,1,0-5.34-.36A3.79,3.79,0,0,0,186.94,46ZM184.6,56.35a3.78,3.78,0,1,0-5.35-.35A3.78,3.78,0,0,0,184.6,56.35Zm-2.37,10.3a3.76,3.76,0,1,0-5.3-.36A3.75,3.75,0,0,0,182.23,66.65Zm-2.36,10.29a3.73,3.73,0,1,0-5.26-.35A3.73,3.73,0,0,0,179.87,76.94Zm-2.35,10.32a3.72,3.72,0,1,0-5.25-.35A3.72,3.72,0,0,0,177.52,87.26Zm-2.36,10.29a3.7,3.7,0,1,0-5.22-.34A3.69,3.69,0,0,0,175.16,97.55Zm-2.31,10.36a3.75,3.75,0,1,0-5.29-.35A3.76,3.76,0,0,0,172.85,107.91Zm-2.36,10.3a3.73,3.73,0,1,0-5.26-.35A3.72,3.72,0,0,0,170.49,118.21ZM209-3.18a3.82,3.82,0,0,0,.36-5.38A3.82,3.82,0,0,0,204-8.92a3.81,3.81,0,0,0-.35,5.38A3.8,3.8,0,0,0,209-3.18ZM206.65,7.13a3.81,3.81,0,1,0-5.38-.35A3.8,3.8,0,0,0,206.65,7.13Zm-2.38,10.28a3.76,3.76,0,1,0-5.3-.35A3.75,3.75,0,0,0,204.27,17.41Zm-2.33,10.34a3.78,3.78,0,1,0-5.34-.36A3.78,3.78,0,0,0,201.94,27.75ZM199.58,38a3.76,3.76,0,1,0-5.3-.35A3.75,3.75,0,0,0,199.58,38ZM197.2,48.31A3.7,3.7,0,1,0,192,48,3.7,3.7,0,0,0,197.2,48.31Zm-2.35,10.32a3.7,3.7,0,1,0-5.21-.35A3.69,3.69,0,0,0,194.85,58.63Zm-2.36,10.29a3.66,3.66,0,1,0-5.17-.34A3.66,3.66,0,0,0,192.49,68.92Zm-2.32,10.34a3.7,3.7,0,1,0-5.22-.34A3.69,3.69,0,0,0,190.17,79.26Zm-2.37,10.3a3.67,3.67,0,1,0-5.17-.35A3.67,3.67,0,0,0,187.8,89.56Zm-2.36,10.29a3.64,3.64,0,1,0-5.14-.34A3.64,3.64,0,0,0,185.44,99.85Zm-2.35,10.32a3.64,3.64,0,1,0-5.13-.34A3.62,3.62,0,0,0,183.09,110.17Zm-2.36,10.29a3.61,3.61,0,1,0-5.09-.33A3.61,3.61,0,0,0,180.73,120.46ZM221.64-11.18a3.78,3.78,0,0,0,.35-5.34,3.78,3.78,0,0,0-5.34-.35,3.78,3.78,0,0,0-.35,5.34A3.78,3.78,0,0,0,221.64-11.18ZM219.29-.86a3.78,3.78,0,0,0,.36-5.34,3.78,3.78,0,0,0-5.34-.35A3.79,3.79,0,0,0,214-1.21,3.78,3.78,0,0,0,219.29-.86ZM216.93,9.43a3.76,3.76,0,1,0-5.3-.35A3.74,3.74,0,0,0,216.93,9.43Zm-2.38,10.28a3.7,3.7,0,1,0-5.22-.35A3.7,3.7,0,0,0,214.55,19.71ZM212.2,30a3.7,3.7,0,1,0-5.21-.34A3.68,3.68,0,0,0,212.2,30ZM209.82,40.3a3.64,3.64,0,1,0-5.13-.34A3.64,3.64,0,0,0,209.82,40.3ZM207.5,50.64a3.67,3.67,0,1,0-5.18-.35A3.68,3.68,0,0,0,207.5,50.64Zm-2.37,10.29a3.64,3.64,0,1,0-5.13-.34A3.63,3.63,0,0,0,205.13,60.93ZM202.75,71.2a3.58,3.58,0,1,0-5.05-.33A3.57,3.57,0,0,0,202.75,71.2ZM200.4,81.52a3.58,3.58,0,1,0-5.05-.34A3.58,3.58,0,0,0,200.4,81.52ZM198,91.81a3.55,3.55,0,1,0-5-.33A3.54,3.54,0,0,0,198,91.81Zm-2.3,10.36a3.61,3.61,0,1,0-5.1-.33A3.61,3.61,0,0,0,195.74,102.17Zm-2.37,10.3a3.58,3.58,0,1,0-5.05-.34A3.58,3.58,0,0,0,193.37,112.47Zm-2.32,10.34a3.61,3.61,0,1,0-5.1-.34A3.61,3.61,0,0,0,191.05,122.81ZM231.9-8.9a3.69,3.69,0,0,0,.34-5.21,3.68,3.68,0,0,0-5.21-.35,3.7,3.7,0,0,0-.35,5.22A3.7,3.7,0,0,0,231.9-8.9ZM229.55,1.42a3.7,3.7,0,0,0,.35-5.22,3.7,3.7,0,0,0-5.22-.34,3.69,3.69,0,0,0-.34,5.21A3.69,3.69,0,0,0,229.55,1.42Zm-2.36,10.29a3.67,3.67,0,1,0-5.17-.34A3.66,3.66,0,0,0,227.19,11.71ZM224.85,22a3.67,3.67,0,1,0-5.18-.34A3.67,3.67,0,0,0,224.85,22ZM222.46,32.3a3.61,3.61,0,1,0-5.09-.34A3.61,3.61,0,0,0,222.46,32.3ZM220.1,42.6a3.58,3.58,0,1,0-5-.34A3.57,3.57,0,0,0,220.1,42.6Zm-2.35,10.31a3.58,3.58,0,1,0-5.05-.33A3.58,3.58,0,0,0,217.75,52.91Zm-2.36,10.3a3.55,3.55,0,1,0-5-.33A3.54,3.54,0,0,0,215.39,63.21Zm-2.34,10.32a3.55,3.55,0,1,0-5-.34A3.56,3.56,0,0,0,213.05,73.53Zm-2.37,10.29a3.52,3.52,0,1,0-5-.33A3.52,3.52,0,0,0,210.68,83.82Zm-2.36,10.29a3.49,3.49,0,1,0-4.93-.32A3.48,3.48,0,0,0,208.32,94.11ZM206,104.43a3.49,3.49,0,1,0-4.92-.33A3.49,3.49,0,0,0,206,104.43Zm-2.36,10.3a3.46,3.46,0,1,0-4.88-.33A3.47,3.47,0,0,0,203.61,114.73Zm-2.3,10.36a3.52,3.52,0,1,0-5-.33A3.53,3.53,0,0,0,201.31,125.09Zm43.23-142a3.67,3.67,0,0,0,.34-5.18,3.66,3.66,0,0,0-5.17-.34,3.66,3.66,0,0,0-.35,5.17A3.67,3.67,0,0,0,244.54-16.89ZM242.21-6.55a3.69,3.69,0,0,0,.35-5.22,3.7,3.7,0,0,0-5.22-.35A3.7,3.7,0,0,0,237-6.9,3.69,3.69,0,0,0,242.21-6.55ZM239.83,3.72a3.63,3.63,0,0,0,.34-5.13,3.64,3.64,0,1,0-.34,5.13ZM237.45,14a3.58,3.58,0,1,0-5-.33A3.57,3.57,0,0,0,237.45,14ZM235.1,24.31a3.58,3.58,0,1,0-5-.34A3.58,3.58,0,0,0,235.1,24.31Zm-2.38,10.27a3.52,3.52,0,1,0-5-.33A3.53,3.53,0,0,0,232.72,34.58ZM230.4,44.92a3.55,3.55,0,1,0-5-.33A3.56,3.56,0,0,0,230.4,44.92ZM228,55.19a3.49,3.49,0,1,0-4.92-.33A3.48,3.48,0,0,0,228,55.19Zm-2.36,10.3a3.46,3.46,0,1,0-4.89-.33A3.47,3.47,0,0,0,225.65,65.49ZM223.31,75.8a3.47,3.47,0,1,0-4.89-.32A3.46,3.46,0,0,0,223.31,75.8Zm-2.37,10.3a3.43,3.43,0,1,0-4.84-.32A3.44,3.44,0,0,0,220.94,86.1Zm-2.32,10.34a3.46,3.46,0,1,0-4.89-.33A3.47,3.47,0,0,0,218.62,96.44Zm-2.37,10.29a3.43,3.43,0,1,0-4.84-.32A3.42,3.42,0,0,0,216.25,106.73ZM213.89,117a3.41,3.41,0,1,0-4.8-.32A3.41,3.41,0,0,0,213.89,117Zm-2.33,10.33a3.43,3.43,0,1,0-4.84-.32A3.43,3.43,0,0,0,211.56,127.36Zm-2.38,10.28a3.37,3.37,0,1,0-4.76-.32A3.38,3.38,0,0,0,209.18,137.64ZM254.82-14.59a3.61,3.61,0,0,0,.34-5.09,3.61,3.61,0,0,0-5.1-.34,3.6,3.6,0,0,0-.33,5.09A3.61,3.61,0,0,0,254.82-14.59ZM252.47-4.28a3.61,3.61,0,0,0,.34-5.09,3.61,3.61,0,0,0-5.09-.34,3.62,3.62,0,0,0-.34,5.1A3.6,3.6,0,0,0,252.47-4.28ZM250.09,6a3.55,3.55,0,1,0-5-.34A3.55,3.55,0,0,0,250.09,6Zm-2.34,10.31a3.55,3.55,0,1,0-5-.33A3.56,3.56,0,0,0,247.75,16.31Zm-2.39,10.28a3.49,3.49,0,1,0-4.92-.33A3.5,3.5,0,0,0,245.36,26.59ZM243,36.86a3.43,3.43,0,1,0-4.84-.32A3.44,3.44,0,0,0,243,36.86Zm-2.34,10.32a3.44,3.44,0,1,0-4.85-.33A3.44,3.44,0,0,0,240.64,47.18Zm-2.37,10.29a3.4,3.4,0,1,0-4.8-.32A3.39,3.39,0,0,0,238.27,57.47ZM236,67.81a3.43,3.43,0,1,0-4.85-.32A3.43,3.43,0,0,0,236,67.81ZM233.58,78.1a3.4,3.4,0,1,0-4.8-.32A3.39,3.39,0,0,0,233.58,78.1ZM231.2,88.38a3.35,3.35,0,1,0-4.72-.32A3.34,3.34,0,0,0,231.2,88.38Zm-2.31,10.36a3.4,3.4,0,1,0-4.8-.32A3.41,3.41,0,0,0,228.89,98.74ZM226.49,109a3.31,3.31,0,1,0-4.68-.31A3.31,3.31,0,0,0,226.49,109Zm-2.3,10.36a3.38,3.38,0,1,0-4.76-.32A3.37,3.37,0,0,0,224.19,119.35Zm-2.37,10.29a3.34,3.34,0,1,0-4.72-.31A3.35,3.35,0,0,0,221.82,129.64ZM267.46-22.59a3.57,3.57,0,0,0,.33-5.05,3.58,3.58,0,0,0-5.05-.33,3.59,3.59,0,0,0-.33,5A3.58,3.58,0,0,0,267.46-22.59Zm-2.35,10.32a3.58,3.58,0,0,0,.34-5.05,3.58,3.58,0,0,0-5.05-.34,3.58,3.58,0,0,0-.34,5.05A3.58,3.58,0,0,0,265.11-12.27ZM262.73-2a3.53,3.53,0,0,0,.33-5,3.53,3.53,0,0,0-5-.33,3.53,3.53,0,0,0-.33,5A3.52,3.52,0,0,0,262.73-2ZM260.35,8.27A3.46,3.46,0,1,0,255.46,8,3.45,3.45,0,0,0,260.35,8.27ZM258,18.59a3.46,3.46,0,1,0-4.88-.32A3.45,3.45,0,0,0,258,18.59Zm-2.38,10.27a3.4,3.4,0,1,0-4.8-.32A3.39,3.39,0,0,0,255.62,28.86ZM253.3,39.2a3.43,3.43,0,1,0-4.85-.32A3.43,3.43,0,0,0,253.3,39.2Zm-2.39,10.28a3.37,3.37,0,1,0-4.76-.32A3.38,3.38,0,0,0,250.91,49.48Zm-2.38,10.27a3.32,3.32,0,1,0-4.68-.31A3.31,3.31,0,0,0,248.53,59.75Zm-2.34,10.31a3.31,3.31,0,1,0-4.68-.31A3.32,3.32,0,0,0,246.19,70.06Zm-2.37,10.3a3.29,3.29,0,1,0-4.63-.31A3.28,3.28,0,0,0,243.82,80.36ZM241.5,90.7a3.32,3.32,0,1,0-4.68-.31A3.32,3.32,0,0,0,241.5,90.7ZM239.13,101a3.28,3.28,0,1,0-4.63-.31A3.27,3.27,0,0,0,239.13,101Zm-2.36,10.3a3.26,3.26,0,1,0-4.59-.31A3.27,3.27,0,0,0,236.77,111.29Zm-2.31,10.36a3.31,3.31,0,1,0-4.67-.31A3.32,3.32,0,0,0,234.46,121.65Zm-2.4,10.25a3.23,3.23,0,1,0-4.55-.3A3.23,3.23,0,0,0,232.06,131.9Zm-2.3,10.36a3.29,3.29,0,1,0-4.64-.31A3.29,3.29,0,0,0,229.76,142.26Zm48-162.57a3.5,3.5,0,0,0,.33-4.93,3.5,3.5,0,0,0-4.93-.32,3.48,3.48,0,0,0-.33,4.92A3.5,3.5,0,0,0,277.72-20.31ZM275.37-10a3.5,3.5,0,0,0,.33-4.93,3.5,3.5,0,0,0-4.93-.33,3.5,3.5,0,0,0-.32,4.93A3.48,3.48,0,0,0,275.37-10ZM273,.28a3.42,3.42,0,0,0,.32-4.84,3.43,3.43,0,0,0-4.84-.33A3.44,3.44,0,0,0,268.15,0,3.42,3.42,0,0,0,273,.28ZM270.65,10.6a3.44,3.44,0,1,0-4.85-.32A3.44,3.44,0,0,0,270.65,10.6Zm-2.37,10.29a3.4,3.4,0,1,0-4.8-.32A3.39,3.39,0,0,0,268.28,20.89ZM265.9,31.16a3.34,3.34,0,1,0-4.72-.31A3.33,3.33,0,0,0,265.9,31.16Zm-2.34,10.32a3.34,3.34,0,1,0-4.72-.31A3.34,3.34,0,0,0,263.56,41.48Zm-2.39,10.27a3.28,3.28,0,1,0-4.63-.3A3.27,3.27,0,0,0,261.17,51.75Zm-2.32,10.34a3.32,3.32,0,1,0-4.68-.31A3.32,3.32,0,0,0,258.85,62.09Zm-2.39,10.27a3.26,3.26,0,1,0-4.59-.3A3.25,3.25,0,0,0,256.46,72.36Zm-2.36,10.3a3.23,3.23,0,1,0-4.55-.3A3.22,3.22,0,0,0,254.1,82.66ZM251.78,93a3.26,3.26,0,1,0-4.6-.31A3.26,3.26,0,0,0,251.78,93Zm-2.39,10.27a3.2,3.2,0,1,0-4.51-.3A3.19,3.19,0,0,0,249.39,103.27Zm-2.32,10.34a3.23,3.23,0,1,0-4.56-.3A3.23,3.23,0,0,0,247.07,113.61ZM244.7,123.9a3.2,3.2,0,1,0-4.51-.3A3.19,3.19,0,0,0,244.7,123.9Zm-2.36,10.3a3.17,3.17,0,1,0-4.47-.3A3.17,3.17,0,0,0,242.34,134.2Zm48-162.48a3.5,3.5,0,0,0,.33-4.93,3.5,3.5,0,0,0-4.93-.32,3.48,3.48,0,0,0-.33,4.92A3.5,3.5,0,0,0,290.38-28.28ZM288-18a3.43,3.43,0,0,0,.32-4.84,3.44,3.44,0,0,0-4.85-.32,3.43,3.43,0,0,0-.32,4.84A3.44,3.44,0,0,0,288-18ZM285.65-7.69a3.44,3.44,0,0,0,.32-4.85,3.43,3.43,0,0,0-4.84-.32A3.44,3.44,0,0,0,280.81-8,3.43,3.43,0,0,0,285.65-7.69ZM283.27,2.58a3.38,3.38,0,0,0,.32-4.76,3.39,3.39,0,0,0-4.77-.32,3.37,3.37,0,0,0-.31,4.76A3.36,3.36,0,0,0,283.27,2.58ZM280.92,12.9a3.37,3.37,0,1,0-4.76-.32A3.36,3.36,0,0,0,280.92,12.9Zm-2.38,10.27a3.32,3.32,0,1,0-4.68-.31A3.31,3.31,0,0,0,278.54,23.17ZM276.2,33.49a3.32,3.32,0,1,0-4.68-.31A3.33,3.33,0,0,0,276.2,33.49Zm-2.39,10.27a3.26,3.26,0,1,0-4.59-.31A3.26,3.26,0,0,0,273.81,43.76ZM271.43,54a3.2,3.2,0,1,0-4.51-.3A3.2,3.2,0,0,0,271.43,54Zm-2.32,10.34a3.23,3.23,0,1,0-4.56-.3A3.23,3.23,0,0,0,269.11,64.37Zm-2.39,10.27a3.17,3.17,0,1,0-4.47-.29A3.17,3.17,0,0,0,266.72,74.64ZM264.4,85a3.2,3.2,0,1,0-4.51-.3A3.2,3.2,0,0,0,264.4,85ZM262,95.28a3.17,3.17,0,1,0-4.47-.3A3.17,3.17,0,0,0,262,95.28Zm-2.38,10.27a3.11,3.11,0,1,0-4.39-.29A3.12,3.12,0,0,0,259.65,105.55Zm-2.3,10.36a3.17,3.17,0,1,0-4.48-.3A3.17,3.17,0,0,0,257.35,115.91Zm-2.41,10.25a3.08,3.08,0,1,0-4.34-.29A3.08,3.08,0,0,0,254.94,126.16Zm-2.3,10.36a3.14,3.14,0,1,0-4.43-.29A3.14,3.14,0,0,0,252.64,136.52Zm-2.37,10.3a3.11,3.11,0,1,0-4.38-.3A3.11,3.11,0,0,0,250.27,146.82ZM300.64-26a3.42,3.42,0,0,0,.32-4.81,3.41,3.41,0,0,0-4.81-.31,3.4,3.4,0,0,0-.31,4.8A3.41,3.41,0,0,0,300.64-26Zm-2.35,10.31a3.39,3.39,0,0,0,.32-4.8,3.4,3.4,0,0,0-4.8-.32,3.4,3.4,0,0,0-.32,4.8A3.39,3.39,0,0,0,298.29-15.69ZM295.91-5.41a3.34,3.34,0,0,0,.31-4.72,3.35,3.35,0,0,0-4.72-.32,3.34,3.34,0,0,0-.31,4.72A3.35,3.35,0,0,0,295.91-5.41ZM293.53,4.86a3.29,3.29,0,1,0-4.64-.31A3.3,3.3,0,0,0,293.53,4.86Zm-2.35,10.32a3.29,3.29,0,1,0-4.63-.31A3.28,3.28,0,0,0,291.18,15.18ZM288.8,25.45a3.23,3.23,0,1,0-4.55-.3A3.23,3.23,0,0,0,288.8,25.45Zm-2.34,10.31a3.23,3.23,0,1,0-4.56-.3A3.23,3.23,0,0,0,286.46,35.76ZM284.07,46a3.17,3.17,0,1,0-4.47-.3A3.17,3.17,0,0,0,284.07,46Zm-2.32,10.34a3.2,3.2,0,1,0-4.51-.3A3.21,3.21,0,0,0,281.75,56.38Zm-2.39,10.27a3.14,3.14,0,1,0-4.42-.3A3.14,3.14,0,0,0,279.36,66.65ZM277,76.92a3.08,3.08,0,1,0-4.35-.29A3.08,3.08,0,0,0,277,76.92Zm-2.32,10.34a3.11,3.11,0,1,0-4.39-.29A3.12,3.12,0,0,0,274.66,87.26Zm-2.39,10.27a3.05,3.05,0,1,0-4.3-.28A3,3,0,0,0,272.27,97.53ZM270,107.87a3.08,3.08,0,1,0-4.35-.29A3.08,3.08,0,0,0,270,107.87Zm-2.36,10.3a3.05,3.05,0,1,0-4.31-.29A3.06,3.06,0,0,0,267.59,118.17Zm-2.37,10.29a3,3,0,1,0-4.26-.28A3,3,0,0,0,265.22,128.46Zm-2.3,10.36a3.08,3.08,0,1,0-4.35-.29A3.08,3.08,0,0,0,262.92,138.82Zm-2.41,10.25a3,3,0,1,0-4.22-.28A3,3,0,0,0,260.51,149.07ZM310.9-23.72a3.33,3.33,0,0,0,.31-4.68,3.31,3.31,0,0,0-4.68-.31,3.3,3.3,0,0,0-.31,4.67A3.32,3.32,0,0,0,310.9-23.72Zm-2.33,10.33a3.35,3.35,0,0,0,.32-4.72,3.34,3.34,0,0,0-4.72-.31,3.35,3.35,0,0,0-.32,4.72A3.34,3.34,0,0,0,308.57-13.39Zm-2.4,10.25a3.25,3.25,0,0,0,.3-4.59A3.26,3.26,0,0,0,301.88-8a3.27,3.27,0,0,0-.31,4.6A3.26,3.26,0,0,0,306.17-3.14ZM303.82,7.18a3.25,3.25,0,1,0-4.59-.3A3.25,3.25,0,0,0,303.82,7.18Zm-2.38,10.27a3.2,3.2,0,1,0-4.51-.3A3.2,3.2,0,0,0,301.44,17.45ZM299.1,27.77a3.2,3.2,0,1,0-4.51-.3A3.2,3.2,0,0,0,299.1,27.77Zm-2.37,10.29a3.16,3.16,0,1,0-4.47-.29A3.17,3.17,0,0,0,296.73,38.06Zm-2.4,10.26A3.08,3.08,0,1,0,290,48,3.09,3.09,0,0,0,294.33,48.32ZM292,58.65a3.11,3.11,0,1,0-4.39-.29A3.1,3.1,0,0,0,292,58.65Zm-2.39,10.28a3.05,3.05,0,1,0-4.3-.29A3.05,3.05,0,0,0,289.62,68.93ZM287.3,79.27A3.08,3.08,0,1,0,283,79,3.09,3.09,0,0,0,287.3,79.27Zm-2.38,10.27a3,3,0,1,0-4.27-.29A3,3,0,0,0,284.92,89.54Zm-2.37,10.29a3,3,0,1,0-4.22-.28A3,3,0,0,0,282.55,99.83Zm-2.32,10.34a3,3,0,1,0-4.27-.28A3,3,0,0,0,280.23,110.17Zm-2.39,10.27a3,3,0,1,0-4.18-.27A3,3,0,0,0,277.84,120.44Zm-2.32,10.34a3,3,0,1,0-4.22-.28A3,3,0,0,0,275.52,130.78Zm-2.36,10.3a3,3,0,1,0-4.19-.28A3,3,0,0,0,273.16,141.08ZM323.56-31.7a3.32,3.32,0,0,0,.31-4.68,3.33,3.33,0,0,0-4.68-.31,3.31,3.31,0,0,0-.31,4.68A3.31,3.31,0,0,0,323.56-31.7Zm-2.35,10.32a3.31,3.31,0,0,0,.31-4.68,3.3,3.3,0,0,0-4.67-.31,3.31,3.31,0,0,0-.31,4.68A3.3,3.3,0,0,0,321.21-21.38Zm-2.38,10.27a3.26,3.26,0,0,0,.31-4.59,3.26,3.26,0,0,0-4.6-.31,3.27,3.27,0,0,0-.31,4.6A3.26,3.26,0,0,0,318.83-11.11ZM316.45-.84a3.2,3.2,0,0,0,.3-4.51,3.21,3.21,0,0,0-4.52-.3,3.21,3.21,0,0,0-.3,4.51A3.2,3.2,0,0,0,316.45-.84ZM314.1,9.48a3.2,3.2,0,1,0-4.51-.3A3.19,3.19,0,0,0,314.1,9.48Zm-2.4,10.25a3.11,3.11,0,1,0-4.39-.29A3.11,3.11,0,0,0,311.7,19.73Zm-2.32,10.34a3.14,3.14,0,1,0-4.43-.29A3.14,3.14,0,0,0,309.38,30.07ZM307,40.34a3.08,3.08,0,1,0-4.34-.29A3.07,3.07,0,0,0,307,40.34Zm-2.34,10.32a3.08,3.08,0,1,0-4.35-.29A3.08,3.08,0,0,0,304.65,50.66Zm-2.38,10.27a3,3,0,1,0-4.27-.28A3,3,0,0,0,302.27,60.93ZM299.88,71.2a3,3,0,1,0-4.18-.27A3,3,0,0,0,299.88,71.2Zm-2.32,10.34a3,3,0,1,0-4.23-.28A3,3,0,0,0,297.56,81.54Zm-2.39,10.28a2.93,2.93,0,1,0-4.14-.28A2.93,2.93,0,0,0,295.17,91.82Zm-2.32,10.33a3,3,0,1,0-4.18-.27A3,3,0,0,0,292.85,102.15Zm-2.38,10.28a2.91,2.91,0,1,0-4.1-.28A2.91,2.91,0,0,0,290.47,112.43Zm-2.37,10.29a2.87,2.87,0,1,0-4.05-.27A2.86,2.86,0,0,0,288.1,122.72Zm-2.3,10.36a2.93,2.93,0,1,0-4.14-.27A2.93,2.93,0,0,0,285.8,133.08Zm-2.41,10.25a2.84,2.84,0,1,0-4-.26A2.83,2.83,0,0,0,283.39,143.33Zm-2.3,10.36a2.91,2.91,0,1,0-4.1-.27A2.89,2.89,0,0,0,281.09,153.69ZM333.84-29.4a3.25,3.25,0,0,0,.3-4.59,3.25,3.25,0,0,0-4.59-.31,3.26,3.26,0,0,0-.31,4.6A3.26,3.26,0,0,0,333.84-29.4Zm-2.35,10.32a3.27,3.27,0,0,0,.31-4.6,3.26,3.26,0,0,0-4.6-.3,3.25,3.25,0,0,0-.3,4.59A3.25,3.25,0,0,0,331.49-19.08ZM329.11-8.81a3.2,3.2,0,0,0,.3-4.51,3.2,3.2,0,0,0-4.51-.3,3.19,3.19,0,0,0-.3,4.51A3.19,3.19,0,0,0,329.11-8.81ZM326.76,1.51a3.19,3.19,0,0,0,.3-4.51,3.19,3.19,0,0,0-4.51-.3,3.2,3.2,0,0,0-.3,4.51A3.2,3.2,0,0,0,326.76,1.51Zm-2.4,10.25a3.11,3.11,0,1,0-4.39-.29A3.12,3.12,0,0,0,324.36,11.76ZM322,22a3.05,3.05,0,1,0-4.31-.28A3,3,0,0,0,322,22Zm-2.35,10.32a3.05,3.05,0,1,0-4.3-.29A3.05,3.05,0,0,0,319.63,32.35Zm-2.38,10.27a3,3,0,1,0-4.22-.28A3,3,0,0,0,317.25,42.62Zm-2.34,10.32a3,3,0,1,0-4.23-.28A3,3,0,0,0,314.91,52.94Zm-2.39,10.27a2.93,2.93,0,1,0-4.14-.27A2.93,2.93,0,0,0,312.52,63.21ZM310.2,73.55a3,3,0,1,0-4.18-.28A3,3,0,0,0,310.2,73.55Zm-2.38,10.27a2.91,2.91,0,1,0-4.1-.27A2.92,2.92,0,0,0,307.82,83.82Zm-2.39,10.27a2.85,2.85,0,1,0-4-.26A2.84,2.84,0,0,0,305.43,94.09Zm-2.32,10.34a2.87,2.87,0,1,0-4.06-.27A2.88,2.88,0,0,0,303.11,104.43Zm-2.39,10.28a2.82,2.82,0,1,0-4-.27A2.82,2.82,0,0,0,300.72,114.71ZM298.4,125a2.85,2.85,0,1,0-4-.26A2.85,2.85,0,0,0,298.4,125ZM296,135.34a2.82,2.82,0,1,0-4-.27A2.82,2.82,0,0,0,296,135.34Zm-2.37,10.29a2.79,2.79,0,1,0-3.93-.26A2.78,2.78,0,0,0,293.67,145.63ZM291.37,156a2.85,2.85,0,1,0-4-.26A2.84,2.84,0,0,0,291.37,156ZM346.5-37.37a3.25,3.25,0,0,0,.3-4.59,3.25,3.25,0,0,0-4.59-.31,3.26,3.26,0,0,0-.31,4.6A3.26,3.26,0,0,0,346.5-37.37ZM344.15-27a3.26,3.26,0,0,0,.31-4.6,3.26,3.26,0,0,0-4.6-.3,3.25,3.25,0,0,0-.3,4.59A3.25,3.25,0,0,0,344.15-27Zm-2.38,10.27a3.2,3.2,0,0,0,.3-4.51,3.19,3.19,0,0,0-4.51-.3,3.19,3.19,0,0,0-.3,4.51A3.2,3.2,0,0,0,341.77-16.78Zm-2.4,10.25a3.12,3.12,0,0,0,.29-4.39,3.12,3.12,0,0,0-4.39-.29A3.12,3.12,0,0,0,335-6.82,3.11,3.11,0,0,0,339.37-6.53ZM337,3.79a3.11,3.11,0,1,0-4.39-.29A3.11,3.11,0,0,0,337,3.79ZM334.62,14a3,3,0,1,0-4.26-.29A3,3,0,0,0,334.62,14ZM332.3,24.38a3.05,3.05,0,1,0-4.31-.29A3.06,3.06,0,0,0,332.3,24.38Zm-2.41,10.25a3,3,0,1,0-4.18-.28A3,3,0,0,0,329.89,34.63ZM327.51,44.9a2.91,2.91,0,1,0-4.1-.27A2.9,2.9,0,0,0,327.51,44.9Zm-2.34,10.32a2.91,2.91,0,1,0-3.83-4.37,2.91,2.91,0,0,0,3.83,4.37Zm-2.39,10.27a2.85,2.85,0,1,0-4-.27A2.85,2.85,0,0,0,322.78,65.49Zm-2.32,10.34a2.88,2.88,0,1,0-4.06-.27A2.89,2.89,0,0,0,320.46,75.83ZM318.07,86.1a2.82,2.82,0,1,0-4-.26A2.81,2.81,0,0,0,318.07,86.1Zm-2.32,10.34a2.85,2.85,0,1,0-4-.27A2.86,2.86,0,0,0,315.75,96.44Zm-2.38,10.27a2.79,2.79,0,1,0-3.94-.26A2.79,2.79,0,0,0,313.37,106.71ZM311,117a2.72,2.72,0,1,0-3.85-.25A2.72,2.72,0,0,0,311,117Zm-2.3,10.36a2.79,2.79,0,1,0-3.93-.26A2.79,2.79,0,0,0,308.68,127.34Zm-2.38,10.28a2.73,2.73,0,1,0-3.85-.26A2.73,2.73,0,0,0,306.3,137.62ZM304,148a2.76,2.76,0,1,0-3.89-.26A2.77,2.77,0,0,0,304,148Zm-2.36,10.29a2.73,2.73,0,1,0-3.85-.26A2.73,2.73,0,0,0,301.61,158.25ZM356.77-35.07a3.19,3.19,0,0,0,.3-4.51,3.2,3.2,0,0,0-4.51-.3,3.2,3.2,0,0,0-.3,4.51A3.2,3.2,0,0,0,356.77-35.07Zm-2.34,10.32a3.2,3.2,0,0,0,.3-4.51,3.19,3.19,0,0,0-4.51-.3,3.19,3.19,0,0,0-.3,4.51A3.2,3.2,0,0,0,354.43-24.75ZM352-14.5a3.12,3.12,0,0,0,.29-4.39,3.12,3.12,0,0,0-4.39-.29,3.11,3.11,0,0,0-.29,4.39A3.12,3.12,0,0,0,352-14.5ZM349.68-4.19a3.09,3.09,0,0,0,.3-4.38,3.11,3.11,0,0,0-4.39-.3,3.1,3.1,0,0,0-.29,4.39A3.09,3.09,0,0,0,349.68-4.19Zm-2.4,10.26A3,3,0,1,0,343,5.78,3,3,0,0,0,347.28,6.07ZM344.9,16.34a3,3,0,1,0-4.18-.28A3,3,0,0,0,344.9,16.34Zm-2.35,10.31a3,3,0,1,0-4.18-.27A3,3,0,0,0,342.55,26.65Zm-2.4,10.25a2.87,2.87,0,1,0-3.79-4.32,2.87,2.87,0,1,0,3.79,4.32Zm-2.32,10.34a2.91,2.91,0,1,0-4.1-.27A2.9,2.9,0,0,0,337.83,47.24Zm-2.41,10.25a2.81,2.81,0,1,0-4-.26A2.82,2.82,0,0,0,335.42,57.49ZM333.1,67.83a2.85,2.85,0,1,0-4-.26A2.85,2.85,0,0,0,333.1,67.83Zm-2.38,10.28a2.79,2.79,0,1,0-3.94-.27A2.81,2.81,0,0,0,330.72,78.11Zm-2.39,10.27a2.73,2.73,0,1,0-3.85-.26A2.73,2.73,0,0,0,328.33,88.38ZM326,98.72a2.76,2.76,0,1,0-3.89-.26A2.77,2.77,0,0,0,326,98.72ZM323.63,109a2.7,2.7,0,1,0-3.81-.25A2.7,2.7,0,0,0,323.63,109Zm-2.33,10.34a2.73,2.73,0,1,0-3.85-.26A2.73,2.73,0,0,0,321.3,119.33Zm-2.38,10.27a2.67,2.67,0,1,0-3.77-.25A2.67,2.67,0,0,0,318.92,129.6Zm-2.37,10.3a2.64,2.64,0,1,0-3.72-.25A2.64,2.64,0,0,0,316.55,139.9Zm-2.3,10.36a2.7,2.7,0,1,0-3.81-.26A2.7,2.7,0,0,0,314.25,150.26Zm-2.4,10.25a2.61,2.61,0,1,0-3.69-.25A2.62,2.62,0,0,0,311.85,160.51Zm-2.31,10.36a2.67,2.67,0,1,0-3.77-.25A2.67,2.67,0,0,0,309.54,170.87ZM364.69-22.47a3.12,3.12,0,0,0,.29-4.39,3.11,3.11,0,0,0-4.39-.29,3.1,3.1,0,0,0-.29,4.38A3.11,3.11,0,0,0,364.69-22.47Zm-2.4,10.25a3,3,0,0,0,.28-4.27,3,3,0,0,0-4.26-.28,3,3,0,0,0-.29,4.26A3,3,0,0,0,362.29-12.22ZM359.94-1.91a3,3,0,0,0,.29-4.26A3,3,0,0,0,356-6.45a3,3,0,0,0-.28,4.26A3,3,0,0,0,359.94-1.91ZM357.56,8.37a3,3,0,1,0-4.18-.28A3,3,0,0,0,357.56,8.37Zm-2.35,10.31A3,3,0,1,0,351,18.4,3,3,0,0,0,355.21,18.68Zm-2.4,10.25a2.87,2.87,0,1,0-4.05-.27A2.86,2.86,0,0,0,352.81,28.93ZM350.43,39.2a2.81,2.81,0,1,0-4-.26A2.81,2.81,0,0,0,350.43,39.2Zm-2.34,10.32a2.82,2.82,0,1,0-4-.26A2.82,2.82,0,0,0,348.09,49.52ZM345.7,59.79a2.76,2.76,0,1,0-3.89-.25A2.75,2.75,0,0,0,345.7,59.79Zm-2.34,10.32a2.76,2.76,0,1,0-3.89-.26A2.76,2.76,0,0,0,343.36,70.11ZM341,80.38a2.7,2.7,0,1,0-3.81-.25A2.7,2.7,0,0,0,341,80.38Zm-2.33,10.34a2.72,2.72,0,1,0-3.85-.25A2.73,2.73,0,0,0,338.65,90.72ZM336.27,101a2.67,2.67,0,1,0-3.77-.25A2.66,2.66,0,0,0,336.27,101Zm-2.39,10.28a2.61,2.61,0,1,0-3.68-.25A2.61,2.61,0,0,0,333.88,111.27Zm-2.32,10.34a2.64,2.64,0,1,0-3.73-.25A2.64,2.64,0,0,0,331.56,121.61Zm-2.38,10.27a2.58,2.58,0,1,0-3.65-.24A2.58,2.58,0,0,0,329.18,131.88Zm-2.33,10.34a2.61,2.61,0,1,0-3.68-.25A2.61,2.61,0,0,0,326.85,142.22Zm-2.36,10.29a2.58,2.58,0,1,0-3.65-.24A2.58,2.58,0,0,0,324.49,152.51Zm-2.37,10.3a2.55,2.55,0,1,0-3.6-.24A2.55,2.55,0,0,0,322.12,162.81ZM377.37-30.42a3.14,3.14,0,0,0,.29-4.43,3.14,3.14,0,0,0-4.43-.3,3.15,3.15,0,0,0-.29,4.43A3.14,3.14,0,0,0,377.37-30.42ZM375-20.17a3.06,3.06,0,0,0,.28-4.31,3,3,0,0,0-4.3-.29,3.05,3.05,0,0,0-.29,4.31A3.05,3.05,0,0,0,375-20.17ZM372.6-9.88a3,3,0,0,0,.29-4.26,3,3,0,0,0-4.27-.29,3,3,0,0,0-.28,4.27A3,3,0,0,0,372.6-9.88ZM370.22.39a3,3,0,0,0,.28-4.18,3,3,0,0,0-4.18-.28A3,3,0,0,0,366,.11,3,3,0,0,0,370.22.39Zm-2.4,10.25a2.87,2.87,0,1,0-4.06-.27A2.88,2.88,0,0,0,367.82,10.64ZM365.47,21a2.87,2.87,0,1,0-4.05-.27A2.87,2.87,0,0,0,365.47,21Zm-2.38,10.27a2.82,2.82,0,1,0-4-.26A2.81,2.81,0,0,0,363.09,31.23Zm-2.34,10.32a2.82,2.82,0,1,0-4-.26A2.82,2.82,0,0,0,360.75,41.55ZM358.34,51.8a2.73,2.73,0,1,0-3.85-.26A2.73,2.73,0,0,0,358.34,51.8ZM356,62.07a2.67,2.67,0,1,0-3.77-.25A2.66,2.66,0,0,0,356,62.07Zm-2.34,10.32a2.67,2.67,0,1,0-3.77-.25A2.67,2.67,0,0,0,353.62,72.39Zm-2.39,10.27a2.61,2.61,0,1,0-3.68-.24A2.6,2.6,0,0,0,351.23,82.66ZM348.91,93a2.64,2.64,0,1,0-3.73-.25A2.64,2.64,0,0,0,348.91,93Zm-2.4,10.25a2.55,2.55,0,1,0-3.61-.24A2.56,2.56,0,0,0,346.51,103.25Zm-2.33,10.34a2.58,2.58,0,1,0-3.64-.24A2.58,2.58,0,0,0,344.18,113.59Zm-2.36,10.29a2.55,2.55,0,1,0-3.6-.24A2.55,2.55,0,0,0,341.82,123.88Zm-2.39,10.28a2.49,2.49,0,1,0-3.51-.24A2.49,2.49,0,0,0,339.43,134.16Zm-2.3,10.36a2.55,2.55,0,1,0-3.6-.24A2.55,2.55,0,0,0,337.13,144.52Zm-2.38,10.27a2.49,2.49,0,1,0-3.52-.23A2.5,2.5,0,0,0,334.75,154.79Zm-2.33,10.34a2.52,2.52,0,1,0-3.56-.24A2.52,2.52,0,0,0,332.42,165.13Zm-2.36,10.29a2.49,2.49,0,1,0-3.52-.23A2.5,2.5,0,0,0,330.06,175.42ZM387.65-28.12a3.09,3.09,0,0,0,.29-4.35,3.08,3.08,0,0,0-4.35-.29,3.08,3.08,0,0,0-.29,4.35A3.08,3.08,0,0,0,387.65-28.12ZM385.23-17.9a3,3,0,0,0,.27-4.18,3,3,0,0,0-4.18-.28,3,3,0,0,0-.28,4.19A3,3,0,0,0,385.23-17.9ZM382.88-7.58a3,3,0,0,0,.28-4.18A3,3,0,0,0,379-12a3,3,0,0,0-.28,4.18A3,3,0,0,0,382.88-7.58Zm-2.4,10.25a2.89,2.89,0,0,0,.27-4.06,2.89,2.89,0,0,0-4.06-.27,2.89,2.89,0,0,0-.27,4.06A2.87,2.87,0,0,0,380.48,2.67ZM378.13,13a2.87,2.87,0,1,0-4.05-.27A2.87,2.87,0,0,0,378.13,13Zm-2.38,10.27a2.82,2.82,0,1,0-4-.26A2.82,2.82,0,0,0,375.75,23.26Zm-2.4,10.25a2.73,2.73,0,1,0-3.85-.26A2.73,2.73,0,0,0,373.35,33.51ZM371,43.83a2.73,2.73,0,1,0-3.85-.26A2.73,2.73,0,0,0,371,43.83ZM368.6,54.08a2.64,2.64,0,1,0-3.72-.25A2.64,2.64,0,0,0,368.6,54.08Zm-2.32,10.34a2.67,2.67,0,1,0-3.77-.25A2.67,2.67,0,0,0,366.28,64.42Zm-2.4,10.25a2.59,2.59,0,1,0-3.65-.25A2.59,2.59,0,0,0,363.88,74.67Zm-2.39,10.27a2.52,2.52,0,1,0-3.56-.24A2.52,2.52,0,0,0,361.49,84.94Zm-2.32,10.34a2.55,2.55,0,1,0-3.6-.24A2.55,2.55,0,0,0,359.17,95.28Zm-2.39,10.27a2.49,2.49,0,1,0-3.51-.23A2.49,2.49,0,0,0,356.78,105.55Zm-2.32,10.34a2.52,2.52,0,1,0-3.56-.24A2.53,2.53,0,0,0,354.46,115.89Zm-2.4,10.25a2.43,2.43,0,1,0-3.44-.23A2.45,2.45,0,0,0,352.06,126.14Zm-2.31,10.36a2.49,2.49,0,1,0-3.52-.23A2.5,2.5,0,0,0,349.75,136.5Zm-2.38,10.27a2.43,2.43,0,1,0-3.44-.22A2.43,2.43,0,0,0,347.37,146.77ZM345,157.07a2.4,2.4,0,1,0-3.39-.23A2.41,2.41,0,0,0,345,157.07Zm-2.3,10.36a2.47,2.47,0,1,0-3.48-.23A2.47,2.47,0,0,0,342.7,167.43Zm-2.36,10.29a2.43,2.43,0,1,0-3.44-.22A2.42,2.42,0,0,0,340.34,177.72ZM338,188a2.43,2.43,0,1,0-3.43-.23A2.44,2.44,0,0,0,338,188ZM397.91-25.85a3,3,0,0,0,.28-4.22,3,3,0,0,0-4.23-.28,3,3,0,0,0-.28,4.22A3,3,0,0,0,397.91-25.85Zm-2.37,10.3a3,3,0,0,0,.28-4.18,3,3,0,0,0-4.18-.28,3,3,0,0,0-.28,4.18A3,3,0,0,0,395.54-15.55ZM393.16-5.28a2.9,2.9,0,0,0,.27-4.1,2.91,2.91,0,0,0-4.1-.27,2.91,2.91,0,0,0-.27,4.1A2.9,2.9,0,0,0,393.16-5.28ZM390.76,5a2.82,2.82,0,1,0-4-.26A2.81,2.81,0,0,0,390.76,5Zm-2.35,10.32a2.82,2.82,0,1,0-4-.27A2.83,2.83,0,0,0,388.41,15.29ZM386,25.54a2.73,2.73,0,1,0-3.85-.26A2.73,2.73,0,0,0,386,25.54Zm-2.34,10.31a2.73,2.73,0,1,0-3.85-.25A2.72,2.72,0,0,0,383.67,35.85Zm-2.41,10.26a2.64,2.64,0,1,0-3.72-.25A2.64,2.64,0,0,0,381.26,46.11Zm-2.38,10.27a2.58,2.58,0,1,0-3.64-.24A2.59,2.59,0,0,0,378.88,56.38Zm-2.34,10.31a2.58,2.58,0,1,0-3.65-.24A2.58,2.58,0,0,0,376.54,66.69ZM374.15,77a2.52,2.52,0,1,0-3.56-.24A2.52,2.52,0,0,0,374.15,77Zm-2.34,10.31a2.52,2.52,0,1,0-3.56-.23A2.53,2.53,0,0,0,371.81,87.28Zm-2.38,10.28a2.47,2.47,0,1,0-3.48-.23A2.48,2.48,0,0,0,369.43,97.56Zm-2.35,10.31a2.46,2.46,0,1,0-3.48-.23A2.45,2.45,0,0,0,367.08,107.87Zm-2.38,10.28a2.41,2.41,0,1,0-3.4-.23A2.41,2.41,0,0,0,364.7,118.15Zm-2.36,10.29a2.38,2.38,0,1,0-3.36-.22A2.38,2.38,0,0,0,362.34,128.44ZM360,138.78a2.41,2.41,0,1,0-3.39-.23A2.42,2.42,0,0,0,360,138.78Zm-2.38,10.27a2.35,2.35,0,1,0-3.31-.22A2.35,2.35,0,0,0,357.63,149.05Zm-2.33,10.34a2.38,2.38,0,1,0-3.35-.22A2.37,2.37,0,0,0,355.3,159.39Zm-2.36,10.3a2.35,2.35,0,0,0-3.09-3.54,2.35,2.35,0,0,0,3.09,3.54ZM350.59,180a2.35,2.35,0,1,0-3.31-.22A2.33,2.33,0,0,0,350.59,180Zm-2.32,10.34a2.38,2.38,0,1,0-3.35-.22A2.37,2.37,0,0,0,348.27,190.34ZM408.18-23.55a2.93,2.93,0,0,0,.28-4.14,2.93,2.93,0,0,0-4.14-.27,2.94,2.94,0,0,0-.28,4.14A2.93,2.93,0,0,0,408.18-23.55Zm-2.36,10.3a2.9,2.9,0,0,0,.27-4.1,2.9,2.9,0,0,0-4.1-.27,2.92,2.92,0,0,0-.27,4.1A2.92,2.92,0,0,0,405.82-13.25ZM403.44-3a2.84,2.84,0,0,0,.26-4,2.83,2.83,0,0,0-4-.27,2.85,2.85,0,0,0-.27,4A2.84,2.84,0,0,0,403.44-3Zm-2.37,10.3a2.82,2.82,0,1,0-4-.27A2.83,2.83,0,0,0,401.07,7.32Zm-2.4,10.25a2.73,2.73,0,1,0-3.85-.26A2.73,2.73,0,0,0,398.67,17.57Zm-2.38,10.27a2.67,2.67,0,1,0-3.77-.25A2.67,2.67,0,0,0,396.29,27.84Zm-2.37,10.29a2.64,2.64,0,1,0-3.72-.24A2.63,2.63,0,0,0,393.92,38.13Zm-2.38,10.28a2.58,2.58,0,1,0-3.64-.25A2.59,2.59,0,0,0,391.54,48.41ZM389.2,58.72a2.58,2.58,0,1,0-3.65-.24A2.58,2.58,0,0,0,389.2,58.72ZM386.8,69a2.49,2.49,0,1,0-3.52-.23A2.5,2.5,0,0,0,386.8,69Zm-2.39,10.28A2.44,2.44,0,1,0,381,79,2.44,2.44,0,0,0,384.41,79.25Zm-2.34,10.31a2.43,2.43,0,1,0-3.44-.23A2.43,2.43,0,0,0,382.07,89.56Zm-2.39,10.27a2.37,2.37,0,1,0-3.35-.22A2.37,2.37,0,0,0,379.68,99.83Zm-2.32,10.34A2.41,2.41,0,1,0,374,110,2.4,2.4,0,0,0,377.36,110.17ZM375,120.42a2.32,2.32,0,1,0-3.27-.21A2.31,2.31,0,0,0,375,120.42Zm-2.33,10.34a2.35,2.35,0,1,0-3.31-.22A2.33,2.33,0,0,0,372.63,130.76Zm-2.36,10.3a2.32,2.32,0,1,0-3.27-.22A2.32,2.32,0,0,0,370.27,141.06Zm-2.38,10.27a2.26,2.26,0,1,0-3.19-.21A2.27,2.27,0,0,0,367.89,151.33Zm-2.31,10.36a2.32,2.32,0,1,0-3.27-.22A2.32,2.32,0,0,0,365.58,161.69ZM363.22,172a2.29,2.29,0,1,0-3.23-.22A2.29,2.29,0,0,0,363.22,172Zm-2.35,10.31a2.29,2.29,0,1,0-3.23-.21A2.29,2.29,0,0,0,360.87,182.3Zm-2.34,10.32a2.29,2.29,0,1,0-3.23-.22A2.28,2.28,0,0,0,358.53,192.62Zm-2.37,10.29a2.26,2.26,0,1,0-3.18-.21A2.25,2.25,0,0,0,356.16,202.91ZM420.85-31.52a2.94,2.94,0,0,0,.27-4.14,2.93,2.93,0,0,0-4.14-.27,2.93,2.93,0,0,0-.27,4.14A2.93,2.93,0,0,0,420.85-31.52ZM418.5-21.2a2.94,2.94,0,0,0,.28-4.14,2.94,2.94,0,0,0-4.14-.28,2.93,2.93,0,0,0-.28,4.14A2.93,2.93,0,0,0,418.5-21.2Zm-2.4,10.25a2.86,2.86,0,0,0,.27-4,2.85,2.85,0,0,0-4-.26,2.85,2.85,0,0,0-.27,4A2.86,2.86,0,0,0,416.1-10.95ZM413.7-.7A2.75,2.75,0,0,0,414-4.59a2.75,2.75,0,0,0-3.89-.26A2.76,2.76,0,0,0,409.8-1,2.77,2.77,0,0,0,413.7-.7ZM411.35,9.62a2.76,2.76,0,1,0-3.89-.26A2.77,2.77,0,0,0,411.35,9.62ZM409,19.87a2.67,2.67,0,1,0-3.77-.25A2.67,2.67,0,0,0,409,19.87Zm-2.34,10.31a2.67,2.67,0,1,0-3.77-.25A2.67,2.67,0,0,0,406.61,30.18ZM404.2,40.43a2.58,2.58,0,1,0-3.64-.24A2.58,2.58,0,0,0,404.2,40.43Zm-2.4,10.25a2.49,2.49,0,1,0-3.52-.23A2.49,2.49,0,0,0,401.8,50.68ZM399.46,61a2.49,2.49,0,1,0-3.52-.23A2.5,2.5,0,0,0,399.46,61Zm-2.39,10.27a2.43,2.43,0,1,0-3.43-.23A2.42,2.42,0,0,0,397.07,71.27Zm-2.34,10.32a2.43,2.43,0,1,0-3.44-.23A2.45,2.45,0,0,0,394.73,81.59Zm-2.4,10.25a2.35,2.35,0,1,0-3.32-.22A2.35,2.35,0,0,0,392.33,91.84Zm-2.39,10.27a2.29,2.29,0,1,0-3.23-.21A2.29,2.29,0,0,0,389.94,102.11Zm-2.32,10.34a2.32,2.32,0,1,0-3.27-.22A2.32,2.32,0,0,0,387.62,112.45Zm-2.38,10.27a2.26,2.26,0,1,0-3.19-.21A2.26,2.26,0,0,0,385.24,122.72ZM382.89,133a2.26,2.26,0,1,0-3.19-.21A2.25,2.25,0,0,0,382.89,133Zm-2.36,10.3a2.23,2.23,0,1,0-3.15-.21A2.24,2.24,0,0,0,380.53,143.34Zm-2.35,10.31a2.23,2.23,0,1,0-3.14-.21A2.22,2.22,0,0,0,378.18,153.65ZM375.82,164a2.2,2.2,0,1,0-3.1-.21A2.21,2.21,0,0,0,375.82,164Zm-2.36,10.29a2.17,2.17,0,1,0-3.07-.2A2.17,2.17,0,0,0,373.46,174.24Zm-2.31,10.36a2.23,2.23,0,1,0-3.15-.21A2.22,2.22,0,0,0,371.15,184.6Zm-2.36,10.3a2.2,2.2,0,1,0-3.11-.21A2.21,2.21,0,0,0,368.79,194.9Zm-2.35,10.31a2.2,2.2,0,1,0-3.1-.2A2.19,2.19,0,0,0,366.44,205.21Zm-2.34,10.32a2.2,2.2,0,1,0-3.11-.21A2.2,2.2,0,0,0,364.1,215.53ZM428.76-18.92a2.86,2.86,0,0,0,.27-4,2.86,2.86,0,0,0-4-.27,2.86,2.86,0,0,0-.27,4A2.86,2.86,0,0,0,428.76-18.92ZM426.38-8.65a2.8,2.8,0,0,0,.26-3.93,2.79,2.79,0,0,0-3.93-.27,2.8,2.8,0,0,0-.27,3.94A2.8,2.8,0,0,0,426.38-8.65ZM424,1.64a2.75,2.75,0,0,0,.26-3.89,2.76,2.76,0,0,0-3.89-.26,2.76,2.76,0,0,0-.26,3.89A2.75,2.75,0,0,0,424,1.64Zm-2.38,10.28a2.7,2.7,0,1,0-3.81-.26A2.7,2.7,0,0,0,421.63,11.92Zm-2.4,10.25a2.61,2.61,0,1,0-3.69-.25A2.62,2.62,0,0,0,419.23,22.17Zm-2.37,10.29a2.58,2.58,0,1,0-3.64-.24A2.57,2.57,0,0,0,416.86,32.46Zm-2.4,10.25a2.49,2.49,0,1,0-3.52-.23A2.5,2.5,0,0,0,414.46,42.71ZM412.12,53a2.49,2.49,0,1,0-3.52-.24A2.5,2.5,0,0,0,412.12,53ZM409.73,63.3a2.43,2.43,0,1,0-3.43-.23A2.43,2.43,0,0,0,409.73,63.3Zm-2.4,10.25a2.35,2.35,0,1,0-3.31-.22A2.34,2.34,0,0,0,407.33,73.55ZM405,83.87a2.35,2.35,0,1,0-3.31-.22A2.35,2.35,0,0,0,405,83.87ZM402.6,94.14a2.29,2.29,0,1,0-3.22-.21A2.28,2.28,0,0,0,402.6,94.14Zm-2.34,10.32a2.29,2.29,0,1,0-3.23-.22A2.29,2.29,0,0,0,400.26,104.46Zm-2.4,10.25a2.2,2.2,0,1,0-3.11-.21A2.21,2.21,0,0,0,397.86,114.71ZM395.48,125a2.14,2.14,0,1,0-3-.2A2.14,2.14,0,0,0,395.48,125Zm-2.33,10.34a2.17,2.17,0,1,0-3.06-.2A2.17,2.17,0,0,0,393.15,135.32Zm-2.36,10.29a2.14,2.14,0,1,0-3-.2A2.14,2.14,0,0,0,390.79,145.61ZM388.46,156a2.17,2.17,0,1,0-3.06-.2A2.18,2.18,0,0,0,388.46,156Zm-2.36,10.3a2.14,2.14,0,1,0-3-.2A2.15,2.15,0,0,0,386.1,166.25Zm-2.35,10.31a2.14,2.14,0,1,0-3-.2A2.14,2.14,0,0,0,383.75,176.56Zm-2.36,10.3a2.11,2.11,0,1,0-3-.2A2.11,2.11,0,0,0,381.39,186.86Zm-2.34,10.31a2.11,2.11,0,1,0-3-.19A2.12,2.12,0,0,0,379.05,197.17Zm-2.31,10.37a2.17,2.17,0,1,0-3.06-.21A2.18,2.18,0,0,0,376.74,207.54Zm-2.34,10.31a2.17,2.17,0,1,0-3.07-.2A2.17,2.17,0,0,0,374.4,217.85Zm-2.35,10.32A2.17,2.17,0,1,0,369,228,2.17,2.17,0,0,0,372.05,228.17ZM436.65-6.35a2.73,2.73,0,0,0,.26-3.85,2.73,2.73,0,0,0-3.85-.26,2.74,2.74,0,0,0-.26,3.85A2.73,2.73,0,0,0,436.65-6.35ZM434.31,4a2.73,2.73,0,1,0-3.85-.26A2.74,2.74,0,0,0,434.31,4Zm-2.42,10.22A2.61,2.61,0,1,0,428.2,14,2.61,2.61,0,0,0,431.89,14.19Zm-2.35,10.32a2.61,2.61,0,1,0-3.68-.24A2.6,2.6,0,0,0,429.54,24.51Zm-2.4,10.25a2.52,2.52,0,1,0-3.56-.24A2.52,2.52,0,0,0,427.14,34.76ZM424.74,45a2.43,2.43,0,1,0-3.44-.23A2.43,2.43,0,0,0,424.74,45ZM422.4,55.33A2.44,2.44,0,1,0,419,55.1,2.44,2.44,0,0,0,422.4,55.33ZM420,65.58a2.35,2.35,0,1,0-3.31-.22A2.34,2.34,0,0,0,420,65.58ZM417.65,75.9a2.35,2.35,0,1,0-3.31-.22A2.37,2.37,0,0,0,417.65,75.9Zm-2.4,10.25a2.26,2.26,0,1,0-3.19-.22A2.26,2.26,0,0,0,415.25,86.15Zm-2.39,10.27a2.2,2.2,0,1,0-3.1-.21A2.2,2.2,0,0,0,412.86,96.42Zm-2.34,10.32a2.2,2.2,0,1,0-3.11-.21A2.21,2.21,0,0,0,410.52,106.74ZM408.14,117a2.15,2.15,0,1,0-3-.2A2.14,2.14,0,0,0,408.14,117Zm-2.35,10.31a2.14,2.14,0,1,0-3-.2A2.14,2.14,0,0,0,405.79,127.32Zm-2.36,10.3a2.11,2.11,0,1,0-3-.2A2.12,2.12,0,0,0,403.43,137.62Zm-2.35,10.32a2.11,2.11,0,1,0-3-.2A2.11,2.11,0,0,0,401.08,147.94Zm-2.38,10.27a2.05,2.05,0,1,0-2.9-.19A2.06,2.06,0,0,0,398.7,158.21Zm-2.36,10.29a2,2,0,1,0-2.86-.19A2,2,0,0,0,396.34,168.5ZM394,178.86a2.08,2.08,0,1,0-2.94-.19A2.09,2.09,0,0,0,394,178.86Zm-2.36,10.3a2.06,2.06,0,1,0-2.9-.19A2.06,2.06,0,0,0,391.67,189.16Zm-2.35,10.32a2.06,2.06,0,1,0-2.89-.2A2.06,2.06,0,0,0,389.32,199.48ZM387,209.79a2.06,2.06,0,1,0-2.9-.19A2.06,2.06,0,0,0,387,209.79Zm-2.35,10.32a2.05,2.05,0,1,0-2.89-.19A2.06,2.06,0,0,0,384.63,220.11Zm-2.3,10.36a2.11,2.11,0,1,0-3-.2A2.11,2.11,0,0,0,382.33,230.47ZM447-4a2.72,2.72,0,0,0,.26-3.85,2.73,2.73,0,0,0-3.85-.25,2.72,2.72,0,0,0-.26,3.85A2.72,2.72,0,0,0,447-4Zm-2.4,10.25A2.64,2.64,0,1,0,440.84,6,2.63,2.63,0,0,0,444.57,6.24Zm-2.38,10.28a2.58,2.58,0,1,0-3.65-.25A2.59,2.59,0,0,0,442.19,16.52Zm-2.37,10.29a2.55,2.55,0,1,0-3.6-.24A2.55,2.55,0,0,0,439.82,26.81Zm-2.4,10.25a2.47,2.47,0,1,0-3.48-.23A2.47,2.47,0,0,0,437.42,37.06Zm-2.36,10.3a2.44,2.44,0,1,0-3.44-.23A2.44,2.44,0,0,0,435.06,47.36Zm-2.41,10.25a2.35,2.35,0,1,0-3.31-.22A2.35,2.35,0,0,0,432.65,57.61Zm-2.38,10.27a2.29,2.29,0,1,0-3.23-.22A2.29,2.29,0,0,0,430.27,67.88Zm-2.36,10.29a2.26,2.26,0,1,0-3.19-.21A2.25,2.25,0,0,0,427.91,78.17Zm-2.39,10.28a2.2,2.2,0,1,0-3.1-.21A2.2,2.2,0,0,0,425.52,88.45Zm-2.34,10.31a2.2,2.2,0,1,0-3.1-.2A2.2,2.2,0,0,0,423.18,98.76ZM420.78,109a2.11,2.11,0,1,0-3-.19A2.12,2.12,0,0,0,420.78,109Zm-2.39,10.28a2.05,2.05,0,1,0-2.89-.2A2.06,2.06,0,0,0,418.39,119.29Zm-2.34,10.31a2.05,2.05,0,1,0-2.9-.19A2.06,2.06,0,0,0,416.05,129.6Zm-2.38,10.27a2,2,0,0,0-2.63-3,2,2,0,1,0,2.63,3Zm-2.33,10.34a2,2,0,1,0-2.85-.19A2,2,0,0,0,411.34,150.21ZM409,160.51a2,2,0,1,0-2.82-.19A2,2,0,0,0,409,160.51Zm-2.35,10.32a2,2,0,1,0-2.81-.19A2,2,0,0,0,406.63,170.83Zm-2.36,10.29a2,2,0,1,0-2.77-.18A2,2,0,0,0,404.27,181.12Zm-2.36,10.29a1.93,1.93,0,1,0-2.73-.18A1.94,1.94,0,0,0,401.91,191.41Zm-2.31,10.37a2,2,0,1,0-2.81-.19A2,2,0,0,0,399.6,201.78Zm-2.34,10.31a2,2,0,1,0-2.82-.19A2,2,0,0,0,397.26,212.09Zm-2.35,10.32a2,2,0,1,0-2.81-.19A2,2,0,0,0,394.91,222.41Zm-2.32,10.34a2,2,0,1,0-2.86-.19A2,2,0,0,0,392.59,232.75Zm-2.33,10.34a2.05,2.05,0,1,0-2.7-3.09,2.05,2.05,0,0,0,2.7,3.09ZM454.85,8.54a2.58,2.58,0,1,0-3.65-.24A2.58,2.58,0,0,0,454.85,8.54ZM452.5,18.86a2.58,2.58,0,1,0-3.64-.24A2.57,2.57,0,0,0,452.5,18.86Zm-2.4,10.25a2.49,2.49,0,1,0-3.52-.23A2.49,2.49,0,0,0,450.1,29.11Zm-2.4,10.25a2.41,2.41,0,1,0-3.4-.22A2.39,2.39,0,0,0,447.7,39.36Zm-2.37,10.3a2.38,2.38,0,1,0-3.35-.23A2.39,2.39,0,0,0,445.33,49.66Zm-2.4,10.25a2.29,2.29,0,1,0-3.23-.22A2.29,2.29,0,0,0,442.93,59.91Zm-2.34,10.31a2.29,2.29,0,1,0-3.23-.21A2.29,2.29,0,0,0,440.59,70.22Zm-2.4,10.25a2.2,2.2,0,1,0-3.11-.2A2.2,2.2,0,0,0,438.19,80.47Zm-2.41,10.25a2.11,2.11,0,1,0-3-.19A2.11,2.11,0,0,0,435.78,90.72ZM433.44,101a2.11,2.11,0,1,0-3-.2A2.11,2.11,0,0,0,433.44,101Zm-2.38,10.27a2.06,2.06,0,1,0-2.9-.19A2,2,0,0,0,431.06,111.31Zm-2.35,10.32a2.05,2.05,0,1,0-2.9-.19A2.06,2.06,0,0,0,428.71,121.63Zm-2.38,10.27a2,2,0,1,0-2.82-.18A2,2,0,0,0,426.33,131.9Zm-2.4,10.25a1.91,1.91,0,1,0-2.69-.18A1.91,1.91,0,0,0,423.93,142.15Zm-2.33,10.34a1.93,1.93,0,1,0-2.73-.18A1.92,1.92,0,0,0,421.6,152.49Zm-2.38,10.27a1.87,1.87,0,1,0-2.65-.17A1.86,1.86,0,0,0,419.22,162.76Zm-2.31,10.37a1.94,1.94,0,1,0-2.73-.19A1.94,1.94,0,0,0,416.91,173.13Zm-2.36,10.29a1.91,1.91,0,1,0-2.69-.18A1.91,1.91,0,0,0,414.55,183.42Zm-2.35,10.32a1.91,1.91,0,1,0-2.69-.18A1.89,1.89,0,0,0,412.2,193.74Zm-2.34,10.31a1.91,1.91,0,1,0-2.69-.18A1.91,1.91,0,0,0,409.86,204.05Zm-2.34,10.32a1.91,1.91,0,1,0-2.69-.18A1.9,1.9,0,0,0,407.52,214.37Zm-2.33,10.34a1.94,1.94,0,0,0-2.55-2.92,1.94,1.94,0,0,0,2.55,2.92Zm-2.32,10.34a2,2,0,1,0-2.78-.19A2,2,0,0,0,402.87,235.05Zm-2.35,10.31a2,2,0,1,0-2.77-.18A2,2,0,0,0,400.52,245.36ZM398.2,255.7a2,2,0,0,0-2.63-3,2,2,0,1,0,2.63,3Zm-2.31,10.36a2.05,2.05,0,1,0-2.9-.19A2,2,0,0,0,395.89,266.06ZM462.76,21.14a2.49,2.49,0,1,0-3.52-.24A2.5,2.5,0,0,0,462.76,21.14Zm-2.38,10.27a2.43,2.43,0,1,0-3.44-.23A2.43,2.43,0,0,0,460.38,31.41ZM458,41.71a2.4,2.4,0,1,0-3.39-.23A2.41,2.41,0,0,0,458,41.71ZM455.61,52a2.32,2.32,0,1,0-3.27-.22A2.31,2.31,0,0,0,455.61,52Zm-2.4,10.25a2.23,2.23,0,1,0-3.15-.21A2.23,2.23,0,0,0,453.21,62.21ZM450.85,72.5a2.2,2.2,0,1,0-3.11-.2A2.2,2.2,0,0,0,450.85,72.5Zm-2.41,10.25a2.11,2.11,0,1,0-3-.2A2.11,2.11,0,0,0,448.44,82.75ZM446.1,93.07a2.11,2.11,0,1,0-3-.2A2.11,2.11,0,0,0,446.1,93.07Zm-2.4,10.25a2,2,0,1,0-2.86-.19A2,2,0,0,0,443.7,103.32Zm-2.39,10.27a2,2,0,1,0-2.77-.18A2,2,0,0,0,441.31,113.59ZM439,123.91a2,2,0,1,0-2.77-.19A2,2,0,0,0,439,123.91Zm-2.38,10.27a1.91,1.91,0,1,0-2.69-.18A1.91,1.91,0,0,0,436.59,134.18Zm-2.35,10.32a1.91,1.91,0,1,0-2.69-.18A1.89,1.89,0,0,0,434.24,144.5Zm-2.38,10.27a1.85,1.85,0,1,0-2.61-.17A1.84,1.84,0,0,0,431.86,154.77ZM429.48,165a1.79,1.79,0,1,0-2.53-.17A1.78,1.78,0,0,0,429.48,165Zm-2.33,10.34a1.82,1.82,0,1,0-2.56-.17A1.82,1.82,0,0,0,427.15,175.38Zm-2.36,10.3a1.79,1.79,0,1,0-2.53-.17A1.8,1.8,0,0,0,424.79,185.68ZM422.48,196a1.85,1.85,0,1,0-2.61-.18A1.85,1.85,0,0,0,422.48,196Zm-2.36,10.29a1.82,1.82,0,1,0-2.57-.17A1.83,1.83,0,0,0,420.12,206.33Zm-2.35,10.32a1.82,1.82,0,1,0-2.56-.17A1.82,1.82,0,0,0,417.77,216.65ZM415.45,227a1.85,1.85,0,1,0-2.61-.18A1.84,1.84,0,0,0,415.45,227Zm-2.33,10.34a1.88,1.88,0,1,0-2.64-.18A1.88,1.88,0,0,0,413.12,237.33Zm-2.3,10.36a1.94,1.94,0,0,0-2.55-2.92,1.94,1.94,0,0,0,2.55,2.92ZM408.49,258a2,2,0,1,0-2.77-.19A2,2,0,0,0,408.49,258Zm-2.34,10.31a2,2,0,1,0-2.77-.18A2,2,0,0,0,406.15,268.34Zm-2.31,10.36a2,2,0,1,0-2.85-.19A2,2,0,0,0,403.84,278.7Zm66.8-245a2.35,2.35,0,1,0-3.31-.22A2.35,2.35,0,0,0,470.64,33.69ZM468.29,44a2.35,2.35,0,1,0-3.31-.22A2.35,2.35,0,0,0,468.29,44Zm-2.4,10.25A2.26,2.26,0,1,0,462.7,54,2.26,2.26,0,0,0,465.89,54.26Zm-2.36,10.29a2.23,2.23,0,1,0-3.15-.21A2.24,2.24,0,0,0,463.53,64.55ZM461.12,74.8a2.14,2.14,0,1,0-3-.2A2.15,2.15,0,0,0,461.12,74.8Zm-2.4,10.25a2.05,2.05,0,1,0-2.9-.19A2,2,0,0,0,458.72,85.05Zm-2.34,10.32a2.06,2.06,0,1,0-2.9-.19A2.06,2.06,0,0,0,456.38,95.37ZM454,105.62a2,2,0,1,0-2.78-.19A2,2,0,0,0,454,105.62Zm-2.35,10.32a2,2,0,1,0-2.77-.19A2,2,0,0,0,451.63,115.94Zm-2.4,10.25a1.88,1.88,0,1,0-2.65-.18A1.88,1.88,0,0,0,449.23,126.19Zm-2.38,10.27a1.82,1.82,0,1,0-2.57-.17A1.83,1.83,0,0,0,446.85,136.46Zm-2.35,10.32a1.82,1.82,0,1,0-2.56-.17A1.82,1.82,0,0,0,444.5,146.78Zm-2.38,10.27a1.76,1.76,0,1,0-2.49-.17A1.77,1.77,0,0,0,442.12,157.05Zm-2.33,10.34a1.79,1.79,0,1,0-2.52-.17A1.79,1.79,0,0,0,439.79,167.39Zm-2.36,10.29a1.76,1.76,0,1,0-2.48-.16A1.76,1.76,0,0,0,437.43,177.68ZM435.09,188a1.76,1.76,0,1,0-2.49-.17A1.77,1.77,0,0,0,435.09,188Zm-2.37,10.29a1.73,1.73,0,1,0-2.44-.16A1.73,1.73,0,0,0,432.72,198.29Zm-2.34,10.32a1.73,1.73,0,1,0-2.44-.16A1.73,1.73,0,0,0,430.38,208.61ZM428.07,219a1.79,1.79,0,1,0-2.52-.17A1.78,1.78,0,0,0,428.07,219Zm-2.32,10.34a1.82,1.82,0,1,0-2.57-.17A1.83,1.83,0,0,0,425.75,229.31Zm-2.35,10.32a1.82,1.82,0,1,0-2.56-.17A1.81,1.81,0,0,0,423.4,239.63Zm-2.34,10.31a1.82,1.82,0,1,0-2.57-.17A1.82,1.82,0,0,0,421.06,249.94Zm-2.31,10.36a1.87,1.87,0,1,0-2.65-.17A1.88,1.88,0,0,0,418.75,260.3Zm-2.3,10.36a1.93,1.93,0,1,0-2.74-.18A1.94,1.94,0,0,0,416.45,270.66Zm-2.29,10.39a2,2,0,1,0-2.86-.19A2,2,0,0,0,414.16,281.05Zm-2.34,10.31a2,2,0,1,0-2.86-.19A2,2,0,0,0,411.82,291.36ZM481,36a2.35,2.35,0,1,0-3.31-.22A2.33,2.33,0,0,0,481,36Zm-2.38,10.28a2.29,2.29,0,1,0-3.23-.22A2.29,2.29,0,0,0,478.57,46.31Zm-2.4,10.25a2.2,2.2,0,1,0-3.11-.21A2.21,2.21,0,0,0,476.17,56.56ZM473.8,66.85a2.17,2.17,0,1,0-3.06-.2A2.16,2.16,0,0,0,473.8,66.85ZM471.4,77.1a2.08,2.08,0,1,0-2.94-.19A2.08,2.08,0,0,0,471.4,77.1ZM469,87.4a2.06,2.06,0,1,0-2.9-.2A2.06,2.06,0,0,0,469,87.4Zm-2.4,10.25a2,2,0,1,0-2.78-.19A2,2,0,0,0,466.64,97.65Zm-2.39,10.27a1.91,1.91,0,1,0-2.69-.18A1.89,1.89,0,0,0,464.25,107.92Zm-2.36,10.29a1.87,1.87,0,1,0-2.65-.17A1.88,1.88,0,0,0,461.89,118.21Zm-2.38,10.28a1.82,1.82,0,1,0-2.57-.17A1.83,1.83,0,0,0,459.51,128.49Zm-2.35,10.31a1.81,1.81,0,1,0-2.56-.17A1.81,1.81,0,0,0,457.16,138.8Zm-2.4,10.25a1.73,1.73,0,1,0-2.44-.16A1.73,1.73,0,0,0,454.76,149.05Zm-2.38,10.28a1.68,1.68,0,1,0-2.36-.16A1.68,1.68,0,0,0,452.38,159.33ZM450,169.64a1.67,1.67,0,1,0-2.2-2.51,1.67,1.67,0,1,0,2.2,2.51Zm-2.36,10.3a1.64,1.64,0,0,0-2.16-2.47,1.64,1.64,0,1,0,2.16,2.47Zm-2.33,10.34a1.67,1.67,0,1,0-2.2-2.52,1.67,1.67,0,0,0,2.2,2.52ZM443,200.59a1.67,1.67,0,1,0-2.36-.15A1.67,1.67,0,0,0,443,200.59Zm-2.34,10.32a1.68,1.68,0,1,0-2.36-.16A1.67,1.67,0,0,0,440.66,210.91Zm-2.35,10.32a1.67,1.67,0,1,0-2.36-.16A1.69,1.69,0,0,0,438.31,221.23ZM436,231.57a1.71,1.71,0,1,0-2.4-.16A1.72,1.72,0,0,0,436,231.57Zm-2.31,10.36a1.76,1.76,0,1,0-2.48-.17A1.77,1.77,0,0,0,433.68,241.93Zm-2.3,10.36a1.82,1.82,0,1,0-2.57-.17A1.83,1.83,0,0,0,431.38,252.29ZM429,262.6a1.82,1.82,0,1,0-2.57-.17A1.81,1.81,0,0,0,429,262.6Zm-2.32,10.34a1.85,1.85,0,1,0-2.61-.17A1.86,1.86,0,0,0,426.71,272.94Zm-2.29,10.39a1.94,1.94,0,0,0-2.55-2.92,1.94,1.94,0,0,0,2.55,2.92ZM488.83,48.58a2.2,2.2,0,1,0-3.11-.2A2.2,2.2,0,0,0,488.83,48.58ZM486.49,58.9a2.2,2.2,0,1,0-3.11-.21A2.2,2.2,0,0,0,486.49,58.9Zm-2.41,10.25a2.11,2.11,0,1,0-3-.2A2.11,2.11,0,0,0,484.08,69.15Zm-2.4,10.25a2,2,0,1,0-2.86-.19A2,2,0,0,0,481.68,79.4Zm-2.36,10.3a2,2,0,1,0-2.82-.19A2,2,0,0,0,479.32,89.7ZM476.91,100a1.91,1.91,0,1,0-2.69-.18A1.89,1.89,0,0,0,476.91,100Zm-2.34,10.31a1.91,1.91,0,1,0-2.69-.18A1.91,1.91,0,0,0,474.57,110.26Zm-2.4,10.25a1.82,1.82,0,1,0-2.57-.17A1.82,1.82,0,0,0,472.17,120.51Zm-2.4,10.25a1.73,1.73,0,1,0-2.45-.16A1.73,1.73,0,0,0,469.77,130.76Zm-2.35,10.32a1.73,1.73,0,1,0-2.44-.16A1.73,1.73,0,0,0,467.42,141.08ZM465,151.35a1.67,1.67,0,1,0-2.2-2.51,1.67,1.67,0,1,0,2.2,2.51Zm-2.35,10.32a1.67,1.67,0,0,0,.16-2.36,1.67,1.67,0,0,0-2.52,2.2A1.67,1.67,0,0,0,462.69,161.67Zm-2.38,10.27a1.61,1.61,0,0,0-2.12-2.43,1.61,1.61,0,1,0,2.12,2.43Zm-2.4,10.25a1.52,1.52,0,1,0-2.15-.14A1.52,1.52,0,0,0,457.91,182.19Zm-2.31,10.36a1.58,1.58,0,1,0-2.23-.14A1.57,1.57,0,0,0,455.6,192.55Zm-2.36,10.3a1.56,1.56,0,1,0-2.19-.15A1.55,1.55,0,0,0,453.24,202.85Zm-2.31,10.36a1.61,1.61,0,1,0-2.27-.15A1.6,1.6,0,0,0,450.93,213.21Zm-2.32,10.34a1.64,1.64,0,1,0-2.32-.16A1.65,1.65,0,0,0,448.61,223.55Zm-2.35,10.32a1.64,1.64,0,1,0-2.31-.16A1.64,1.64,0,0,0,446.26,233.87Zm-2.32,10.33a1.67,1.67,0,1,0-2.2-2.51,1.67,1.67,0,1,0,2.2,2.51Zm-2.33,10.34a1.7,1.7,0,1,0-2.4-.16A1.7,1.7,0,0,0,441.61,254.54Zm-2.28,10.39a1.79,1.79,0,1,0-2.53-.17A1.8,1.8,0,0,0,439.33,264.93ZM437,275.29a1.85,1.85,0,1,0-2.61-.18A1.85,1.85,0,0,0,437,275.29Zm-2.28,10.38a1.93,1.93,0,1,0-2.74-.18A1.94,1.94,0,0,0,434.74,285.67ZM432.37,296a1.91,1.91,0,1,0-2.69-.17A1.91,1.91,0,0,0,432.37,296ZM492,81.75a2,2,0,1,0-2.86-.19A2,2,0,0,0,492,81.75ZM489.6,92a1.94,1.94,0,1,0-2.74-.18A2,2,0,0,0,489.6,92Zm-2.41,10.25a1.85,1.85,0,1,0-2.61-.18A1.85,1.85,0,0,0,487.19,102.25Zm-2.34,10.31a1.85,1.85,0,0,0-2.44-2.78,1.85,1.85,0,0,0,2.44,2.78Zm-2.42,10.23a1.73,1.73,0,1,0-2.45-.16A1.73,1.73,0,0,0,482.43,122.79Zm-2.35,10.32a1.73,1.73,0,1,0-2.44-.16A1.73,1.73,0,0,0,480.08,133.11Zm-2.4,10.25a1.64,1.64,0,1,0-2.32-.15A1.65,1.65,0,0,0,477.68,143.36Zm-2.38,10.27a1.58,1.58,0,1,0-2.24-.15A1.58,1.58,0,0,0,475.3,153.63ZM473,164a1.58,1.58,0,1,0-2.23-.15A1.59,1.59,0,0,0,473,164Zm-2.38,10.27a1.52,1.52,0,1,0-2.15-.14A1.52,1.52,0,0,0,470.57,174.22Zm-2.34,10.32a1.53,1.53,0,1,0-2.16-.15A1.53,1.53,0,0,0,468.23,184.54Zm-2.35,10.31a1.52,1.52,0,1,0-2.15-.14A1.51,1.51,0,0,0,465.88,194.85Zm-2.38,10.28a1.47,1.47,0,1,0-2.07-.14A1.47,1.47,0,0,0,463.5,205.13Zm-2.31,10.36a1.53,1.53,0,1,0-2.15-.15A1.52,1.52,0,0,0,461.19,215.49Zm-2.34,10.31a1.52,1.52,0,1,0-2.15-.14A1.52,1.52,0,0,0,458.85,225.8Zm-2.31,10.37a1.58,1.58,0,1,0-2.23-.15A1.59,1.59,0,0,0,456.54,236.17Zm-2.3,10.36a1.65,1.65,0,1,0-2.32-.16A1.65,1.65,0,0,0,454.24,246.53Zm-2.35,10.31a1.64,1.64,0,1,0-2.32-.15A1.64,1.64,0,0,0,451.89,256.84Zm-2.3,10.36a1.7,1.7,0,1,0-2.4-.16A1.71,1.71,0,0,0,449.59,267.2Zm-2.31,10.36a1.76,1.76,0,1,0-2.48-.16A1.76,1.76,0,0,0,447.28,277.56ZM445,288a1.85,1.85,0,1,0-2.43-2.78A1.85,1.85,0,0,0,445,288Zm-2.3,10.36a1.91,1.91,0,1,0-2.69-.18A1.91,1.91,0,0,0,442.69,298.31Zm54.82-193.72a1.85,1.85,0,1,0-2.61-.17A1.84,1.84,0,0,0,497.51,104.59Zm-2.4,10.25a1.76,1.76,0,1,0-2.49-.16A1.76,1.76,0,0,0,495.11,114.84Zm-4.75,20.57a1.67,1.67,0,1,0-2.36-.16A1.67,1.67,0,0,0,490.36,135.41ZM488,145.66a1.58,1.58,0,1,0-2.24-.15A1.59,1.59,0,0,0,488,145.66ZM485.61,156a1.58,1.58,0,1,0-2.23-.15A1.59,1.59,0,0,0,485.61,156Zm-2.4,10.25a1.5,1.5,0,1,0-2.11-.14A1.49,1.49,0,0,0,483.21,166.23Zm-2.4,10.25a1.41,1.41,0,1,0-2-.13A1.42,1.42,0,0,0,480.81,176.48Zm-2.33,10.34a1.44,1.44,0,1,0-2-.14A1.44,1.44,0,0,0,478.48,186.82Zm-2.36,10.29a1.41,1.41,0,1,0-2-.13A1.41,1.41,0,0,0,476.12,197.11Zm-2.31,10.36a1.47,1.47,0,1,0-2.06-.14A1.46,1.46,0,0,0,473.81,207.47Zm-2.34,10.32a1.47,1.47,0,1,0-2.07-.14A1.47,1.47,0,0,0,471.47,217.79Zm-2.34,10.31a1.47,1.47,0,1,0-2.07-.13A1.45,1.45,0,0,0,469.13,228.1Zm-2.33,10.34a1.5,1.5,0,1,0-2.11-.14A1.49,1.49,0,0,0,466.8,238.44Zm-2.32,10.34a1.52,1.52,0,1,0-2.16-.14A1.53,1.53,0,0,0,464.48,248.78Zm-2.29,10.39a1.62,1.62,0,1,0-2.28-.16A1.62,1.62,0,0,0,462.19,259.17Zm-2.31,10.36a1.67,1.67,0,0,0-2.2-2.52,1.67,1.67,0,0,0,2.2,2.52Zm-2.28,10.38a1.76,1.76,0,1,0-2.49-.17A1.76,1.76,0,0,0,457.6,279.91Zm-2.35,10.32a1.76,1.76,0,1,0-2.48-.17A1.77,1.77,0,0,0,455.25,290.23Zm40.62-132a1.5,1.5,0,1,0-2.11-.14A1.49,1.49,0,0,0,495.87,158.25Zm-2.4,10.25a1.4,1.4,0,1,0-2-.13A1.4,1.4,0,0,0,493.47,168.5Zm-2.34,10.32a1.41,1.41,0,1,0-2-.13A1.42,1.42,0,0,0,491.13,178.82Zm-2.37,10.3a1.38,1.38,0,1,0-1.94-.13A1.38,1.38,0,0,0,488.76,189.12Zm-2.4,10.25a1.29,1.29,0,1,0-1.82-.12A1.29,1.29,0,0,0,486.36,199.37Zm-2.31,10.36a1.35,1.35,0,1,0-1.9-.13A1.35,1.35,0,0,0,484.05,209.73ZM481.71,220a1.35,1.35,0,1,0-1.9-.12A1.35,1.35,0,0,0,481.71,220Zm-2.31,10.37a1.41,1.41,0,1,0-1.85-2.12,1.41,1.41,0,0,0,1.85,2.12Zm-2.3,10.36a1.47,1.47,0,1,0-2.07-.14A1.47,1.47,0,0,0,477.1,240.77Zm-2.31,10.36a1.53,1.53,0,1,0-2.15-.15A1.53,1.53,0,0,0,474.79,251.13Zm-2.34,10.31a1.52,1.52,0,1,0-2.15-.14A1.52,1.52,0,0,0,472.45,261.44Zm-2.29,10.39a1.61,1.61,0,1,0-2.27-.15A1.62,1.62,0,0,0,470.16,271.83Zm-2.3,10.36a1.68,1.68,0,1,0-2.36-.16A1.68,1.68,0,0,0,467.86,282.19Zm28.82-80.48a1.29,1.29,0,1,0-1.82-.12A1.29,1.29,0,0,0,496.68,201.71ZM494.33,212a1.29,1.29,0,1,0-1.82-.12A1.29,1.29,0,0,0,494.33,212Zm-4.67,20.65a1.32,1.32,0,1,0-1.86-.12A1.32,1.32,0,0,0,489.66,232.68Zm-4.59,20.75a1.47,1.47,0,1,0-2.07-.14A1.47,1.47,0,0,0,485.07,253.43Zm-2.3,10.36a1.53,1.53,0,1,0-2.16-.15A1.53,1.53,0,0,0,482.77,263.79Zm-2.29,10.38a1.62,1.62,0,1,0-2.28-.15A1.62,1.62,0,0,0,480.48,274.17Z"/></g></g></g></g><g id="Layer_6" data-name="Layer 6"><g class="cls-94"><g class="cls-27"><g class="cls-95"><path class="cls-96" d="M615.82-78.95l.32,1c-1.17.36-118,36.51-242.9,60.37C299.87-3.55,238.1,3.54,189.65,3.52,129,3.49,89.06-7.79,71.07-30l.83-.68C89.68-8.73,129.3,2.42,189.64,2.45,238,2.47,299.72-4.62,373-18.62,497.88-42.46,614.65-78.59,615.82-78.95Z"/><path class="cls-97" d="M620.09-68.23l.28.93c-1.16.36-118.09,36.38-243,60.17-73.4,14-135.17,21.06-183.6,21.06-60.65,0-100.48-11.2-118.37-33.28l.76-.61C93.82,1.88,133.38,13,193.73,13c48.36,0,110.08-7.08,183.42-21C502.05-31.87,618.92-67.87,620.09-68.23Z"/><path class="cls-98" d="M624.36-57.51l.25.84c-1.16.36-118.19,36.25-243.19,60-73.43,13.94-135.2,21-183.61,21-60.61,0-100.37-11.09-118.16-33l.68-.54c17.61,21.73,57.14,32.74,117.48,32.72,48.35,0,110.07-7.09,183.45-21C506.21-21.27,623.19-57.15,624.36-57.51Z"/><path class="cls-99" d="M628.63-46.78l.22.73c-1.17.36-118.29,36.13-243.34,59.79-73.45,13.9-135.23,21-183.62,21-60.57,0-100.26-11-117.94-32.81l.59-.49C102.08,23.09,141.56,34,201.89,34c48.34,0,110.07-7.1,183.47-21C510.37-10.67,627.46-46.43,628.63-46.78Z"/><path class="cls-3" d="M632.9-36.06l.19.64c-1.17.36-118.39,36-243.49,59.6C316.12,38,254.34,45.1,206,45.16c-60.54.08-100.15-10.88-117.73-32.58l.52-.42C106.21,33.7,145.64,44.57,206,44.49c48.32-.06,110.06-7.11,183.5-21C514.53-.07,631.73-35.7,632.9-36.06Z"/></g></g></g></g></g></svg>