<svg xmlns="http://www.w3.org/2000/svg" xmlns:xlink="http://www.w3.org/1999/xlink" viewBox="0 0 1250 1050"><defs><style>.cls-1,.cls-3,.cls-4,.cls-5,.cls-6,.cls-7{opacity:0.75;}.cls-2,.cls-7{fill:#211261;}.cls-3{fill:#59ff3f;}.cls-4,.cls-8{fill:#22bbed;}.cls-5{fill:url(#New_Gradient_Swatch_45);}.cls-6{fill:#3dae2b;}.cls-8{opacity:0.5;}</style><linearGradient id="New_Gradient_Swatch_45" x1="745.63" y1="965.66" x2="814.06" y2="897.24" gradientUnits="userSpaceOnUse"><stop offset="0" stop-color="#00c2c3"/><stop offset="0.77" stop-color="#8fff8f"/></linearGradient></defs><g id="fig1"><g class="cls-1"><path class="cls-2" d="M902.72,159.2a306.8,306.8,0,0,1,82.4,11.17c55.69,15.31,100.55,45,133.35,88.27,26.54,35,45.37,79.09,56,131,17.1,83.9,7.54,164.24,4.2,186.86-.07.48-.13.93-.15,1.33h0c-18,120.2-62.35,211.11-131.83,270.22C983.05,902.1,898.8,929.51,796.2,929.51c-128.83,0-285.25-43.9-452.35-127C240.69,751.27,152,677.38,94.09,594.48c-27.25-39-46.57-78.23-57.43-116.52C25.74,439.4,24,403.74,31.44,372c19.71-83.93,101.37-130.16,229.94-130.16,13.1,0,26.86.49,40.88,1.44,27.9,1.89,55.6,2.85,82.35,2.85,148.78,0,250.93-28.48,341.06-53.61,64.1-17.87,119.47-33.3,177.05-33.3Zm0-1.94c-137.06,0-261.12,86.92-518.11,86.92-26,0-53.33-.89-82.22-2.85q-21.39-1.46-41-1.44c-376.55,0-268.85,390.19,81.61,564.39C502.26,883.45,660.45,931.45,796.2,931.45c196.71,0,346.34-100.73,384.16-353.35-.36-.13,59.71-339.68-194.72-409.59a309.18,309.18,0,0,0-82.92-11.25Z"/></g><path class="cls-3" d="M1179.16,342c-88-129.21-242.14-149.91-335.52-136.48s-197,7.29-276.85-97.19S342.84-5.91,263.85,78.22c-85.44,91-201.72,312.09-46.6,569.21,98.82,163.82,249.81,271.28,380.8,327.13s240.35,76.53,305.6,20.81S930.92,876,917.57,847.46s-33.86-112.84,116.08-143C1212.22,668.51,1277.59,486.57,1179.16,342Z"/><path class="cls-4" d="M1001.91,299.35c-119.44-88-260.31-120.77-371.63-122.6s-196.7,15.11-227.8,73.67,15,92.84,33,109.31,57.45,70.52-42.56,135.41c-119.1,77.28-113.53,225.72,0,300.1,101.49,66.49,219.37,36.59,283.22,0s140.79-62.22,229.2-11,195.79,16.5,228.6-66.25C1169.41,628.5,1189.37,437.45,1001.91,299.35Z"/><circle class="cls-5" cx="779.84" cy="931.45" r="48.39"/><circle class="cls-6" cx="804.04" cy="128.23" r="24.19"/><path class="cls-7" d="M848.94,257.63c-137.26-39.47-224.48,73.44-489.66,54.62-304.39-21.61-230.79,287,29.1,422.21,279.53,145.41,554.3,150.59,600.11-169.64C988.23,564.73,1031.29,310.07,848.94,257.63Z"/><circle class="cls-8" cx="934.68" cy="525" r="96.77"/><circle class="cls-8" cx="266.94" cy="326.61" r="72.58"/></g></svg>