<svg xmlns="http://www.w3.org/2000/svg" xmlns:xlink="http://www.w3.org/1999/xlink" xmlns:svgjs="http://svgjs.com/svgjs" version="1.1" width="512" height="512" x="0" y="0" viewBox="0 0 512.002 512.002" style="enable-background:new 0 0 512 512" xml:space="preserve" class=""><g transform="matrix(0.5,0,0,0.5,128.00099754333496,128.00050449371338)"><g xmlns="http://www.w3.org/2000/svg"><path d="m500.964 203.246v-21.481c0-6.674 1.229-12.903 3.651-18.513 3.545-8.21 5.343-16.907 5.343-25.849v-78.645c0-11.443-8.779-20.82-19.986-21.348-2.479-.117-4.923.194-7.222.903-1.443-9.964-9.604-17.708-19.759-18.186-2.412-.114-4.764.173-6.996.834-.015-10.853-8.478-20.961-21.642-20.961h-217.076c-6.792 0-12.489 4.714-14.031 11.038h-21.48c-6.676 0-12.904-1.229-18.514-3.651-8.211-3.545-16.908-5.343-25.85-5.343h-78.644c-11.443 0-20.82 8.779-21.349 19.987-.116 2.489.194 4.923.904 7.222-9.964 1.442-17.708 9.604-18.187 19.759-.112 2.407.175 4.763.836 6.995-10.806.015-20.962 8.42-20.962 21.643v217.075c0 6.792 4.714 12.489 11.037 14.032v21.48c0 6.676-1.229 12.905-3.65 18.513-3.546 8.212-5.344 16.909-5.344 25.849v78.645c0 11.443 8.779 20.82 19.987 21.348 2.48.117 4.923-.193 7.222-.903 1.443 9.963 9.604 17.708 19.759 18.186 2.405.113 4.764-.174 6.996-.835.015 10.785 8.402 20.962 21.643 20.962h217.075c6.792 0 12.489-4.714 14.031-11.038h21.48c6.676 0 12.904 1.229 18.514 3.651 8.21 3.545 16.906 5.343 25.849 5.343h78.646c11.443 0 20.82-8.779 21.349-19.987.116-2.489-.194-4.923-.904-7.222 9.964-1.442 17.708-9.604 18.187-19.759.112-2.407-.175-4.763-.836-6.995 10.749-.015 20.963-8.356 20.963-21.643v-127.454c0-4.142-3.357-7.5-7.5-7.5s-7.5 3.358-7.5 7.5v108.058c-1.782-.543-4.038-.905-5.964-.939.662-2.233.949-4.591.836-7-.527-11.207-9.904-19.986-21.348-19.986h-64.628l7.212-7.621c8.644-9.134 7.88-23.699-1.697-31.871-5.687-4.852-13.821-5.706-20.421-2.161v-127.558h106.008v54.078c0 4.142 3.357 7.5 7.5 7.5s7.5-3.358 7.5-7.5v-54.621c0-6.791-4.714-12.489-11.038-14.031zm-283.144-188.246h197.137c-.521 1.709-.902 3.948-.939 5.964-2.291-.678-4.843-.937-7-.836-11.208.528-19.986 9.905-19.986 21.348v64.625l-7.621-7.212c-9.201-8.706-23.757-7.809-31.871 1.699-4.887 5.728-5.672 13.882-2.159 20.42h-52.869c-4.143 0-7.5 3.358-7.5 7.5s3.357 7.5 7.5 7.5h64.407c1.474 2.366 2.675 4.852 3.577 7.436 2.871 8.222 8.719 20.083 20.273 29.898 3.98 3.381 6.264 8.282 6.264 13.446v16.458c-6.323 1.542-11.037 7.24-11.037 14.031v139.64c-2.366 1.474-4.851 2.675-7.435 3.577-8.223 2.871-20.084 8.718-29.898 20.273-3.382 3.981-8.283 6.265-13.447 6.265h-16.458c-1.542-6.324-7.24-11.038-14.031-11.038h-139.64c-1.473-2.366-2.674-4.851-3.576-7.436-2.871-8.222-8.719-20.083-20.273-29.898-3.981-3.381-6.265-8.283-6.265-13.446v-16.458c6.324-1.542 11.038-7.24 11.038-14.032v-139.64c2.366-1.474 4.851-2.674 7.435-3.576 8.223-2.871 20.084-8.718 29.898-20.273 3.382-3.981 8.283-6.265 13.446-6.265h16.459c1.542 6.324 7.24 11.038 14.031 11.038h40.233c4.143 0 7.5-3.358 7.5-7.5s-3.357-7.5-7.5-7.5h-39.69c-.003-10.814-.003-94.109-.003-106.008zm-202.82 279.182v-197.137c1.77.539 4.027.904 5.964.939-.662 2.233-.949 4.591-.836 7 .527 11.207 9.904 19.986 21.348 19.986h64.625l-7.213 7.622c-7.94 8.393-8.125 21.727.071 30.328 6.243 6.551 15.228 7.37 22.049 3.702v127.56c-11.132 0-95.264 0-106.008 0zm5.991-223.175h87.664c4.143 0 7.5-3.358 7.5-7.5s-3.357-7.5-7.5-7.5h-67.56c-3.41 0-6.148-2.835-5.983-6.29.147-3.138 3.003-5.691 6.364-5.691h67.18c4.143 0 7.5-3.358 7.5-7.5s-3.357-7.5-7.5-7.5h-50.279c-3.41 0-6.148-2.835-5.983-6.29.147-3.139 3.003-5.692 6.364-5.692h78.645c6.885 0 13.581 1.384 19.902 4.114 7.498 3.238 15.728 4.88 24.461 4.88h21.055v83.933h-16.033c-9.573 0-18.641 4.211-24.879 11.553-7.633 8.987-16.943 13.565-23.41 15.823-6.005 2.097-11.604 5.296-16.64 9.509l-7.34 6.139c-2.913 2.434-6.435-1.017-6.643-4.9-.099-1.84.547-3.753 1.907-5.192l13.838-14.623c6.54-6.911 1.611-18.309-7.881-18.309h-74.264c-3.361 0-6.217-2.553-6.364-5.691-.165-3.469 2.587-6.291 5.983-6.291h67.561c4.143 0 7.5-3.358 7.5-7.5s-3.357-7.5-7.5-7.5c-10.617 0-77.947 0-87.283 0-3.361 0-6.217-2.553-6.365-5.692-.164-3.459 2.574-6.29 5.983-6.29zm28.725 405.884c-3.138-.148-5.69-3.003-5.69-6.365 0-7.4 0-59.049 0-67.179 0-4.142-3.357-7.5-7.5-7.5s-7.5 3.358-7.5 7.5v50.278c0 3.374-2.789 6.14-6.29 5.984-3.139-.147-5.692-3.002-5.692-6.364v-78.645c0-6.883 1.385-13.579 4.115-19.902 3.237-7.497 4.879-15.727 4.879-24.46v-21.055h83.933v16.032c0 9.574 4.211 18.642 11.554 24.879 8.987 7.634 13.564 16.944 15.822 23.41 2.098 6.006 5.298 11.605 9.51 16.641l6.138 7.337c1.026 1.227 1.051 3.031.058 4.197-2.621 3.07-7.254 3.279-10.148.539l-14.625-13.839c-3.149-2.98-7.763-3.801-11.748-2.083-3.985 1.716-6.56 5.628-6.56 9.966v74.265c0 3.364-2.556 6.217-5.69 6.364-3.475.17-6.291-2.601-6.291-5.983v-67.561c0-4.142-3.357-7.5-7.5-7.5s-7.5 3.358-7.5 7.5v87.283c0 3.361-2.552 6.217-5.692 6.365-3.418.17-6.289-2.547-6.289-5.983 0-9.444 0-77.384 0-87.665 0-4.142-3.357-7.5-7.5-7.5s-7.5 3.358-7.5 7.5v67.561c-.003 3.407-2.839 6.151-6.294 5.983zm244.466 20.111h-197.137c.575-1.887.939-4.353.939-5.963 2.232.662 4.585.951 6.999.836 10.929-.515 19.986-9.684 19.986-21.348v-64.627l7.622 7.213c9.146 8.65 23.692 7.887 31.869-1.699 4.862-5.698 5.708-13.824 2.161-20.421h127.56c.001 10.815.001 94.11.001 106.009zm176.344-94.97c3.361 0 6.217 2.553 6.364 5.691.165 3.469-2.587 6.291-5.983 6.291h-67.561c-4.143 0-7.5 3.358-7.5 7.5s3.357 7.5 7.5 7.5h87.283c3.361 0 6.217 2.553 6.365 5.692.163 3.459-2.577 6.29-5.984 6.29-9.444 0-77.383 0-87.664 0-4.143 0-7.5 3.358-7.5 7.5s3.357 7.5 7.5 7.5h67.561c3.41 0 6.148 2.835 5.983 6.29-.147 3.138-3.003 5.691-6.364 5.691-7.299 0-59.774 0-67.18 0-4.143 0-7.5 3.358-7.5 7.5s3.357 7.5 7.5 7.5h50.278c3.41 0 6.148 2.835 5.983 6.29-.147 3.139-3.003 5.692-6.364 5.692h-78.646c-6.885 0-13.581-1.384-19.901-4.114-7.498-3.238-15.728-4.88-24.461-4.88h-21.055v-83.933h16.032c9.573 0 18.642-4.211 24.88-11.553 7.633-8.987 16.943-13.565 23.41-15.823 6.003-2.096 11.602-5.295 16.64-9.509l7.338-6.138c1.229-1.027 3.032-1.052 4.197-.058 3.082 2.63 3.265 7.268.539 10.148l-4.613 4.875-9.227 9.749c-3.002 3.175-3.783 7.801-2.083 11.749 1.714 3.98 5.624 6.559 9.966 6.559h74.267zm-68.495-199.212v-16.033c0-9.575-4.211-18.643-11.553-24.879-8.987-7.634-13.564-16.944-15.822-23.41-3.671-10.506-8.836-15.835-15.647-23.979-1.026-1.228-1.052-3.031-.058-4.196 2.598-3.044 7.22-3.31 10.148-.539l14.625 13.839c3.151 2.981 7.762 3.798 11.748 2.083 3.984-1.716 6.559-5.627 6.559-9.966v-74.264c0-3.358 2.55-6.217 5.691-6.364 3.542-.147 6.291 2.642 6.291 5.983v67.561c0 4.142 3.357 7.5 7.5 7.5s7.5-3.358 7.5-7.5c0-10.617 0-77.947 0-87.283 0-3.362 2.553-6.217 5.691-6.365 3.463-.165 6.29 2.58 6.29 5.983v87.665c0 4.142 3.357 7.5 7.5 7.5s7.5-3.358 7.5-7.5v-67.561c0-3.356 2.766-6.132 6.29-5.983 3.139.147 5.691 3.003 5.691 6.365v67.179c0 4.142 3.357 7.5 7.5 7.5s7.5-3.358 7.5-7.5v-50.279c0-1.654.659-3.194 1.857-4.336 1.194-1.141 2.777-1.718 4.433-1.647 3.139.147 5.691 3.002 5.691 6.364v78.645c0 6.885-1.384 13.581-4.114 19.902-3.238 7.499-4.88 15.729-4.88 24.46v21.055z" fill="#211261" data-original="#000000" style="" class=""/></g></g></svg>
